<svg width="23" height="23" viewBox="0 0 23 23" fill="none" xmlns="http://www.w3.org/2000/svg">
<path d="M11.5001 1.91663C6.21008 1.91663 1.91675 6.20996 1.91675 11.5C1.91675 16.79 6.21008 21.0833 11.5001 21.0833C16.7901 21.0833 21.0834 16.79 21.0834 11.5C21.0834 6.20996 16.7901 1.91663 11.5001 1.91663ZM15.3622 9.77497L10.8867 14.2408C10.7526 14.3845 10.5705 14.4516 10.3788 14.4516C10.1967 14.4516 10.0147 14.3845 9.8709 14.2408L7.638 12.0079C7.36008 11.73 7.36008 11.2699 7.638 10.992C7.91592 10.7141 8.37591 10.7141 8.65383 10.992L10.3788 12.7171L14.3463 8.75914C14.6242 8.47164 15.0842 8.47164 15.3622 8.75914C15.6401 9.03706 15.6401 9.48747 15.3622 9.77497Z" fill="white"/>
</svg>
