<svg width="22" height="22" viewBox="0 0 22 22" fill="none" xmlns="http://www.w3.org/2000/svg">
<path d="M11.0002 1.14575C5.56616 1.14575 1.146 5.56683 1.146 10.9999C1.146 16.433 5.56616 20.8541 11.0002 20.8541C16.4342 20.8541 20.8543 16.433 20.8543 10.9999C20.8543 5.56683 16.4342 1.14575 11.0002 1.14575ZM11.0002 19.4791C6.32425 19.4791 2.521 15.6758 2.521 10.9999C2.521 6.324 6.32425 2.52075 11.0002 2.52075C15.6761 2.52075 19.4793 6.324 19.4793 10.9999C19.4793 15.6758 15.6761 19.4791 11.0002 19.4791ZM14.6943 8.37457C14.9629 8.64316 14.9629 9.0786 14.6943 9.34719L10.4163 13.6253C10.2824 13.7591 10.1064 13.8269 9.93042 13.8269C9.75442 13.8269 9.57842 13.76 9.44459 13.6253L7.306 11.4867C7.03741 11.2181 7.03741 10.7826 7.306 10.5141C7.57458 10.2455 8.01 10.2455 8.27858 10.5141L9.93134 12.1668L13.7227 8.37552C13.9912 8.10694 14.4257 8.10691 14.6943 8.37457Z" fill="#06BF71"/>
</svg>
