<svg width="23" height="23" viewBox="0 0 23 23" fill="none" xmlns="http://www.w3.org/2000/svg">
<path d="M11.5001 1.91663C6.20721 1.91663 1.91675 6.20708 1.91675 11.5C1.91675 16.7928 6.20721 21.0833 11.5001 21.0833C16.793 21.0833 21.0834 16.7928 21.0834 11.5C21.0834 6.20708 16.793 1.91663 11.5001 1.91663ZM10.7813 7.18746C10.7813 6.79071 11.1033 6.46871 11.5001 6.46871C11.8968 6.46871 12.2188 6.79071 12.2188 7.18746V11.568C12.2188 11.9648 11.8968 12.2868 11.5001 12.2868C11.1033 12.2868 10.7813 11.9648 10.7813 11.568V7.18746ZM11.5193 15.8125C10.9903 15.8125 10.556 15.3831 10.556 14.8541C10.556 14.3251 10.9807 13.8958 11.5097 13.8958H11.5193C12.0492 13.8958 12.4776 14.3251 12.4776 14.8541C12.4776 15.3831 12.0483 15.8125 11.5193 15.8125Z" fill="white"/>
</svg>
