<svg width="22" height="22" viewBox="0 0 22 22" fill="none" xmlns="http://www.w3.org/2000/svg">
<path d="M11.0002 20.8541C5.56616 20.8541 1.146 16.4339 1.146 10.9999C1.146 5.56592 5.56616 1.14575 11.0002 1.14575C16.4342 1.14575 20.8543 5.56592 20.8543 10.9999C20.8543 16.4339 16.4342 20.8541 11.0002 20.8541ZM11.0002 2.52075C6.32425 2.52075 2.521 6.324 2.521 10.9999C2.521 15.6758 6.32425 19.4791 11.0002 19.4791C15.6761 19.4791 19.4793 15.6758 19.4793 10.9999C19.4793 6.324 15.6761 2.52075 11.0002 2.52075ZM11.9352 14.2083C11.9352 13.7023 11.5254 13.2916 11.0185 13.2916H11.0093C10.5033 13.2916 10.0971 13.7023 10.0971 14.2083C10.0971 14.7143 10.5125 15.1249 11.0185 15.1249C11.5245 15.1249 11.9352 14.7143 11.9352 14.2083ZM11.6877 11.065V6.87492C11.6877 6.49542 11.3797 6.18742 11.0002 6.18742C10.6207 6.18742 10.3127 6.49542 10.3127 6.87492V11.065C10.3127 11.4445 10.6207 11.7525 11.0002 11.7525C11.3797 11.7525 11.6877 11.4445 11.6877 11.065Z" fill="#DD3B3A"/>
</svg>
