<svg width="20" height="20" viewBox="0 0 20 20" fill="none" xmlns="http://www.w3.org/2000/svg">
<path d="M17.1585 8.7667C17.6168 9.52504 17.6168 10.475 17.1585 11.2333C16.1335 12.9417 13.8417 15.8334 10.0001 15.8334C9.37673 15.8334 8.7901 15.7542 8.2451 15.6167C8.05926 15.57 8.00082 15.3318 8.13666 15.1968L9.71665 13.6168C9.81332 13.5201 9.93339 13.5417 10.0001 13.5417C11.9534 13.5417 13.5417 11.9525 13.5417 10C13.5417 9.93335 13.5318 9.80165 13.6009 9.73248L15.8859 7.44753C15.9917 7.3417 16.17 7.35261 16.2625 7.47011C16.6291 7.93345 16.9276 8.37754 17.1585 8.7667ZM17.9418 2.94171L2.94175 17.9417C2.82008 18.0634 2.66006 18.125 2.50006 18.125C2.34006 18.125 2.18004 18.0642 2.05837 17.9417C1.8142 17.6975 1.8142 17.3017 2.05837 17.0575L5.14593 13.9699C4.0876 13.0691 3.31999 12.03 2.84165 11.2325C2.38332 10.4742 2.38332 9.52422 2.84165 8.76589C3.86665 7.05756 6.15839 4.16587 10.0001 4.16587C11.5201 4.16587 12.7893 4.62163 13.8443 5.27163L17.0584 2.05751C17.3025 1.81335 17.6984 1.81335 17.9426 2.05751C18.1867 2.30168 18.1859 2.69754 17.9418 2.94171ZM7.10008 12.0158L8.00747 11.1084C7.82247 10.7793 7.70839 10.405 7.70839 10C7.70839 9.70835 7.76668 9.43336 7.86668 9.17503C8.02501 9.30836 8.22497 9.3917 8.44997 9.3917C8.96664 9.3917 9.39174 8.9666 9.39174 8.44993C9.39174 8.22493 9.3084 8.02497 9.17507 7.86664C9.4334 7.76664 9.70839 7.70835 10.0001 7.70835C10.4051 7.70835 10.7801 7.82242 11.1085 8.00742L12.0158 7.10004C11.4425 6.69837 10.7492 6.45835 10.0001 6.45835C8.05006 6.45835 6.45839 8.05002 6.45839 10C6.45839 10.75 6.69841 11.4425 7.10008 12.0158Z" fill="#727688"/>
</svg>
