<svg width="20" height="20" viewBox="0 0 20 20" fill="none" xmlns="http://www.w3.org/2000/svg">
<path d="M12.2917 9.99996C12.2917 11.2641 11.2642 12.2916 10 12.2916C8.73587 12.2916 7.70837 11.2641 7.70837 9.99996C7.70837 9.70913 7.7683 9.43326 7.86747 9.17659C8.02913 9.30493 8.22419 9.39327 8.44669 9.39327C8.96919 9.39327 9.39334 8.96911 9.39334 8.44661C9.39334 8.22411 9.305 8.02906 9.17667 7.86739C9.43334 7.76822 9.7092 7.70829 10 7.70829C11.2642 7.70829 12.2917 8.73579 12.2917 9.99996ZM17.1601 11.2308C16.1376 12.9425 13.8409 15.8333 10 15.8333C6.1592 15.8333 3.8625 12.9425 2.84 11.2308C2.38667 10.4725 2.38667 9.52742 2.84 8.76908C3.8625 7.05742 6.1592 4.16663 10 4.16663C13.8409 4.16663 16.1376 7.05742 17.1601 8.76908C17.6134 9.52742 17.6134 10.4725 17.1601 11.2308ZM13.5417 9.99996C13.5417 8.04746 11.9534 6.45829 10 6.45829C8.0467 6.45829 6.45837 8.04746 6.45837 9.99996C6.45837 11.9525 8.0467 13.5416 10 13.5416C11.9534 13.5416 13.5417 11.9525 13.5417 9.99996Z" fill="#727688"/>
</svg>
