<svg width="24" height="24" viewBox="0 0 24 24" fill="none" xmlns="http://www.w3.org/2000/svg">
<path opacity="0.4" d="M12 22C17.5228 22 22 17.5228 22 12C22 6.47715 17.5228 2 12 2C6.47715 2 2 6.47715 2 12C2 17.5228 6.47715 22 12 22Z" fill="#727688"/>
<path d="M14.9998 13.75C14.8078 13.75 14.6157 13.6771 14.4697 13.5301L11.9998 11.0601L9.52981 13.5301C9.23681 13.8231 8.76177 13.8231 8.46877 13.5301C8.17577 13.2371 8.17577 12.762 8.46877 12.469L11.4688 9.46902C11.7618 9.17602 12.2368 9.17602 12.5298 9.46902L15.5298 12.469C15.8228 12.762 15.8228 13.2371 15.5298 13.5301C15.3838 13.6771 15.1918 13.75 14.9998 13.75Z" fill="#727688"/>
</svg>
