<svg width="25" height="24" viewBox="0 0 25 24" fill="none" xmlns="http://www.w3.org/2000/svg">
<path d="M22.2061 12.708L15.207 19.7071C15.012 19.9021 14.756 20 14.5 20C14.244 20 13.988 19.9021 13.793 19.7071C13.402 19.3161 13.402 18.684 13.793 18.293L19.0859 13H3.5C2.947 13 2.5 12.552 2.5 12C2.5 11.448 2.947 11 3.5 11H19.0859L13.793 5.70707C13.402 5.31607 13.402 4.68401 13.793 4.29301C14.184 3.90201 14.816 3.90201 15.207 4.29301L22.2061 11.292C22.2991 11.385 22.3721 11.495 22.4231 11.618C22.5241 11.862 22.5241 12.1381 22.4231 12.3821C22.3721 12.5051 22.2991 12.615 22.2061 12.708Z" fill="#327CC8"/>
</svg>
