<svg width="14" height="12" viewBox="0 0 14 12" fill="none" xmlns="http://www.w3.org/2000/svg">
<path d="M13.6665 6.00002C13.6665 6.36802 13.3685 6.66669 12.9999 6.66669H2.60926L6.1379 10.1953C6.39857 10.456 6.39857 10.8774 6.1379 11.138C6.0079 11.268 5.83721 11.3334 5.66655 11.3334C5.49588 11.3334 5.32519 11.268 5.19519 11.138L0.529178 6.47203C0.467178 6.41003 0.418484 6.33674 0.384484 6.25475C0.317151 6.09208 0.317151 5.90797 0.384484 5.74531C0.418484 5.6633 0.467178 5.59002 0.529178 5.52802L5.19519 0.862004C5.45586 0.601337 5.87724 0.601337 6.1379 0.862004C6.39857 1.12267 6.39857 1.54405 6.1379 1.80471L2.60926 5.33336H12.9999C13.3685 5.33336 13.6665 5.63202 13.6665 6.00002Z" fill="#327CC8"/>
</svg>
