<svg width="31" height="30" viewBox="0 0 31 30" fill="none" xmlns="http://www.w3.org/2000/svg">
<path d="M8 13.125C10.4162 13.125 12.375 11.1662 12.375 8.75C12.375 6.33375 10.4162 4.375 8 4.375C5.58375 4.375 3.625 6.33375 3.625 8.75C3.625 11.1662 5.58375 13.125 8 13.125Z" fill="#727688"/>
<path d="M23 25.625C25.4162 25.625 27.375 23.6662 27.375 21.25C27.375 18.8338 25.4162 16.875 23 16.875C20.5838 16.875 18.625 18.8338 18.625 21.25C18.625 23.6662 20.5838 25.625 23 25.625Z" fill="#727688"/>
<path opacity="0.4" d="M26.75 9.6875H19.25C18.7325 9.6875 18.3125 9.2675 18.3125 8.75C18.3125 8.2325 18.7325 7.8125 19.25 7.8125H26.75C27.2675 7.8125 27.6875 8.2325 27.6875 8.75C27.6875 9.2675 27.2675 9.6875 26.75 9.6875Z" fill="#727688"/>
<path opacity="0.4" d="M11.75 22.1875H4.25C3.7325 22.1875 3.3125 21.7675 3.3125 21.25C3.3125 20.7325 3.7325 20.3125 4.25 20.3125H11.75C12.2675 20.3125 12.6875 20.7325 12.6875 21.25C12.6875 21.7675 12.2675 22.1875 11.75 22.1875Z" fill="#727688"/>
</svg>
