<svg width="31" height="30" viewBox="0 0 31 30" fill="none" xmlns="http://www.w3.org/2000/svg">
<path d="M12.375 8.75C12.375 11.1625 10.4125 13.125 8 13.125C5.5875 13.125 3.625 11.1625 3.625 8.75C3.625 6.3375 5.5875 4.375 8 4.375C10.4125 4.375 12.375 6.3375 12.375 8.75ZM23 16.875C20.5875 16.875 18.625 18.8375 18.625 21.25C18.625 23.6625 20.5875 25.625 23 25.625C25.4125 25.625 27.375 23.6625 27.375 21.25C27.375 18.8375 25.4125 16.875 23 16.875ZM27.6875 8.75C27.6875 8.2325 27.2675 7.8125 26.75 7.8125H19.25C18.7325 7.8125 18.3125 8.2325 18.3125 8.75C18.3125 9.2675 18.7325 9.6875 19.25 9.6875H26.75C27.2675 9.6875 27.6875 9.2675 27.6875 8.75ZM12.6875 21.25C12.6875 20.7325 12.2675 20.3125 11.75 20.3125H4.25C3.7325 20.3125 3.3125 20.7325 3.3125 21.25C3.3125 21.7675 3.7325 22.1875 4.25 22.1875H11.75C12.2675 22.1875 12.6875 21.7675 12.6875 21.25Z" fill="#327CC8"/>
</svg>
