<svg width="24" height="24" viewBox="0 0 24 24" fill="none" xmlns="http://www.w3.org/2000/svg">
<path d="M22.5328 23.13C22.6008 23.5845 22.2887 24 21.8794 24H2.1206C1.70996 24 1.39791 23.5845 1.46724 23.13L2.01123 19.5001C2.04323 19.2841 2.20991 19.1251 2.4059 19.1251H21.5955C21.7901 19.1251 21.9567 19.2841 21.9901 19.5001L22.5328 23.13ZM21.9861 5.29558L18.6529 7.56052C18.0503 7.97001 17.2677 7.77199 16.8797 7.11051L13.0946 0.662235C12.5773 -0.219737 11.4267 -0.221248 10.9067 0.660725L7.12031 7.09554C6.73367 7.77052 5.94701 7.96549 5.33371 7.54551L2.01392 5.29558C1.02731 4.6206 -0.199278 5.58058 0.0273757 6.85554L1.95655 16.5242C1.99788 16.7297 2.15924 16.8752 2.34723 16.8752H21.6528C21.8394 16.8752 22.0021 16.7297 22.0435 16.5242L23.9726 6.85554C24.1993 5.58058 22.9727 4.6206 21.9861 5.29558Z" fill="#327CC8"/>
</svg>
