<svg width="32" height="32" viewBox="0 0 32 32" fill="none" xmlns="http://www.w3.org/2000/svg">
<path d="M20.3989 2.46051L21.5135 0H10.4865L11.6012 2.46051C4.77507 4.29948 0 10.1849 0 16.9409C0 30.4234 17.3389 36.9766 27.3136 27.5888C30.3357 24.7446 32 20.9631 32 16.9409C32 10.178 27.2182 4.29772 20.3989 2.46051ZM4.0416 17.8821C4.24627 20.2329 5.21593 22.4359 6.83713 24.2337L5.4232 25.5645C3.49633 23.4739 2.25667 20.8084 2.03607 17.8821H4.0416ZM13.9848 7.72179L16.0001 12.1702L18.0153 7.72179C22.543 8.59958 26 12.3533 26 16.9409C26 22.1417 21.5284 26.3525 16 26.3525C10.4741 26.3525 6 22.144 6 16.9409C6 12.3653 9.44593 8.60165 13.9848 7.72179ZM8.25133 25.5646C10.1616 27.0905 12.5024 28.003 15 28.1957V30.0832C11.8907 29.8756 9.0586 28.7089 6.8374 26.8954L8.25133 25.5646ZM17 28.1957C19.4978 28.0031 21.8385 27.0905 23.7487 25.5646L25.1626 26.8954C22.9414 28.7088 20.1092 29.8756 16.9999 30.0832L17 28.1957ZM25.1629 24.2337C26.7841 22.4358 27.7537 20.2327 27.9584 17.8821H29.9639C29.7434 20.8084 28.5037 23.4739 26.5769 25.5645L25.1629 24.2337ZM29.9635 15.9997H27.9583C27.7537 13.6489 26.7841 11.4459 25.1629 9.64816L26.5741 8.32C28.5107 10.4278 29.7425 13.1052 29.9635 15.9997ZM25.1624 6.98668L23.7482 8.31767C22.3213 7.18351 20.6221 6.37348 18.8128 5.96144L19.6076 4.20706C21.7024 4.73128 23.5894 5.69842 25.1624 6.98668ZM18.4865 1.88232L16 7.37099L13.5135 1.88232H18.4865ZM13.1873 5.96144C11.3778 6.37342 9.67867 7.18351 8.25187 8.31767L6.83767 6.98668C8.41067 5.69848 10.2976 4.73135 12.3925 4.20706L13.1873 5.96144ZM5.42593 8.32L6.83713 9.64816C5.21587 11.446 4.24627 13.649 4.0416 15.9997H2.03647C2.25747 13.1052 3.48927 10.4278 5.42593 8.32Z" fill="#327CC8"/>
<path d="M12.4649 21.5993L14.7079 19.4883C15.1154 19.671 15.5578 19.7629 16.0005 19.7629C16.4431 19.7629 16.8855 19.671 17.2931 19.4883L19.5361 21.5993L20.9503 20.2683L18.7073 18.1573C19.0956 17.3901 19.0956 16.4914 18.7073 15.7242L20.9503 13.6132L19.5361 12.2822L17.2931 14.3933C16.478 14.0278 15.523 14.0278 14.708 14.3933L12.465 12.2822L11.0508 13.6132L13.2937 15.7242C12.9054 16.4914 12.9054 17.3902 13.2937 18.1573L11.0508 20.2683L12.4649 21.5993ZM16.7076 16.2753C16.8964 16.4531 17.0005 16.6894 17.0005 16.9408C17.0005 17.1921 16.8965 17.4285 16.7076 17.6063C16.5187 17.7841 16.2676 17.8819 16.0005 17.8819C15.7334 17.8819 15.4823 17.7841 15.2934 17.6063C15.1046 17.4286 15.0005 17.1922 15.0005 16.9408C15.0005 16.6894 15.1046 16.4531 15.2934 16.2753C15.4823 16.0976 15.7334 15.9996 16.0005 15.9996C16.2676 15.9996 16.5186 16.0976 16.7076 16.2753Z" fill="#327CC8"/>
</svg>
