<svg width="32" height="32" viewBox="0 0 32 32" fill="none" xmlns="http://www.w3.org/2000/svg">
<mask id="mask0_27349_28815" style="mask-type:luminance" maskUnits="userSpaceOnUse" x="0" y="0" width="32" height="32">
<path d="M31.25 31.25V0.75H0.75V31.25H31.25Z" fill="white" stroke="white" stroke-width="1.5"/>
</mask>
<g mask="url(#mask0_27349_28815)">
<path d="M12.25 6.375V3.5C13.6614 3.5 14.8125 2.34887 14.8125 0.937497H26.5625C26.5625 2.34887 27.7136 3.5 29.125 3.5V22.75C27.7136 22.75 26.5625 23.9011 26.5625 25.3125H19.875" stroke="#327CC8" stroke-width="1.5" stroke-miterlimit="22.926" stroke-linecap="round" stroke-linejoin="round"/>
<path d="M2.875 28.5063V9.25635C4.28638 9.25635 5.4375 8.10522 5.4375 6.69384H17.1875C17.1875 8.10522 18.3386 9.25635 19.75 9.25635V28.5063C18.3386 28.5063 17.1875 29.6575 17.1875 31.0688H5.4375C5.4375 29.6575 4.28638 28.5063 2.875 28.5063Z" stroke="#327CC8" stroke-width="1.5" stroke-miterlimit="22.926" stroke-linecap="round" stroke-linejoin="round"/>
<path d="M11.3117 17.979L12.7257 19.9392L15.0268 20.6782L13.5995 22.6286L13.6077 25.0454L11.3117 24.2907L9.01574 25.0454L9.02399 22.6286L7.59668 20.6782L9.89781 19.9392L11.3117 17.979Z" stroke="#327CC8" stroke-width="1.5" stroke-miterlimit="22.926" stroke-linecap="round" stroke-linejoin="round"/>
<path d="M7.5625 12.6938C7.66466 12.6938 7.75 12.6085 7.75 12.5063C7.75 12.4042 7.66466 12.3188 7.5625 12.3188C7.46034 12.3188 7.375 12.4042 7.375 12.5063C7.375 12.6085 7.46034 12.6938 7.5625 12.6938Z" fill="#727688" stroke="#327CC8" stroke-width="1.5"/>
<path d="M11.3125 12.6938C11.4147 12.6938 11.5 12.6085 11.5 12.5063C11.5 12.4042 11.4147 12.3188 11.3125 12.3188C11.2103 12.3188 11.125 12.4042 11.125 12.5063C11.125 12.6085 11.2103 12.6938 11.3125 12.6938Z" fill="#727688" stroke="#327CC8" stroke-width="1.5"/>
<path d="M15.0625 12.6938C15.1647 12.6938 15.25 12.6085 15.25 12.5063C15.25 12.4042 15.1647 12.3188 15.0625 12.3188C14.9603 12.3188 14.875 12.4042 14.875 12.5063C14.875 12.6085 14.9603 12.6938 15.0625 12.6938Z" fill="#727688" stroke="#327CC8" stroke-width="1.5"/>
</g>
</svg>
