<svg width="32" height="32" viewBox="0 0 32 32" fill="none" xmlns="http://www.w3.org/2000/svg">
<path fill-rule="evenodd" clip-rule="evenodd" d="M10.1323 22.2201C10.0072 22.2201 9.94468 22.1566 9.81959 22.0931C8.1309 20.3784 6.69238 18.7907 6.69238 17.1396C6.69238 16.06 7.568 15.1709 8.63125 15.1709C9.38178 15.1709 9.81959 15.4884 10.1323 15.933C10.5076 15.4249 10.9454 15.1709 11.6959 15.1709C12.7592 15.1709 13.6348 16.06 13.6348 17.1396C13.6348 18.8543 12.1337 20.4419 10.445 22.0931C10.3825 22.1566 10.2574 22.2201 10.1323 22.2201ZM8.63125 16.06C8.06836 16.06 7.568 16.568 7.568 17.1396C7.568 18.3462 8.6938 19.6798 10.1323 21.1405C11.5083 19.8068 12.7592 18.4097 12.7592 17.1396C12.7592 16.568 12.2588 16.06 11.6959 16.06C11.133 16.06 10.8828 16.2505 10.5076 16.9491C10.445 17.0761 10.3199 17.2031 10.1323 17.2031C9.94468 17.2031 9.81959 17.0761 9.75705 16.9491C9.38178 16.2505 9.13161 16.06 8.63125 16.06Z" fill="#327CC8"/>
<path fill-rule="evenodd" clip-rule="evenodd" d="M17.5749 32.0002H2.75195C1.18834 32.0002 0 30.7936 0 29.2695V8.12191C0 6.59776 1.25088 5.32764 2.75195 5.32764H17.5749C19.076 5.32764 20.3269 6.59776 20.3269 8.12191V29.2695C20.3269 30.7936 19.076 32.0002 17.5749 32.0002ZM2.75195 6.21672C1.75124 6.21672 0.875619 7.0423 0.875619 8.12191V29.2695C0.875619 30.2856 1.68869 31.1111 2.75195 31.1111H17.5749C18.6382 31.1111 19.4512 30.2856 19.4512 29.2695V8.12191C19.4512 7.10581 18.5756 6.21672 17.5749 6.21672H2.75195Z" fill="#327CC8"/>
<path fill-rule="evenodd" clip-rule="evenodd" d="M6.75476 13.0751C6.56713 13.0751 6.44204 12.9481 6.3795 12.8211L5.12861 9.70927L4.50317 11.3604L3.94027 12.8211C3.81518 13.0116 3.56501 13.1386 3.37737 13.0116C3.1272 12.9481 3.00211 12.6941 3.1272 12.44L3.6901 11.0429L4.75335 8.31213C4.81589 8.18512 4.94098 8.05811 5.12861 8.05811C5.31625 8.05811 5.50388 8.18512 5.56642 8.31213L7.19257 12.44C7.25512 12.6941 7.13003 12.9481 6.94239 13.0116C6.87985 13.0751 6.81731 13.0751 6.75476 13.0751Z" fill="#327CC8"/>
<path fill-rule="evenodd" clip-rule="evenodd" d="M6.25483 11.8686H4.00324C3.75306 11.8686 3.56543 11.6781 3.56543 11.424C3.56543 11.17 3.75306 10.9795 4.00324 10.9795H6.25483C6.50501 10.9795 6.69264 11.17 6.69264 11.424C6.69264 11.6781 6.50501 11.8686 6.25483 11.8686Z" fill="#327CC8"/>
<path fill-rule="evenodd" clip-rule="evenodd" d="M16.8244 29.3329C16.6368 29.3329 16.5117 29.2059 16.4492 29.0789L15.1358 25.9036L14.5103 27.6183V27.6818L13.9474 29.0789C13.8223 29.2694 13.5721 29.3964 13.322 29.2694C13.1343 29.2059 13.0092 28.9519 13.1343 28.6979L13.6972 27.3007L14.7605 24.5065C14.823 24.3795 14.9481 24.2524 15.1358 24.2524C15.3234 24.2524 15.511 24.3795 15.5736 24.5065L17.2623 28.6979C17.3248 28.9519 17.1997 29.2059 17.0121 29.2694C16.9495 29.3329 16.887 29.3329 16.8244 29.3329Z" fill="#327CC8"/>
<path fill-rule="evenodd" clip-rule="evenodd" d="M16.3242 28.0624H14.0101C13.7599 28.0624 13.5723 27.8719 13.5723 27.6179C13.5723 27.3639 13.7599 27.1733 14.0101 27.1733H16.3242C16.5744 27.1733 16.762 27.3639 16.762 27.6179C16.762 27.8719 16.5744 28.0624 16.3242 28.0624Z" fill="#327CC8"/>
<path fill-rule="evenodd" clip-rule="evenodd" d="M19.1381 31.3652C19.0131 31.3652 18.8254 31.3017 18.7629 31.1747C18.6378 30.9842 18.7003 30.7301 18.888 30.6031C19.2007 30.2856 19.4509 29.7775 19.4509 29.2695V8.12194C19.4509 7.10584 18.5752 6.21676 17.5745 6.21676H6.50422C6.37913 6.21676 6.25404 6.15325 6.19149 6.02624C6.06641 5.89923 6.06641 5.77221 6.06641 5.6452L6.56676 3.80352C7.00457 2.34288 8.50563 1.4538 9.94415 1.83483L24.2668 5.70871C24.9548 5.89923 25.5177 6.34377 25.8929 6.97883C26.2682 7.61389 26.3933 8.37597 26.2056 9.13804L20.8268 29.5235C20.5767 30.3491 20.0138 31.0477 19.3258 31.3017C19.2632 31.3652 19.2007 31.3652 19.1381 31.3652ZM7.06711 5.32767H17.5745C19.0756 5.32767 20.3265 6.59779 20.3265 8.12194V27.9359L25.33 8.88402C25.4551 8.37597 25.3926 7.86792 25.1424 7.42337C24.8922 6.97883 24.5169 6.72481 24.0166 6.59779L9.69397 2.72392C8.75581 2.46989 7.7551 3.04145 7.44238 4.05755L7.06711 5.32767Z" fill="#327CC8"/>
<path fill-rule="evenodd" clip-rule="evenodd" d="M19.2006 31.3015C19.013 31.3015 18.8254 31.111 18.7628 30.9204C18.7628 30.6664 18.9504 30.4124 19.1381 30.4124C19.7635 30.3489 20.2013 30.0314 20.514 29.5233V29.4598L30.8964 11.17C31.1466 10.789 31.2091 10.2809 31.084 9.77289C30.9589 9.26484 30.6462 8.88381 30.2709 8.62978L17.3868 1.13605C16.5112 0.628005 15.3229 0.945536 14.8225 1.77112L13.8844 3.48578C13.7593 3.73981 13.5091 3.80331 13.3215 3.6763C13.0713 3.54929 13.0087 3.29526 13.1338 3.04124L14.072 1.32657C14.8225 0.0564499 16.5112 -0.388093 17.8246 0.373981L30.7088 7.86771C31.2717 8.24874 31.772 8.8203 31.8971 9.58237C32.0847 10.2809 32.0222 11.043 31.6469 11.6781L21.2646 29.9043C20.8268 30.7299 20.1388 31.238 19.2632 31.3015H19.2006Z" fill="#327CC8"/>
</svg>
