<svg width="31" height="30" viewBox="0 0 31 30" fill="none" xmlns="http://www.w3.org/2000/svg">
<path d="M2.625 21.3216C2.625 21.6591 2.90156 21.9338 3.24141 21.9338H15.5761C15.9164 21.9338 16.1925 21.6591 16.1925 21.3216V2.54773C16.1925 2.21023 15.9159 1.93555 15.5761 1.93555H3.24141C2.90109 1.93555 2.625 2.21023 2.625 2.54773V21.3216ZM15.1083 18.3863V20.1563C15.1083 20.4151 14.8988 20.6251 14.6395 20.6251C14.3803 20.6251 14.1708 20.4151 14.1708 20.1563V18.3863C14.1708 18.1276 14.3803 17.9176 14.6395 17.9176C14.8988 17.9176 15.1083 18.1276 15.1083 18.3863ZM9.40734 8.16148C10.62 7.27695 12.3455 7.38383 13.4339 8.47274C14.017 9.05539 14.3395 9.83445 14.3419 10.666C14.3419 11.4737 14.032 12.2391 13.4695 12.8227C13.4677 12.8246 13.4653 12.827 13.4634 12.8288L9.74109 16.5512C9.64969 16.6426 9.52969 16.6885 9.40969 16.6885C9.28969 16.6885 9.16969 16.6426 9.07828 16.5512L5.35406 12.827C4.17937 11.6134 4.19578 9.66242 5.385 8.47274C6.47203 7.38477 8.19516 7.27742 9.40734 8.16148ZM3.70875 3.71305C3.70875 3.4543 3.91828 3.2443 4.1775 3.2443C4.43672 3.2443 4.64625 3.4543 4.64625 3.71305V5.48305C4.64625 5.7418 4.43672 5.9518 4.1775 5.9518C3.91828 5.9518 3.70875 5.7418 3.70875 5.48305V3.71305Z" fill="#727688"/>
<path d="M19.1564 24.1578L23.347 5.86387C23.4216 5.53152 23.2153 5.20012 22.8872 5.12559L17.13 3.80371V21.3214C17.13 22.1759 16.433 22.8711 15.5761 22.8711H10.7812L18.4191 24.6204C18.7467 24.6945 19.0795 24.4873 19.1564 24.1578Z" fill="#727688"/>
<path d="M9.40883 15.5566L12.797 12.1685C13.1884 11.7612 13.404 11.2282 13.404 10.6671C13.4026 10.0863 13.1776 9.54211 12.7707 9.13524C11.9405 8.30461 10.577 8.29243 9.73321 9.10946C9.5518 9.28524 9.26258 9.28524 9.08117 9.10946C8.66446 8.70633 8.12117 8.50524 7.57836 8.50524C7.02242 8.50524 6.46696 8.71571 6.04695 9.13524C5.21727 9.96539 5.20555 11.3262 6.02117 12.169L9.40883 15.5566Z" fill="#727688"/>
<path d="M17.8985 28.0527C18.0597 28.0218 18.198 27.9299 18.288 27.7954L28.7697 12.2179C28.8616 12.081 28.8949 11.9174 28.863 11.7566C28.8316 11.5959 28.7388 11.4571 28.6024 11.3657L23.7907 8.13086L20.0697 24.3688C20.0468 24.4668 20.0139 24.5591 19.9741 24.6477C19.9619 24.6754 19.946 24.6998 19.9324 24.7265C19.9019 24.786 19.8696 24.8437 19.8321 24.898C19.8124 24.9262 19.7908 24.952 19.7697 24.9787C19.7318 25.0265 19.6919 25.072 19.6488 25.1151C19.6239 25.1399 19.5982 25.1634 19.5714 25.1863C19.5264 25.2252 19.4791 25.2613 19.4299 25.2946C19.4008 25.3143 19.3727 25.3345 19.3427 25.3523C19.2897 25.3837 19.2344 25.4099 19.1782 25.4348C19.1486 25.4479 19.12 25.4629 19.0896 25.4741C19.0188 25.5004 18.9461 25.5196 18.8721 25.5351C18.8538 25.5388 18.8364 25.5459 18.8182 25.5491C18.7314 25.5641 18.6429 25.5726 18.5533 25.5726C18.5486 25.5726 18.5444 25.5712 18.5397 25.5712C18.431 25.5702 18.3208 25.5595 18.2107 25.5341L11.5713 24.0135L17.4358 27.958C17.5732 28.0513 17.7382 28.0851 17.8985 28.0527Z" fill="#727688"/>
</svg>
