<svg width="30" height="32" viewBox="0 0 30 32" fill="none" xmlns="http://www.w3.org/2000/svg">
<path d="M9.26593 28.9999C9.09468 28.9999 8.92344 28.9505 8.77094 28.8479C8.40094 28.6012 8.23842 28.1145 8.38092 27.6745L11.8171 16.9985H8.75339C8.05089 16.9985 7.38711 16.6359 6.97711 16.0279C6.56711 15.4212 6.45588 14.6359 6.67713 13.9266L9.95342 5.00122C10.3322 3.78389 11.3146 2.99854 12.5009 2.99854H18.0996C18.8384 2.99854 19.5209 3.39188 19.9272 4.04921C20.3334 4.70788 20.4009 5.53321 20.1084 6.25588L18.1897 10.9985H21.2484C22.1359 10.9985 22.9297 11.5639 23.2697 12.4385C23.6097 13.3132 23.4234 14.3119 22.7959 14.9812L9.93091 28.7052C9.74841 28.8999 9.50843 28.9999 9.26593 28.9999ZM12.4997 4.99988C12.0022 4.99988 11.7947 5.42788 11.7147 5.68388L8.43837 14.6105C8.41087 14.7025 8.46337 14.8105 8.49712 14.8612C8.53212 14.9132 8.61217 14.9999 8.75217 14.9999H12.3409C12.8246 14.9999 13.2809 15.2505 13.5621 15.6692C13.8434 16.0879 13.9171 16.6306 13.7609 17.1186L11.4709 24.2359L21.4697 13.5692C21.5984 13.4319 21.5671 13.2825 21.5371 13.2065C21.5071 13.1305 21.4297 13.0012 21.2484 13.0012H17.6197C17.1134 13.0012 16.6459 12.7319 16.3671 12.2812C16.0884 11.8305 16.0422 11.2639 16.2422 10.7679L18.3872 5.46655C18.4447 5.32255 18.3959 5.20655 18.3609 5.15055C18.3259 5.09455 18.2472 4.99988 18.1009 4.99988H12.4997ZM12.3409 16.9999H12.3534H12.3409Z" fill="#327CC8"/>
</svg>
