<svg width="32" height="32" viewBox="0 0 32 32" fill="none" xmlns="http://www.w3.org/2000/svg">
<path fill-rule="evenodd" clip-rule="evenodd" d="M18.2394 24.7312H18.8787V28.3662V31.9993H18.2394C17.4881 31.9993 16.875 31.3523 16.875 30.5594V29.8062C16.875 29.0133 17.4881 28.3662 18.2394 28.3662C17.4881 28.3662 16.875 27.7172 16.875 26.9244V26.1704C16.875 25.3796 17.4881 24.7312 18.2394 24.7312ZM30.6356 21.0981H29.9944V24.7312H30.6356C31.385 24.7312 32 24.0841 32 23.2913V22.538C32 21.7451 31.385 21.0981 30.6356 21.0981ZM16.875 18.9049V19.6582C16.875 20.449 17.4881 21.0981 18.2394 21.0981H18.8787V17.4637H18.2394C17.4881 17.4637 16.875 18.112 16.875 18.9049ZM19.9119 21.0981H20.7606C20.0094 21.0981 19.3962 21.7451 19.3962 22.538V23.2913C19.3962 24.0841 20.0094 24.7312 20.7606 24.7312H19.9119V28.3662V31.9993H21.4V28.3662V24.7312V21.0981V17.4637H19.9119V21.0981ZM28.1144 17.4637H27.475V21.0987V24.7318V28.3669V32H28.1144C28.8656 32 29.4788 31.3529 29.4788 30.5601V29.8068C29.4788 29.014 28.8656 28.3669 28.1144 28.3669C28.8656 28.3669 29.4788 27.7179 29.4788 26.925V26.1704C29.4788 25.3796 28.8656 24.7305 28.1144 24.7305H28.9631V21.0981H28.1144C28.8656 21.0981 29.4788 20.449 29.4788 19.6582V18.9049C29.4788 18.112 28.8656 17.4637 28.1144 17.4637ZM24.9538 21.0981V24.7312V28.3662V31.9993H26.4419V28.3662V24.7312V21.0981V17.4637H24.9538V21.0981ZM22.4331 21.0981V24.7312V28.3662V31.9993H23.9212V28.3662V24.7312V21.0981V17.4637H22.4331V21.0981ZM27.2537 5.73987C26.2775 4.86655 25.0462 4.29995 23.6925 4.18452V6.61516C24.4156 6.71212 25.0763 7.01356 25.6256 7.46011L27.2537 5.73987ZM19.9988 8.23053L18.3706 6.51029C17.5431 7.54059 17.0063 8.84 16.8969 10.2687H19.1663H19.2C19.2919 9.50752 19.575 8.80834 19.9988 8.23053ZM18.3706 15.1148L19.9756 13.421L20.0006 13.3965C19.5775 12.8168 19.2919 12.1196 19.2 11.3564H16.8969C17.0063 12.7851 17.5431 14.0845 18.3706 15.1148ZM27.1544 10.2687H29.4575C29.3475 8.84 28.8106 7.54059 27.9837 6.51029L26.3538 8.23053C26.7769 8.80834 27.0625 9.50752 27.1544 10.2687ZM26.3556 13.3965L27.9837 15.1148C28.8112 14.0845 29.3481 12.7851 29.4575 11.3564H27.1544C27.0625 12.1196 26.7787 12.8168 26.3556 13.3965ZM20.7056 7.43373L20.7288 7.46011C21.2781 7.01356 21.9387 6.71212 22.6619 6.61516V4.18452C21.3081 4.30061 20.0769 4.86721 19.1006 5.73987L20.7056 7.43373ZM23.6925 15.0099V17.4406C25.0462 17.3245 26.2775 16.7599 27.2537 15.8852L25.6256 14.167C25.0763 14.6142 24.4156 14.913 23.6925 15.0099ZM22.6612 15.0456V15.0099C21.94 14.913 21.2775 14.6135 20.7281 14.167L19.1 15.8852C20.0763 16.7605 21.3075 17.3251 22.6612 17.4406V15.0456ZM15.8425 26.1704V26.9237C15.8425 27.4586 16.0019 27.956 16.2712 28.3656C16.0019 28.7752 15.8425 29.2706 15.8425 29.8055V30.5588C15.8425 30.6729 15.8494 30.785 15.8638 30.8932H0.755C0.33875 30.8938 0 30.5363 0 30.097V0.794822C0 0.357505 0.338125 0 0.755 0H20.2469C20.6613 0 21.0019 0.356845 21.0019 0.794822V3.42004C18.0131 4.39824 15.8431 7.33875 15.8431 10.8129C15.8431 12.9988 16.7025 14.973 18.0825 16.3813C16.835 16.467 15.8431 17.5666 15.8431 18.9056V19.6588C15.8431 21.0519 16.92 22.1864 18.24 22.1864H18.3869C18.3713 22.3025 18.3638 22.4179 18.3638 22.538V23.2913C18.3638 23.4106 18.3706 23.5267 18.3869 23.6428H18.24C16.9194 23.6428 15.8425 24.778 15.8425 26.1704ZM4.55 3.6575C4.55 2.88708 3.95312 2.25716 3.22125 2.25716C2.48938 2.25716 1.89437 2.88708 1.89437 3.6575C1.89437 4.4299 2.48938 5.05982 3.22125 5.05982C3.95312 5.05982 4.55 4.42924 4.55 3.6575ZM15.0631 13.3477L11.2063 9.27732C10.8181 8.86771 10.1838 8.86771 9.79625 9.27732L5.93875 13.3477C4.90438 14.4394 4.90438 16.2256 5.93875 17.3172C6.97 18.4056 8.65312 18.4089 9.68937 17.3304C9.43812 19.2505 8.99812 20.4358 8.605 21.2775C8.5375 21.4193 8.545 21.5769 8.62438 21.7115C8.70375 21.8461 8.83313 21.9226 8.98375 21.9226H12.0169C12.1675 21.9226 12.2969 21.8461 12.3763 21.7115C12.4563 21.5769 12.4631 21.42 12.3956 21.2775C12.0006 20.4358 11.5631 19.2505 11.3112 17.3304C12.3456 18.4095 14.0306 18.4056 15.0619 17.3172C16.0975 16.2256 16.0975 14.44 15.0631 13.3477ZM21.5312 10.4837C21.4088 10.5471 21.3381 10.6704 21.3381 10.8129C21.3381 10.9547 21.4088 11.0787 21.5312 11.142C22.1069 11.4468 22.5781 11.9421 22.865 12.5496C22.925 12.6789 23.0419 12.7534 23.1769 12.7534C23.3119 12.7534 23.4281 12.6789 23.4888 12.5496C23.7756 11.9421 24.2469 11.4468 24.8231 11.142C24.9456 11.0787 25.0163 10.9554 25.0163 10.8129C25.0163 10.6711 24.9456 10.5471 24.8231 10.4837C24.2475 10.181 23.7763 9.68364 23.4888 9.07614C23.4288 8.94884 23.3119 8.87232 23.1769 8.87232C23.0419 8.87232 22.925 8.94884 22.865 9.07614C22.5781 9.68364 22.1069 10.181 21.5312 10.4837Z" fill="#327CC8"/>
</svg>
