<svg width="32" height="32" viewBox="0 0 32 32" fill="none" xmlns="http://www.w3.org/2000/svg">
<path d="M4.47948 14.9158C4.73836 14.9158 4.94823 14.6031 4.94823 14.2174C4.94823 13.8317 4.73836 13.519 4.47948 13.519C4.22061 13.519 4.01074 13.8317 4.01074 14.2174C4.01074 14.6031 4.22061 14.9158 4.47948 14.9158Z" fill="#327CC8"/>
<path d="M4.47948 17.7097C4.73836 17.7097 4.94823 17.3971 4.94823 17.0114C4.94823 16.6257 4.73836 16.313 4.47948 16.313C4.22061 16.313 4.01074 16.6257 4.01074 17.0114C4.01074 17.3971 4.22061 17.7097 4.47948 17.7097Z" fill="#327CC8"/>
<path d="M5.41698 16.3162C5.67586 16.3162 5.88573 16.0035 5.88573 15.6178C5.88573 15.2321 5.67586 14.9194 5.41698 14.9194C5.15811 14.9194 4.94824 15.2321 4.94824 15.6178C4.94824 16.0035 5.15811 16.3162 5.41698 16.3162Z" fill="#327CC8"/>
<path d="M3.54101 16.3162C3.79989 16.3162 4.00975 16.0035 4.00975 15.6178C4.00975 15.2321 3.79989 14.9194 3.54101 14.9194C3.28213 14.9194 3.07227 15.2321 3.07227 15.6178C3.07227 16.0035 3.28213 16.3162 3.54101 16.3162Z" fill="#327CC8"/>
<path d="M30.006 0H18.0259C16.9266 0 16.0322 1.33251 16.0322 2.97035V12.6087C16.0322 13.7195 16.4438 14.6892 17.0515 15.1986C17.0405 15.3405 17.0343 15.4836 17.0343 15.6271C17.0343 17.6585 18.1436 19.3112 19.507 19.3112C19.7162 19.3112 19.9241 19.2721 20.1251 19.195C20.3758 19.0988 20.5267 18.718 20.4621 18.3445C20.3975 17.9709 20.1418 17.7466 19.8913 17.8423C19.7666 17.8902 19.6374 17.9144 19.507 17.9144C18.6604 17.9144 17.9718 16.8882 17.9718 15.627C17.9718 15.6102 17.9726 15.5936 17.9728 15.5769C17.9905 15.5775 18.0081 15.5788 18.0259 15.5788H18.1369C18.1836 15.9319 18.3924 16.1983 18.6431 16.1983H19.1592V16.9673C19.1592 17.392 19.3903 17.7363 19.6754 17.7363C19.9604 17.7363 20.1915 17.3919 20.1915 16.9673V16.1983H20.7076C20.9583 16.1983 21.1671 15.9319 21.2138 15.5788H30.006C31.1053 15.5788 31.9997 14.2463 31.9997 12.6085V2.97045C31.9997 1.33251 31.1053 0 30.006 0ZM31.0622 12.6088C31.0622 13.4764 30.5884 14.1823 30.006 14.1823H18.0259C17.4435 14.1823 16.9697 13.4764 16.9697 12.6088V2.97045C16.9697 2.10278 17.4435 1.39685 18.0259 1.39685H30.006C30.5884 1.39685 31.0622 2.10278 31.0622 2.97045V12.6088Z" fill="#327CC8"/>
<path d="M20.2811 9.80112C20.0345 9.80317 19.7245 9.80503 19.4746 9.8055V5.06703C19.4746 4.68134 19.2647 4.36865 19.0059 4.36865C18.747 4.36865 18.5371 4.68134 18.5371 5.06703V10.4995C18.5371 10.8396 18.7015 11.1303 18.9265 11.1878C18.9605 11.1966 18.9854 11.2029 19.387 11.2029C19.5825 11.2029 19.8675 11.2014 20.2863 11.1979C20.5452 11.1957 20.7539 10.8813 20.7524 10.4956C20.751 10.1098 20.5423 9.79814 20.2811 9.80112Z" fill="#327CC8"/>
<path d="M21.8418 4.36865C21.5829 4.36865 21.373 4.68134 21.373 5.06703V10.5041C21.373 10.8898 21.5829 11.2024 21.8418 11.2024C22.1007 11.2024 22.3105 10.8898 22.3105 10.5041V5.06703C22.3105 4.68134 22.1007 4.36865 21.8418 4.36865Z" fill="#327CC8"/>
<path d="M29.0265 5.7908C29.2854 5.7908 29.4953 5.47812 29.4953 5.09242C29.4953 4.70673 29.2854 4.39404 29.0265 4.39404H27.5029C27.2441 4.39404 27.0342 4.70673 27.0342 5.09242V10.4798C27.0342 10.8655 27.2441 11.1782 27.5029 11.1782H29.0265C29.2854 11.1782 29.4953 10.8655 29.4953 10.4798C29.4953 10.0941 29.2854 9.78145 29.0265 9.78145H27.9717V8.4845H28.9142C29.1731 8.4845 29.383 8.17182 29.383 7.78612C29.383 7.40043 29.1731 7.08774 28.9142 7.08774H27.9717V5.7908H29.0265Z" fill="#327CC8"/>
<path d="M26.0933 4.4145C25.8475 4.29279 25.5823 4.49104 25.5006 4.85708L24.668 8.59156L23.7935 4.83818C23.7087 4.47372 23.4415 4.28106 23.197 4.40742C22.9524 4.53387 22.823 4.93186 22.9079 5.29623L24.1567 10.6562C24.2347 10.9837 24.443 11.2027 24.676 11.2027H24.6796C24.914 11.2004 25.1222 10.9767 25.1988 10.6413L26.3903 5.29744C26.4719 4.93148 26.3389 4.5362 26.0933 4.4145Z" fill="#327CC8"/>
<path d="M22.6111 17.6656C22.5368 17.2962 22.2755 17.0863 22.0275 17.1974C21.7795 17.3082 21.6388 17.6976 21.7132 18.0671L22.4319 21.6364C22.8394 23.6601 23.046 25.7575 23.046 27.8704C23.046 29.3774 22.2231 30.6034 21.2109 30.6034C20.3314 30.6034 19.5234 29.8888 19.1022 28.7384L17.1082 23.292C17.336 22.8129 17.4705 22.2287 17.4705 21.5981C17.4705 19.9782 16.586 18.6604 15.4988 18.6604C14.4116 18.6604 13.5271 19.9782 13.5271 21.5981C13.5271 21.8734 13.5532 22.1396 13.601 22.3925H10.3827C10.4305 22.1396 10.4566 21.8734 10.4566 21.5981C10.4566 19.9782 9.57209 18.6604 8.48486 18.6604C7.39763 18.6604 6.51308 19.9782 6.51308 21.5981C6.51308 22.2286 6.64752 22.8128 6.87539 23.2919L4.88142 28.7384C4.46024 29.8888 3.65225 30.6034 2.77196 30.6034C1.76047 30.6034 0.93761 29.3773 0.93761 27.8703C0.93761 25.7573 1.14423 23.66 1.55172 21.6363L2.37277 17.5588C2.80889 18.6091 3.58882 19.3105 4.47693 19.3105C5.84041 19.3105 6.94964 17.6578 6.94964 15.6264C6.94964 13.5949 5.84034 11.9423 4.47693 11.9423C4.10456 11.9423 3.75138 12.0663 3.43432 12.2869L3.60257 11.4514C3.73488 10.7946 4.133 10.3533 4.59324 10.3533H6.48096C6.77501 10.3533 7.0142 10.7098 7.0142 11.1478V11.8942C7.0142 12.2799 7.22407 12.5926 7.48294 12.5926H9.01823V14.8799C9.01823 16.4998 9.90271 17.8177 10.9899 17.8177H12.9939C14.0811 17.8177 14.9656 16.4998 14.9656 14.8799V11.8942C14.9656 11.5085 14.7558 11.1958 14.4969 11.1958H7.9515V11.1478C7.9515 9.93949 7.29169 8.95654 6.48077 8.95654H4.59305C3.71556 8.95654 2.95664 9.79786 2.70446 11.0501L0.653614 21.235C0.219934 23.3889 0 25.6214 0 27.8703C0 30.1475 1.24348 32 2.77258 32C3.99537 32 5.11873 31.0065 5.70428 29.4071L7.602 24.2235C7.86781 24.4227 8.16755 24.5356 8.4848 24.5356C8.98798 24.5356 9.44747 24.2529 9.79622 23.7891H14.1874C14.5361 24.2529 14.9956 24.5356 15.4988 24.5356C15.8161 24.5356 16.1157 24.4227 16.3815 24.2235L18.2793 29.4071C18.8648 31.0064 19.9882 31.9999 21.2117 31.9999C22.7401 31.9999 23.9835 30.1473 23.9835 27.8701C23.9835 25.6212 23.7636 23.3888 23.3299 21.2348L22.6111 17.6656ZM9.95553 12.5926H14.028V14.8799C14.028 15.7296 13.5641 16.4209 12.9938 16.4209H10.9898C10.4195 16.4209 9.95559 15.7296 9.95559 14.8799V12.5926H9.95553ZM4.47674 13.339C5.32329 13.339 6.01197 14.3652 6.01197 15.6264C6.01197 16.8875 5.32323 17.9138 4.47674 17.9138C3.63025 17.9138 2.94151 16.8876 2.94151 15.6264C2.94151 14.3651 3.63019 13.339 4.47674 13.339ZM8.48474 23.1389C7.91443 23.1389 7.45044 22.4477 7.45044 21.598C7.45044 20.7483 7.91443 20.0571 8.48474 20.0571C9.05504 20.0571 9.51897 20.7483 9.51897 21.598C9.51897 22.4477 9.05504 23.1389 8.48474 23.1389ZM15.4987 23.1389C14.9284 23.1389 14.4645 22.4477 14.4645 21.598C14.4645 20.7483 14.9284 20.0571 15.4987 20.0571C16.0691 20.0571 16.533 20.7483 16.533 21.598C16.533 22.4477 16.0691 23.1389 15.4987 23.1389Z" fill="#327CC8"/>
</svg>
