<svg width="120" height="101" viewBox="0 0 120 101" fill="none" xmlns="http://www.w3.org/2000/svg">
<path d="M66.509 100C92.9991 100 114.475 78.5242 114.475 51.9395C114.475 25.3548 92.9045 3.87891 66.509 3.87891C40.0189 3.87891 18.543 25.3548 18.543 51.9395C18.543 78.5242 40.0189 100 66.509 100Z" fill="#F1F3F9" stroke="#D6DCE8" stroke-width="2" stroke-miterlimit="10"/>
<path d="M111.353 20.4356C113.495 20.4356 115.231 18.6989 115.231 16.5566C115.231 14.4144 113.495 12.6777 111.353 12.6777C109.21 12.6777 107.474 14.4144 107.474 16.5566C107.474 18.6989 109.21 20.4356 111.353 20.4356Z" fill="#F1F3F9"/>
<path d="M117.03 5.29802C118.493 5.29802 119.679 4.11202 119.679 2.64901C119.679 1.186 118.493 0 117.03 0C115.567 0 114.381 1.186 114.381 2.64901C114.381 4.11202 115.567 5.29802 117.03 5.29802Z" fill="#F1F3F9"/>
<path d="M21.0973 20.341C22.5603 20.341 23.7463 19.155 23.7463 17.692C23.7463 16.229 22.5603 15.043 21.0973 15.043C19.6342 15.043 18.4482 16.229 18.4482 17.692C18.4482 19.155 19.6342 20.341 21.0973 20.341Z" fill="#F1F3F9"/>
<path d="M4.91959 71.4285C7.63661 71.4285 9.83918 69.226 9.83918 66.509C9.83918 63.7919 7.63661 61.5894 4.91959 61.5894C2.20258 61.5894 0 63.7919 0 66.509C0 69.226 2.20258 71.4285 4.91959 71.4285Z" fill="#F1F3F9"/>
<path d="M101.987 27.909L102.744 88.8362C102.744 90.9176 101.041 92.5259 98.9595 92.5259H39.546C37.4647 92.5259 35.7617 90.823 35.7617 88.8362V10.5012C35.7617 8.41985 37.4647 6.81152 39.546 6.81152H82.5924L101.987 27.909Z" fill="white" stroke="#D6DCE8" stroke-width="2" stroke-miterlimit="10"/>
<path d="M64.712 80.3216H62.536C62.063 80.3216 61.6846 79.8486 61.6846 79.2809C61.6846 78.7133 62.063 78.2402 62.536 78.2402H64.712C65.1851 78.2402 65.5635 78.7133 65.5635 79.2809C65.5635 79.9432 65.1851 80.3216 64.712 80.3216Z" fill="#D6DCE8"/>
<path d="M58.0894 80.3216H45.412C44.939 80.3216 44.5605 79.8486 44.5605 79.2809C44.5605 78.7133 44.939 78.2402 45.412 78.2402H58.0894C58.5625 78.2402 58.9409 78.7133 58.9409 79.2809C58.9409 79.9432 58.5625 80.3216 58.0894 80.3216Z" fill="#D6DCE8"/>
<path d="M74.2673 19.5838H45.7904C45.1282 19.5838 44.5605 19.0162 44.5605 18.3539C44.5605 17.6917 45.1282 17.124 45.7904 17.124H74.2673C74.9296 17.124 75.4972 17.6917 75.4972 18.3539C75.4972 19.0162 74.9296 19.5838 74.2673 19.5838Z" fill="#D6DCE8"/>
<path d="M56.7649 26.3953H45.7904C45.1282 26.3953 44.5605 25.8277 44.5605 25.1654C44.5605 24.5032 45.1282 23.9355 45.7904 23.9355H56.6703C57.3326 23.9355 57.9002 24.5032 57.9002 25.1654C57.9002 25.8277 57.3326 26.3953 56.7649 26.3953Z" fill="#D6DCE8"/>
<path d="M83.0742 6.81152V23.6517C83.0742 26.0168 85.1556 27.909 87.5208 27.909H102.469" fill="#D6DCE8"/>
<path d="M106.528 93.9454C105.582 93.9454 104.636 93.567 103.879 92.7155L88.0792 76.9161L87.5116 77.2945C82.4028 81.0788 76.4425 83.0656 70.3876 83.0656C63.1029 83.0656 55.8181 80.1327 50.4255 75.0239C44.749 69.6313 41.627 62.3465 41.627 54.3995C41.627 38.6 54.4936 25.7334 70.293 25.7334C81.0783 25.7334 90.539 31.4098 95.6478 41.0598C100.662 50.6152 99.9998 61.7789 93.8503 70.7666L93.4719 71.3342L109.366 87.2283C110.974 88.8366 110.596 90.4449 110.312 91.2964C109.555 92.8101 108.041 93.9454 106.528 93.9454ZM70.293 33.5858C58.7509 33.5858 49.4794 42.952 49.4794 54.3995C49.4794 67.4553 60.17 75.3077 70.5769 75.3077C76.9156 75.3077 82.6866 72.4695 86.7547 67.3607C91.7689 61.1166 92.6204 52.6965 89.1199 45.4118C85.5248 38.127 78.3347 33.5858 70.293 33.5858Z" fill="#F1F3F9" stroke="#D6DCE8" stroke-width="2" stroke-miterlimit="10"/>
<path d="M61.3057 57.8053C62.5356 57.8053 63.5763 56.7646 63.5763 55.5347C63.5763 54.3048 62.5356 53.2642 61.3057 53.2642C60.0758 53.2642 59.0352 54.3048 59.0352 55.5347C59.0352 56.7646 60.0758 57.8053 61.3057 57.8053Z" fill="#AAB2C5"/>
<path d="M78.7139 57.8053C79.9438 57.8053 80.9845 56.7646 80.9845 55.5347C80.9845 54.3048 79.9438 53.2642 78.7139 53.2642C77.484 53.2642 76.4434 54.3048 76.4434 55.5347C76.4434 56.8592 77.484 57.8053 78.7139 57.8053Z" fill="#AAB2C5"/>
<path d="M61.2174 48.0228L56.2227 50.7197L56.8969 51.9684L61.8916 49.2715L61.2174 48.0228Z" fill="#AAB2C5"/>
<path d="M78.4055 47.987L77.7314 49.2358L82.7267 51.9322L83.4008 50.6833L78.4055 47.987Z" fill="#AAB2C5"/>
<path d="M70.0103 63.1034C71.4733 63.1034 72.6594 62.2139 72.6594 61.1166C72.6594 60.0194 71.4733 59.1299 70.0103 59.1299C68.5473 59.1299 67.3613 60.0194 67.3613 61.1166C67.3613 62.2139 68.5473 63.1034 70.0103 63.1034Z" fill="#AAB2C5"/>
</svg>
