<svg width="18" height="18" viewBox="0 0 18 18" fill="none" xmlns="http://www.w3.org/2000/svg">
<path d="M15 12.0001C13.933 12.0001 13.001 12.5621 12.47 13.4011L5.7959 10.0641C5.9229 9.73206 6 9.37605 6 8.99905C6 8.62305 5.9229 8.26605 5.7959 7.93405L12.47 4.59705C13.002 5.43705 13.933 5.99805 15 5.99805C16.657 5.99805 18 4.65505 18 2.99805C18 1.34105 16.657 -0.00195312 15 -0.00195312C13.343 -0.00195312 12 1.34105 12 2.99805C12 3.04905 12.0129 3.09706 12.0149 3.14706L4.90796 6.70007C4.38796 6.26807 3.729 5.99707 3 5.99707C1.343 5.99707 0 7.34007 0 8.99707C0 10.6541 1.343 11.9971 3 11.9971C3.729 11.9971 4.38796 11.7271 4.90796 11.2941L12.0149 14.847C12.0129 14.897 12 14.9451 12 14.9961C12 16.6531 13.343 17.9961 15 17.9961C16.657 17.9961 18 16.6531 18 14.9961C18 13.3391 16.657 12.0001 15 12.0001Z" fill="#327CC8"/>
</svg>
