<svg width="124" height="18" viewBox="0 0 124 18" fill="none" xmlns="http://www.w3.org/2000/svg">
<path d="M28.2368 6.457C27.2767 5.64762 26.6574 5.10217 26.3786 4.83824C26.2238 4.66228 26.038 4.43355 25.8367 4.16962C25.6354 3.88809 25.527 3.51859 25.527 3.06111C25.527 2.46287 25.6818 1.9878 25.9915 1.6359C26.3012 1.28399 26.7193 1.10804 27.2613 1.10804C28.4071 1.10804 29.0885 1.88223 29.2898 3.44821H29.7078V1.10804C29.7078 1.00247 29.6924 0.932086 29.6459 0.896895C29.4291 0.615371 28.6859 0.474609 27.4161 0.474609C26.4715 0.474609 25.6818 0.738538 25.0315 1.23121C24.2882 1.81185 23.9166 2.62123 23.9166 3.64176C23.9166 4.25759 24.0559 4.76786 24.3501 5.20774C24.6289 5.63002 25.1553 6.15788 25.9141 6.77372C27.1064 7.72386 27.8961 8.44527 28.2678 8.97312C28.6549 9.48339 28.8407 10.064 28.8407 10.7151C28.8407 11.4013 28.6394 11.9643 28.2368 12.4218C27.8342 12.8793 27.3232 13.0904 26.6883 13.0904C25.8057 13.0904 25.1244 12.6857 24.6289 11.8763C24.4276 11.542 24.2882 10.9966 24.1643 10.2048H23.7617V12.7737C23.7617 12.9673 23.8237 13.0904 23.9475 13.1608C24.1643 13.284 24.5514 13.4071 25.0934 13.5127C25.6509 13.6183 26.1464 13.6887 26.5799 13.6887C27.7568 13.6887 28.7013 13.3719 29.4291 12.7033C30.1569 12.0523 30.513 11.1901 30.513 10.1168C30.513 9.4482 30.3427 8.84996 30.033 8.3397C29.7078 7.81184 29.1039 7.2136 28.2368 6.457Z" fill="#BD9A61"/>
<path d="M36.5986 4.11768C35.4682 4.11768 34.5392 4.61034 33.8424 5.61327V4.11768C33.1455 4.55756 32.2319 4.82149 31.117 4.87427V5.33175H31.4887C31.8293 5.33175 32.0616 5.38454 32.201 5.49011C32.3249 5.59568 32.4023 5.84201 32.4023 6.21151V15.6954C32.4023 16.4872 32.3403 16.9622 32.2165 17.1206C32.0926 17.2789 31.7364 17.4197 31.1016 17.5077V17.9827H35.4837V17.5077C34.6785 17.4197 34.1985 17.2965 34.0591 17.1382C33.9198 16.9798 33.8424 16.4872 33.8424 15.6778V13.2144C34.4617 13.496 35.0656 13.6367 35.6541 13.6367C36.8774 13.6367 37.8839 13.1441 38.6891 12.1587C39.4943 11.1734 39.8969 9.90652 39.8969 8.39333C39.8969 7.07368 39.6027 6.03556 38.9988 5.26137C38.3949 4.50477 37.6051 4.11768 36.5986 4.11768ZM37.6051 11.9476C37.1406 12.6866 36.4902 13.0561 35.6541 13.0561C35.0192 13.0561 34.4153 12.7745 33.8424 12.1939V8.99157C33.8424 8.02383 33.8888 7.30242 33.9662 6.86254C34.214 5.61327 34.8489 4.97984 35.8709 4.97984C36.6141 4.97984 37.2025 5.31415 37.6361 5.98277C38.0697 6.65139 38.2865 7.58394 38.2865 8.76283C38.3019 10.1529 38.0697 11.2086 37.6051 11.9476Z" fill="#BD9A61"/>
<path d="M47.2367 12.4402C47.0199 12.4402 46.8805 12.3347 46.7876 12.1411C46.7102 11.93 46.6638 11.5781 46.6638 11.0678V7.0209C46.6638 6.00037 46.447 5.26137 46.0289 4.80389C45.5953 4.34641 44.914 4.11768 43.9694 4.11768C43.2107 4.11768 42.5293 4.27603 41.9254 4.59275C41.6932 4.69832 41.5538 4.87427 41.5074 5.12061L41.2596 6.14113C41.2441 6.22911 41.2751 6.28189 41.3835 6.31708L41.879 6.45785C41.9254 6.47544 41.9719 6.47544 42.0029 6.47544C42.0803 6.47544 42.2042 6.33468 42.3435 6.03556C42.7616 5.1558 43.2571 4.69832 43.8455 4.69832C44.7437 4.69832 45.2082 5.57808 45.2237 7.35521L43.4739 8.1294C42.7616 8.42852 42.2506 8.69245 41.9254 8.90359C41.1202 9.44904 40.7021 10.2056 40.7021 11.1734C40.7021 11.9124 40.888 12.493 41.2751 12.9505C41.6622 13.408 42.1577 13.6367 42.7771 13.6367C43.1178 13.6367 43.5049 13.4608 43.9384 13.1265L45.1772 12.1939C45.2082 12.7042 45.3321 13.1792 45.5643 13.6367L47.8406 12.8097L47.7322 12.2995C47.5464 12.405 47.3761 12.4402 47.2367 12.4402ZM45.2392 9.48423C45.2392 11.5077 44.6507 12.5106 43.4894 12.5106C43.0868 12.5106 42.7771 12.3699 42.5293 12.0883C42.2971 11.8068 42.1732 11.4197 42.1732 10.9798C42.1732 9.9769 42.7152 9.2203 43.8146 8.69245C44.1707 8.51649 44.6507 8.32295 45.2392 8.07661V9.48423Z" fill="#BD9A61"/>
<path d="M56.5428 12.4399C56.1557 12.4399 55.9699 11.9824 55.9699 11.0674V0C55.1028 0.369501 54.1892 0.545453 53.2446 0.545453V1.03812H53.6782C53.9879 1.03812 54.2046 1.09091 54.3285 1.19648C54.4524 1.30205 54.5143 1.60117 54.5143 2.07624V4.39882C53.9724 4.20527 53.384 4.0997 52.7646 4.0997C51.4793 4.0997 50.4419 4.53958 49.6367 5.43694C48.8315 6.3343 48.4443 7.49559 48.4443 8.9208C48.4443 10.258 48.785 11.3665 49.4818 12.2815C50.1786 13.1789 51.0148 13.6363 52.0213 13.6363C52.4084 13.6363 52.873 13.4428 53.4304 13.0733L54.4989 12.3519V12.475C54.5298 12.9325 54.6382 13.3196 54.855 13.6363L57.1622 12.8094L57.0538 12.2991C56.837 12.4047 56.6667 12.4399 56.5428 12.4399ZM54.5298 10.3108C54.5298 11.0322 54.4369 11.5249 54.2511 11.7536C54.0653 11.9824 53.8175 12.1935 53.5233 12.3695C53.1981 12.5454 52.8884 12.651 52.5942 12.651C51.7735 12.651 51.1232 12.1583 50.6587 11.173C50.2715 10.3636 50.0702 9.44866 50.0702 8.42813C50.0702 7.4428 50.2715 6.59823 50.6741 5.89441C51.1387 5.10263 51.789 4.71553 52.6097 4.71553C53.4459 4.71553 54.0808 5.08503 54.5298 5.82403V10.3108Z" fill="#BD9A61"/>
<path d="M64.3011 6.44025C63.8831 4.87427 62.9385 4.11768 61.4829 4.11768C60.3835 4.11768 59.5009 4.53996 58.835 5.38454C58.1227 6.29949 57.7666 7.40799 57.7666 8.72764C57.7666 10.0825 58.1227 11.279 58.8505 12.2819C59.5319 13.2144 60.5693 13.6719 61.9784 13.6719H62.3965L64.487 12.5458L64.2392 12.0004C63.5114 12.4226 62.892 12.6162 62.381 12.6162C61.8081 12.6162 61.3126 12.4754 60.879 12.1939C59.857 11.5429 59.3306 10.276 59.3151 8.41092H64.487C64.487 7.58395 64.425 6.93292 64.3011 6.44025ZM62.0713 7.7423H59.3151C59.3615 7.19685 59.4235 6.77456 59.4854 6.49304C59.7951 5.31415 60.4145 4.71592 61.359 4.71592C61.8546 4.71592 62.2726 4.90946 62.5978 5.27896C62.923 5.64846 63.0933 6.12354 63.0933 6.68659C63.0933 7.3904 62.7527 7.7423 62.0713 7.7423Z" fill="#BD9A61"/>
<path d="M73.2508 4.34641L73.065 4.11768C72.3837 4.29363 71.6095 4.3816 70.7733 4.3816C70.6339 4.3816 70.4946 4.38161 70.3552 4.36401C69.9216 4.18806 69.4416 4.11768 68.9461 4.11768C68.0015 4.11768 67.2118 4.3992 66.6234 4.96225C66.0195 5.5253 65.7253 6.2643 65.7253 7.19685C65.7253 8.51649 66.3292 9.48423 67.5525 10.1001L66.0195 11.5429C66.0195 11.5605 66.0195 11.6133 66.0195 11.6836C66.004 11.754 66.004 11.8068 66.004 11.842C66.004 12.3875 66.3447 12.757 67.0415 12.9329L65.3536 13.971C65.2298 14.059 65.1523 14.2701 65.1523 14.6221C65.1523 15.3611 65.3227 15.9945 65.6633 16.5047C65.9576 16.9446 66.4066 17.3141 66.9795 17.5957C67.568 17.8772 68.1873 18.0003 68.8687 18.0003C69.9061 18.0003 70.7578 17.7188 71.4236 17.1734C72.2753 16.4696 72.6934 15.6074 72.6934 14.5869C72.6934 13.5663 72.2753 12.8449 71.4236 12.405C71.0365 12.2115 70.4481 12.0531 69.6429 11.9124C68.8067 11.7716 68.2338 11.6485 67.9241 11.5077C67.7073 11.4197 67.5989 11.2614 67.5989 11.0678C67.5989 10.8567 67.7383 10.6103 68.048 10.3464C68.3422 10.3464 68.559 10.3464 68.6829 10.3464C69.581 10.3464 70.3242 10.0473 70.9281 9.44904C71.532 8.8508 71.8262 8.1118 71.8262 7.23204C71.8262 6.40506 71.594 5.70125 71.1294 5.10301H72.7863L73.2508 4.34641ZM67.7693 13.0737L69.3487 13.3904C69.7203 13.4608 70.0455 13.5487 70.3242 13.6367C71.0675 13.9006 71.4546 14.4285 71.4546 15.2555C71.4546 15.8713 71.2223 16.3992 70.7733 16.8039C70.3088 17.2086 69.7203 17.4021 69.008 17.4021C68.2803 17.4021 67.6764 17.191 67.1963 16.7511C66.7163 16.3112 66.484 15.7657 66.484 15.0971C66.484 14.6748 66.5769 14.3405 66.7628 14.059C66.9176 13.7775 67.2583 13.4432 67.7693 13.0737ZM68.9926 9.83614C68.497 9.83614 68.0944 9.55462 67.7847 9.00916C67.475 8.46371 67.3047 7.7599 67.3047 6.91532C67.3047 6.17632 67.4441 5.61327 67.7228 5.20858C68.0015 4.7863 68.3886 4.59275 68.8842 4.59275C69.3487 4.59275 69.7048 4.83908 69.9681 5.33175C70.2313 5.82442 70.3707 6.52823 70.3707 7.40799C70.3552 9.02676 69.8907 9.83614 68.9926 9.83614Z" fill="#BD9A61"/>
<path d="M79.7698 12.4402C79.553 12.4402 79.4136 12.3347 79.3207 12.1411C79.2433 11.93 79.1968 11.5781 79.1968 11.0678V7.0209C79.1968 6.00037 78.98 5.26137 78.562 4.80389C78.1284 4.34641 77.4471 4.11768 76.5025 4.11768C75.7437 4.11768 75.0624 4.27603 74.443 4.59275C74.2262 4.69832 74.0869 4.87427 74.0249 5.12061L73.7927 6.14113C73.7772 6.22911 73.8081 6.28189 73.9165 6.31708L74.4121 6.45785C74.4585 6.47544 74.4895 6.47544 74.5359 6.47544C74.6288 6.47544 74.7372 6.33468 74.8766 6.03556C75.2947 5.1558 75.7902 4.69832 76.3631 4.69832C77.2767 4.69832 77.7258 5.57808 77.7413 7.35521L75.9915 8.1294C75.2792 8.42852 74.7682 8.69245 74.443 8.90359C73.6378 9.44904 73.2197 10.2056 73.2197 11.1734C73.2197 11.9124 73.4055 12.493 73.7927 12.9505C74.1798 13.408 74.6753 13.6367 75.2947 13.6367C75.6353 13.6367 76.0379 13.4608 76.4715 13.1265L77.7103 12.1939C77.7413 12.7042 77.8651 13.1792 78.0974 13.6367L80.3737 12.8097L80.2807 12.2995C80.0794 12.405 79.8936 12.4402 79.7698 12.4402ZM77.7567 9.48423C77.7567 11.5077 77.1683 12.5106 76.007 12.5106C75.6199 12.5106 75.2947 12.3699 75.0469 12.0883C74.8147 11.8068 74.6908 11.4197 74.6908 10.9798C74.6908 9.9769 75.2327 9.2203 76.3322 8.69245C76.7038 8.51649 77.1683 8.32295 77.7567 8.07661V9.48423Z" fill="#BD9A61"/>
<path d="M93.7844 11.1734V7.35521C93.7844 6.70418 93.7534 6.22911 93.6914 5.8772C93.4592 4.69832 92.7314 4.11768 91.5081 4.11768C90.4242 4.11768 89.4486 4.64553 88.6125 5.71885C88.3802 5.12061 88.1015 4.71592 87.8073 4.46958C87.4976 4.22325 87.0795 4.11768 86.522 4.11768C85.3452 4.11768 84.3697 4.64553 83.5954 5.71885V4.11768C82.8831 4.57515 81.9695 4.83908 80.8701 4.89187V5.34934H81.2418C81.5979 5.34934 81.8302 5.40213 81.9695 5.5253C82.0934 5.63087 82.1553 5.8772 82.1553 6.2467V11.1734C82.1553 11.9828 82.0934 12.4754 81.985 12.6338C81.8766 12.7921 81.505 12.9153 80.8701 12.9857V13.4608H84.8961V12.9857C84.2613 12.9153 83.8742 12.7921 83.7658 12.6338C83.6574 12.4754 83.5954 12.0004 83.5954 11.1734V9.04435C83.5954 7.44318 83.7967 6.36987 84.1838 5.85961C84.54 5.36694 85.0355 5.12061 85.7013 5.12061C86.2898 5.12061 86.6924 5.33175 86.9246 5.71885C87.1414 6.12354 87.2498 6.82735 87.2498 7.83028V11.1558C87.2498 11.9652 87.2034 12.4578 87.0795 12.6162C86.9711 12.7746 86.5995 12.8977 85.9646 12.9681V13.4432H89.9906V12.9681C89.3557 12.8977 88.9686 12.7746 88.8602 12.6162C88.7518 12.4578 88.6899 11.9828 88.6899 11.1558V9.04435C88.6899 8.25256 88.7054 7.70711 88.7363 7.40799C88.8138 6.77456 88.9841 6.2643 89.2319 5.8948C89.588 5.38454 90.099 5.12061 90.7648 5.12061C91.3378 5.12061 91.7559 5.33175 91.9881 5.73644C92.2204 6.14113 92.3443 6.84494 92.3443 7.84787V11.1734C92.3443 11.9828 92.2823 12.4754 92.1739 12.6338C92.0656 12.7921 91.6939 12.9153 91.059 12.9857V13.4608H95.0696V12.9857C94.4347 12.9153 94.0476 12.8097 93.9392 12.6514C93.8463 12.4754 93.7844 12.0004 93.7844 11.1734Z" fill="#BD9A61"/>
<path d="M97.4222 2.90344C97.6855 2.90344 97.9178 2.79787 98.0881 2.60432C98.2739 2.41077 98.3668 2.14685 98.3668 1.84773C98.3668 1.54861 98.2739 1.30227 98.0881 1.09113C97.9023 0.879986 97.6855 0.774414 97.4377 0.774414C97.1745 0.774414 96.9577 0.879986 96.7719 1.09113C96.5861 1.30227 96.4932 1.54861 96.4932 1.81254C96.4932 2.11165 96.5861 2.37558 96.7719 2.58673C96.9422 2.81547 97.159 2.90344 97.4222 2.90344Z" fill="#BD9A61"/>
<path d="M98.2898 11.0679V4.02979C97.5775 4.48726 96.6639 4.75119 95.5645 4.80398V5.26145H95.9361C96.2922 5.26145 96.5245 5.31424 96.6639 5.41981C96.7877 5.52538 96.8497 5.77172 96.8497 6.14122V11.0679C96.8497 11.8773 96.7877 12.3699 96.6794 12.5283C96.571 12.6867 96.1993 12.8098 95.5645 12.8802V13.3553H99.575V12.8802C98.9401 12.8098 98.553 12.6867 98.4601 12.5107C98.3362 12.3523 98.2898 11.8597 98.2898 11.0679Z" fill="#BD9A61"/>
<path d="M108.448 11.0679V7.23213C108.448 6.44034 108.402 5.89488 108.309 5.57817C107.984 4.54005 107.24 4.02979 106.079 4.02979C104.809 4.02979 103.741 4.55764 102.874 5.61336V4.02979C102.177 4.46967 101.263 4.7336 100.148 4.78638V5.24386H100.52C100.861 5.24386 101.093 5.29665 101.232 5.40222C101.372 5.50779 101.434 5.75412 101.434 6.12362V11.0679C101.434 11.8421 101.372 12.3172 101.263 12.4931C101.139 12.6515 100.783 12.7922 100.164 12.8802V13.3553H104.19V12.8802C103.555 12.7746 103.168 12.6515 103.06 12.4931C102.951 12.3348 102.889 11.8597 102.889 11.0679V8.83329C102.889 8.02391 102.936 7.39048 103.013 6.9506C103.261 5.64855 104.004 4.99753 105.212 4.99753C105.893 4.99753 106.358 5.20867 106.621 5.59576C106.884 6.00046 107.024 6.70427 107.024 7.6896V11.0679C107.024 11.8421 106.977 12.3172 106.9 12.4579C106.776 12.6691 106.404 12.8098 105.738 12.8802V13.3553H109.749V12.8802C109.099 12.8098 108.711 12.6867 108.603 12.4931C108.495 12.3699 108.448 11.8949 108.448 11.0679Z" fill="#BD9A61"/>
<path d="M118.373 4.25852L118.187 4.02979C117.506 4.20574 116.747 4.29371 115.896 4.29371C115.756 4.29371 115.601 4.29371 115.477 4.27612C115.028 4.10017 114.564 4.02979 114.068 4.02979C113.124 4.02979 112.35 4.31131 111.746 4.87436C111.142 5.43741 110.847 6.17641 110.847 7.10896C110.847 8.4286 111.451 9.39634 112.675 10.0122L111.142 11.455C111.142 11.4726 111.142 11.5254 111.142 11.5958C111.126 11.6661 111.126 11.7189 111.126 11.7541C111.126 12.2996 111.482 12.6691 112.164 12.845L110.476 13.8831C110.352 13.9711 110.29 14.1823 110.29 14.5342C110.29 15.2732 110.46 15.9066 110.801 16.4169C111.095 16.8567 111.544 17.2262 112.117 17.5078C112.706 17.7893 113.325 17.9125 114.006 17.9125C115.044 17.9125 115.895 17.6309 116.561 17.0855C117.398 16.3817 117.831 15.5195 117.831 14.499C117.831 13.4784 117.413 12.757 116.561 12.3172C116.174 12.1236 115.586 11.9653 114.781 11.8245C113.944 11.6837 113.371 11.5606 113.062 11.4198C112.845 11.3318 112.737 11.1735 112.737 10.9799C112.737 10.7688 112.891 10.5224 113.186 10.2585C113.48 10.2585 113.697 10.2585 113.805 10.2585C114.703 10.2585 115.462 9.95939 116.05 9.36115C116.654 8.76291 116.948 8.02391 116.948 7.14415C116.948 6.31717 116.716 5.61336 116.252 5.01512H117.909L118.373 4.25852ZM112.891 12.9858L114.471 13.3025C114.843 13.3729 115.168 13.4609 115.446 13.5488C116.19 13.8128 116.577 14.3406 116.577 15.1676C116.577 15.7834 116.345 16.3113 115.88 16.716C115.415 17.1207 114.827 17.3142 114.115 17.3142C113.387 17.3142 112.783 17.1031 112.319 16.6632C111.839 16.2233 111.606 15.6779 111.606 15.0092C111.606 14.5869 111.699 14.2526 111.885 13.9711C112.04 13.6896 112.38 13.3553 112.891 12.9858ZM114.115 9.74825C113.619 9.74825 113.217 9.46672 112.907 8.92127C112.597 8.37582 112.427 7.67201 112.427 6.82743C112.427 6.08843 112.566 5.52538 112.845 5.12069C113.124 4.69841 113.511 4.50486 113.991 4.50486C114.455 4.50486 114.812 4.75119 115.075 5.24386C115.338 5.73653 115.462 6.44034 115.462 7.3201C115.462 8.93887 115.013 9.74825 114.115 9.74825Z" fill="#BD9A61"/>
<path d="M10.8783 13.2306L10.9093 12.9941L11.188 13.0598C11.2189 13.0598 14.0681 13.7036 15.4927 12.6262C16.8709 11.5882 17.3664 9.15751 15.6011 6.71369C13.9288 4.37497 9.88726 1.95742 9.09754 1.49756C8.30782 1.95742 4.26632 4.37497 2.59397 6.71369C0.828712 9.15751 1.33971 11.5882 2.70236 12.6262C4.12695 13.7036 6.97614 13.0598 7.00711 13.0598L7.28583 12.9941L7.3168 13.2306C7.3168 13.2831 7.45616 14.6627 6.26384 15.7795C5.27282 16.6992 3.69338 17.1591 1.58746 17.1591V17.9868C3.98759 17.9868 5.81479 17.435 6.99162 16.3313C8.46267 14.9649 8.32331 13.3357 8.30782 13.1517L8.16846 11.943L6.79032 12.2583C6.17093 12.3897 4.23535 12.6525 3.38369 12.0086C2.29976 11.194 1.9591 9.19693 3.44563 7.13413C4.77731 5.28155 7.78134 3.32386 9.12851 2.49611C10.4757 3.31072 13.4642 5.26841 14.8114 7.13413C16.2979 9.19693 15.9573 11.194 14.8733 12.0086C14.0217 12.6525 12.0861 12.4028 11.4667 12.2583L10.0731 11.943L9.9492 13.1649C9.93372 13.3488 9.79435 14.978 11.2654 16.3445C12.4422 17.435 14.2694 18 16.6696 18V17.1722C14.5482 17.1722 12.9842 16.6992 11.9932 15.7926C10.7389 14.6627 10.8783 13.2963 10.8783 13.2306Z" fill="#BA1218"/>
<path d="M16.4536 13.5462C18.3117 12.1403 19.0395 9.11837 16.8407 6.07015C14.8277 3.25844 9.98096 0.499277 9.76417 0.381027L9.09833 0L8.43249 0.381027C8.23119 0.499277 3.36899 3.2453 1.35598 6.05701C-0.842848 9.10523 -0.115067 12.1272 1.7431 13.533C2.84251 14.3739 4.3755 14.5184 5.56782 14.4659C5.47491 14.6367 5.33555 14.7944 5.16522 14.952C4.4684 15.5958 3.2606 15.9112 1.58825 15.9112V16.7389C3.55481 16.7389 5.01037 16.3185 5.90848 15.4907C6.68272 14.7681 6.83756 13.9009 6.85305 13.4936C6.03236 13.6381 3.74062 13.9272 2.40894 12.9024C0.844984 11.7199 0.287535 9.13151 2.20764 6.46432C4.11226 3.81027 8.80412 1.15622 8.98994 1.05111L9.1293 0.972275L9.26866 1.05111C9.46996 1.16936 14.1463 3.81027 16.051 6.46432C17.9711 9.13151 17.3981 11.7199 15.8497 12.9024C14.518 13.9141 12.2262 13.6381 11.4055 13.4936C11.421 13.9009 11.5759 14.7681 12.3501 15.4907C13.2482 16.3185 14.6883 16.7389 16.6703 16.7389V15.9112C14.998 15.9112 13.7902 15.5827 13.0934 14.952C12.923 14.7944 12.7837 14.6235 12.6908 14.4659C13.8212 14.5316 15.3541 14.3871 16.4536 13.5462Z" fill="#BA1218"/>
<path d="M119.668 3.25888H118.909V3H120.752V3.25888H119.993V5.05745H119.668V3.25888Z" fill="#BD9A61"/>
<path d="M121.294 3H121.774L122.533 4.56693H122.548L123.291 3H123.771V5.05745H123.446V3.36789L122.641 5.05745H122.424L121.619 3.36789V5.05745H121.294V3Z" fill="#BD9A61"/>
</svg>
