<svg width="34" height="34" viewBox="0 0 34 34" fill="none" xmlns="http://www.w3.org/2000/svg">
<path d="M29.551 11.3958C29.5466 11.3958 29.5443 11.3952 29.5422 11.3942C29.5393 11.393 29.5344 11.3902 29.5289 11.3846C29.5181 11.3735 29.5097 11.357 29.5097 11.3333V6.375C29.5097 5.94916 29.4735 5.30399 29.0098 4.83089C28.5396 4.35107 27.8916 4.3125 27.4683 4.3125H22.6087C22.6044 4.3125 22.6021 4.31182 22.6 4.31089C22.5971 4.30964 22.5922 4.30682 22.5867 4.30123C22.5758 4.29014 22.5674 4.27364 22.5674 4.25C22.5674 4.22636 22.5758 4.20986 22.5867 4.19877C22.5922 4.19318 22.5971 4.19036 22.6 4.18911C22.6021 4.18818 22.6044 4.1875 22.6087 4.1875H27.4683C28.2415 4.1875 28.7418 4.41842 29.0498 4.73268C29.3603 5.04951 29.5923 5.57053 29.5923 6.375V11.3333C29.5923 11.357 29.5839 11.3735 29.573 11.3846C29.5675 11.3902 29.5627 11.393 29.5598 11.3942C29.5576 11.3952 29.5554 11.3958 29.551 11.3958ZM4.60025 6.375V11.3333C4.60025 11.357 4.59182 11.3735 4.58096 11.3846C4.57547 11.3902 4.57059 11.393 4.5677 11.3942C4.56555 11.3952 4.56331 11.3958 4.55891 11.3958C4.55452 11.3958 4.55228 11.3952 4.55013 11.3942C4.54724 11.393 4.54236 11.3902 4.53687 11.3846C4.52601 11.3735 4.51758 11.357 4.51758 11.3333V6.375C4.51758 5.57053 4.74963 5.04951 5.06015 4.73268C5.36815 4.41842 5.86837 4.1875 6.64159 4.1875H11.5012C11.5055 4.1875 11.5078 4.18818 11.5099 4.18911C11.5128 4.19035 11.5177 4.19318 11.5232 4.19877C11.5341 4.20986 11.5425 4.22635 11.5425 4.25C11.5425 4.27365 11.5341 4.29014 11.5232 4.30123C11.5177 4.30682 11.5128 4.30965 11.5099 4.31089C11.5078 4.31182 11.5055 4.3125 11.5012 4.3125H6.64159C6.21831 4.3125 5.57032 4.35107 5.10006 4.83089C4.63638 5.30399 4.60025 5.94916 4.60025 6.375ZM11.5012 29.6875C11.5055 29.6875 11.5078 29.6882 11.5099 29.6891C11.5128 29.6904 11.5177 29.6932 11.5232 29.6988C11.5341 29.7099 11.5425 29.7264 11.5425 29.75C11.5425 29.7736 11.5341 29.7901 11.5232 29.8012C11.5177 29.8068 11.5128 29.8096 11.5099 29.8109C11.5078 29.8118 11.5055 29.8125 11.5012 29.8125H6.64159C5.86837 29.8125 5.36815 29.5816 5.06015 29.2673C4.74962 28.9505 4.51758 28.4295 4.51758 27.625V22.6667C4.51758 22.643 4.52601 22.6265 4.53687 22.6154C4.54236 22.6098 4.54724 22.607 4.55013 22.6058C4.55228 22.6048 4.55452 22.6042 4.55891 22.6042C4.56331 22.6042 4.56555 22.6048 4.5677 22.6058C4.57059 22.607 4.57547 22.6098 4.58096 22.6154C4.59182 22.6265 4.60025 22.643 4.60025 22.6667V27.625C4.60025 28.0508 4.63638 28.696 5.10006 29.1691C5.57032 29.6489 6.21831 29.6875 6.64159 29.6875H11.5012ZM29.5923 22.6667V27.625C29.5923 28.4295 29.3603 28.9505 29.0498 29.2673C28.7418 29.5816 28.2415 29.8125 27.4683 29.8125H22.6087C22.6044 29.8125 22.6021 29.8118 22.6 29.8109C22.5971 29.8096 22.5922 29.8068 22.5867 29.8012C22.5758 29.7901 22.5674 29.7736 22.5674 29.75C22.5674 29.7264 22.5758 29.7099 22.5867 29.6988C22.5922 29.6932 22.5971 29.6904 22.6 29.6891C22.6021 29.6882 22.6044 29.6875 22.6087 29.6875H27.4683C27.8916 29.6875 28.5396 29.6489 29.0098 29.1691C29.4735 28.696 29.5097 28.0508 29.5097 27.625V22.6667C29.5097 22.643 29.5181 22.6265 29.5289 22.6154C29.5344 22.6098 29.5393 22.607 29.5422 22.6058C29.5443 22.6048 29.5466 22.6042 29.551 22.6042C29.5554 22.6042 29.5576 22.6048 29.5598 22.6058C29.5627 22.607 29.5675 22.6098 29.573 22.6154C29.5839 22.6265 29.5923 22.643 29.5923 22.6667Z" fill="#327CC8" stroke="#327CC8" stroke-width="2"/>
</svg>
