<svg width="34" height="34" viewBox="0 0 34 34" fill="none" xmlns="http://www.w3.org/2000/svg">
<path d="M26.1984 18.0012C26.1505 18.3537 25.9508 18.688 25.676 18.9664C25.241 19.4074 24.5759 19.7566 23.857 19.8275C20.1217 20.1755 16.3534 20.2405 12.6057 20.022C12.6701 19.8659 12.7047 19.6994 12.7047 19.527C12.7047 18.6366 11.7886 17.9147 10.6596 17.9147C9.61726 17.9147 8.75647 18.5293 8.63103 19.3241C8.12099 18.9833 7.75125 18.5072 7.68193 18.0012C7.30394 15.157 7.30394 12.2888 7.68193 9.44463C7.80655 8.53343 8.90668 7.72825 10.0233 7.61833C14.6211 7.18907 19.2593 7.18907 23.857 7.61833C24.9736 7.72825 26.0738 8.53343 26.1984 9.44463C26.5764 12.2888 26.5764 15.157 26.1984 18.0012Z" stroke="#327CC8" stroke-width="1.5" stroke-miterlimit="10" stroke-linecap="round" stroke-linejoin="round"/>
<path d="M32.5288 27.8425H1.3916L3.89326 23.0283H30.0272L32.5288 27.8425Z" stroke="#327CC8" stroke-width="1.5" stroke-miterlimit="10" stroke-linecap="round" stroke-linejoin="round"/>
<path d="M32.5288 32.9999V27.8438H1.3916V32.9999" stroke="#327CC8" stroke-width="1.5" stroke-miterlimit="10" stroke-linecap="round" stroke-linejoin="round"/>
<path d="M29.985 10.7166V4.68359H3.89355V23.0284H29.985V16.44" stroke="#327CC8" stroke-width="1.5" stroke-miterlimit="10" stroke-linecap="round" stroke-linejoin="round"/>
<path d="M33 1H1V4.68415H33V1Z" stroke="#327CC8" stroke-width="1.5" stroke-miterlimit="10" stroke-linecap="round" stroke-linejoin="round"/>
<path d="M10.6582 25.3705V21.1387" stroke="#327CC8" stroke-width="1.5" stroke-miterlimit="10" stroke-linecap="round" stroke-linejoin="round"/>
<path d="M16.0859 25.3716H18.1919" stroke="#327CC8" stroke-width="1.5" stroke-miterlimit="10" stroke-linecap="round" stroke-linejoin="round"/>
<path d="M9.60547 25.3716H11.7115" stroke="#327CC8" stroke-width="1.5" stroke-miterlimit="10" stroke-linecap="round" stroke-linejoin="round"/>
<path d="M22.4502 25.3716H24.5562" stroke="#327CC8" stroke-width="1.5" stroke-miterlimit="10" stroke-linecap="round" stroke-linejoin="round"/>
<path d="M10.658 21.1388C11.7878 21.1388 12.7037 20.417 12.7037 19.5267C12.7037 18.6363 11.7878 17.9146 10.658 17.9146C9.52818 17.9146 8.6123 18.6363 8.6123 19.5267C8.6123 20.417 9.52818 21.1388 10.658 21.1388Z" stroke="#327CC8" stroke-width="1.5" stroke-miterlimit="10" stroke-linecap="round" stroke-linejoin="round"/>
<ellipse cx="29.9835" cy="13.6582" rx="0.825302" ry="0.650393" fill="#727688" stroke="#327CC8" stroke-width="1.5" stroke-miterlimit="10" stroke-linecap="round" stroke-linejoin="round"/>
</svg>
