<svg width="26" height="26" viewBox="0 0 26 26" fill="none" xmlns="http://www.w3.org/2000/svg">
<path d="M24.25 8.9375H19.875C18.1138 8.9375 17.0625 7.88625 17.0625 6.125V1.75C17.0625 1.2325 17.4825 0.8125 18 0.8125C18.5175 0.8125 18.9375 1.2325 18.9375 1.75V6.125C18.9375 6.86125 19.1388 7.0625 19.875 7.0625H24.25C24.7675 7.0625 25.1875 7.4825 25.1875 8C25.1875 8.5175 24.7675 8.9375 24.25 8.9375ZM8.9375 6.125V1.75C8.9375 1.2325 8.5175 0.8125 8 0.8125C7.4825 0.8125 7.0625 1.2325 7.0625 1.75V6.125C7.0625 6.86125 6.86125 7.0625 6.125 7.0625H1.75C1.2325 7.0625 0.8125 7.4825 0.8125 8C0.8125 8.5175 1.2325 8.9375 1.75 8.9375H6.125C7.88625 8.9375 8.9375 7.88625 8.9375 6.125ZM8.9375 24.25V19.875C8.9375 18.1138 7.88625 17.0625 6.125 17.0625H1.75C1.2325 17.0625 0.8125 17.4825 0.8125 18C0.8125 18.5175 1.2325 18.9375 1.75 18.9375H6.125C6.86125 18.9375 7.0625 19.1388 7.0625 19.875V24.25C7.0625 24.7675 7.4825 25.1875 8 25.1875C8.5175 25.1875 8.9375 24.7675 8.9375 24.25ZM18.9375 24.25V19.875C18.9375 19.1388 19.1388 18.9375 19.875 18.9375H24.25C24.7675 18.9375 25.1875 18.5175 25.1875 18C25.1875 17.4825 24.7675 17.0625 24.25 17.0625H19.875C18.1138 17.0625 17.0625 18.1138 17.0625 19.875V24.25C17.0625 24.7675 17.4825 25.1875 18 25.1875C18.5175 25.1875 18.9375 24.7675 18.9375 24.25Z" fill="#727688"/>
</svg>
