<svg width="31" height="30" viewBox="0 0 31 30" fill="none" xmlns="http://www.w3.org/2000/svg">
<path d="M2.125 21.3216C2.125 21.6591 2.40156 21.9338 2.74141 21.9338H15.0761C15.4164 21.9338 15.6925 21.6591 15.6925 21.3216V2.54773C15.6925 2.21023 15.4159 1.93555 15.0761 1.93555H2.74141C2.40109 1.93555 2.125 2.21023 2.125 2.54773V21.3216ZM14.6083 18.3863V20.1563C14.6083 20.4151 14.3988 20.6251 14.1395 20.6251C13.8803 20.6251 13.6708 20.4151 13.6708 20.1563V18.3863C13.6708 18.1276 13.8803 17.9176 14.1395 17.9176C14.3988 17.9176 14.6083 18.1276 14.6083 18.3863ZM8.90734 8.16148C10.12 7.27695 11.8455 7.38383 12.9339 8.47274C13.517 9.05539 13.8395 9.83445 13.8419 10.666C13.8419 11.4737 13.532 12.2391 12.9695 12.8227C12.9677 12.8246 12.9653 12.827 12.9634 12.8288L9.24109 16.5512C9.14969 16.6426 9.02969 16.6885 8.90969 16.6885C8.78969 16.6885 8.66969 16.6426 8.57828 16.5512L4.85406 12.827C3.67937 11.6134 3.69578 9.66242 4.885 8.47274C5.97203 7.38477 7.69516 7.27742 8.90734 8.16148ZM3.20875 3.71305C3.20875 3.4543 3.41828 3.2443 3.6775 3.2443C3.93672 3.2443 4.14625 3.4543 4.14625 3.71305V5.48305C4.14625 5.7418 3.93672 5.9518 3.6775 5.9518C3.41828 5.9518 3.20875 5.7418 3.20875 5.48305V3.71305Z" fill="#327CC8"/>
<path d="M18.6564 24.1578L22.847 5.86387C22.9216 5.53152 22.7153 5.20012 22.3872 5.12559L16.63 3.80371V21.3214C16.63 22.1759 15.933 22.8711 15.0761 22.8711H10.2812L17.9191 24.6204C18.2467 24.6945 18.5795 24.4873 18.6564 24.1578Z" fill="#327CC8"/>
<path d="M8.90883 15.5566L12.297 12.1685C12.6884 11.7612 12.904 11.2282 12.904 10.6671C12.9026 10.0863 12.6776 9.54211 12.2707 9.13524C11.4405 8.30461 10.077 8.29243 9.23321 9.10946C9.0518 9.28524 8.76258 9.28524 8.58117 9.10946C8.16446 8.70633 7.62117 8.50524 7.07836 8.50524C6.52242 8.50524 5.96696 8.71571 5.54695 9.13524C4.71727 9.96539 4.70555 11.3262 5.52117 12.169L8.90883 15.5566Z" fill="#327CC8"/>
<path d="M17.3985 28.0527C17.5597 28.0218 17.698 27.9299 17.788 27.7954L28.2697 12.2179C28.3616 12.081 28.3949 11.9174 28.363 11.7566C28.3316 11.5959 28.2388 11.4571 28.1024 11.3657L23.2907 8.13086L19.5697 24.3688C19.5468 24.4668 19.5139 24.5591 19.4741 24.6477C19.4619 24.6754 19.446 24.6998 19.4324 24.7265C19.4019 24.786 19.3696 24.8437 19.3321 24.898C19.3124 24.9262 19.2908 24.952 19.2697 24.9787C19.2318 25.0265 19.1919 25.072 19.1488 25.1151C19.1239 25.1399 19.0982 25.1634 19.0714 25.1863C19.0264 25.2252 18.9791 25.2613 18.9299 25.2946C18.9008 25.3143 18.8727 25.3345 18.8427 25.3523C18.7897 25.3837 18.7344 25.4099 18.6782 25.4348C18.6486 25.4479 18.62 25.4629 18.5896 25.4741C18.5188 25.5004 18.4461 25.5196 18.3721 25.5351C18.3538 25.5388 18.3364 25.5459 18.3182 25.5491C18.2314 25.5641 18.1429 25.5726 18.0533 25.5726C18.0486 25.5726 18.0444 25.5712 18.0397 25.5712C17.931 25.5702 17.8208 25.5595 17.7107 25.5341L11.0713 24.0135L16.9358 27.958C17.0732 28.0513 17.2382 28.0851 17.3985 28.0527Z" fill="#327CC8"/>
</svg>
