<svg width="40" height="36" viewBox="0 0 40 36" fill="none" xmlns="http://www.w3.org/2000/svg">
<path d="M10.665 0.5L10.8242 0.505859C11.6177 0.566408 12.3884 1.05786 12.9043 1.91895L13.334 2.63477L13.7627 1.91895C14.2783 1.05791 15.049 0.566349 15.8428 0.505859L16.002 0.5H23.998L24.1572 0.505859C24.951 0.56635 25.7217 1.05791 26.2373 1.91895L26.666 2.63477L27.0957 1.91895C27.6116 1.05786 28.3823 0.566407 29.1758 0.505859L29.335 0.5H36.666L36.8037 0.504883C38.1778 0.594197 39.4161 1.98004 39.4961 3.89844L39.5 4.0918V31.9092L39.4961 32.1025C39.4132 34.0841 38.0939 35.4979 36.666 35.5H29.335C28.4867 35.4973 27.6461 35.0003 27.0957 34.082L26.666 33.3652L26.2373 34.082C25.6873 35.0002 24.8466 35.4973 23.998 35.5H16.002C15.1534 35.4973 14.3127 35.0002 13.7627 34.082L13.334 33.3652L12.9043 34.082C12.3539 35.0003 11.5133 35.4973 10.665 35.5H3.33398C1.86009 35.4978 0.502114 33.9915 0.5 31.9092V4.0918C0.501909 2.07392 1.77655 0.597164 3.19629 0.504883L3.33398 0.5H10.665ZM3.33301 1.13672C1.86159 1.13699 0.833112 2.55968 0.833008 4.09082V31.9092C0.833008 33.4401 1.86156 34.863 3.33301 34.8633H10.667C12.1383 34.8632 13.167 33.4401 13.167 31.9092V4.09082C13.1669 2.55965 12.1383 1.13684 10.667 1.13672H3.33301ZM16 1.13672C14.5284 1.13676 13.5001 2.55955 13.5 4.09082V31.9092C13.5 33.4402 14.5284 34.8632 16 34.8633H24C25.4716 34.8632 26.5 33.4402 26.5 31.9092V4.09082C26.4999 2.55955 25.4716 1.13676 24 1.13672H16ZM29.333 1.13672C27.8617 1.13684 26.8331 2.55964 26.833 4.09082V31.9092C26.833 33.4401 27.8617 34.8632 29.333 34.8633H36.667C38.1384 34.863 39.167 33.4401 39.167 31.9092V4.09082C39.1669 2.55968 38.1384 1.137 36.667 1.13672H29.333Z" fill="#727688" stroke="#727688"/>
<path d="M29.3325 15.5419H31.9888C30.3838 18.7198 29.3966 24.0992 29.3481 24.3644C29.3041 24.6067 29.3524 24.8607 29.479 25.0543C29.6057 25.2479 29.797 25.3603 29.9993 25.3603H33.9993C34.3676 25.3603 34.6661 24.9936 34.6661 24.5419C34.6661 19.946 37.1954 15.2246 37.2207 15.1771C37.2936 15.0426 37.3327 14.8849 37.3327 14.7239V11.4508C37.3327 10.9991 37.0342 10.6328 36.6659 10.6328H29.3325C28.9645 10.6328 28.666 10.9991 28.666 11.4508V14.7239C28.666 15.1756 28.9645 15.5419 29.3325 15.5419ZM29.9993 12.2692H35.9994V14.4842C35.5047 15.4493 33.5827 19.4513 33.3547 23.7236H30.8468C31.3613 21.2839 32.4859 16.9198 33.804 15.3021C33.9947 15.0681 34.0518 14.7164 33.9483 14.4108C33.8452 14.1051 33.6022 13.9055 33.3328 13.9055H29.9993V12.2692Z" fill="#727688"/>
<path d="M16.6665 15.5419H19.3228C17.7178 18.7198 16.7306 24.0992 16.6821 24.3644C16.6381 24.6067 16.6863 24.8607 16.813 25.0543C16.9396 25.2479 17.131 25.3603 17.3333 25.3603H21.3333C21.7016 25.3603 22.0001 24.9936 22.0001 24.5419C22.0001 19.946 24.5294 15.2246 24.5547 15.1771C24.6276 15.0426 24.6664 14.8849 24.6667 14.7239V11.4508C24.6667 10.9991 24.3682 10.6328 23.9999 10.6328H16.6665C16.2985 10.6328 16 10.9991 16 11.4508V14.7239C16 15.1756 16.2985 15.5419 16.6665 15.5419ZM17.3333 12.2692H23.3334V14.4842C22.8387 15.4493 20.9167 19.4513 20.6887 23.7236H18.1805C18.6953 21.2839 19.8199 16.9198 21.1379 15.3021C21.3287 15.0681 21.3854 14.7164 21.2823 14.4108C21.1791 14.1051 20.9362 13.9055 20.6667 13.9055H17.3333V12.2692Z" fill="#727688"/>
<path d="M3.33282 15.5419H5.98877C4.38416 18.7198 3.39935 24.0992 3.34808 24.3644C3.30414 24.6067 3.35236 24.8607 3.479 25.0543C3.60565 25.2479 3.797 25.3603 3.99933 25.3603H7.99927C8.36761 25.3603 8.66608 24.9936 8.66608 24.5419C8.66608 19.946 11.1954 15.2246 11.2207 15.1771C11.2936 15.0426 11.3327 14.8849 11.3327 14.7239V11.4508C11.3327 10.9991 11.0342 10.6328 10.6662 10.6328H3.33282C2.96448 10.6328 2.66602 10.9991 2.66602 11.4508V14.7239C2.66602 15.1756 2.96448 15.5419 3.33282 15.5419ZM3.99933 12.2692H9.99939V14.4842C9.5047 15.4493 7.5827 19.4513 7.35474 23.7236H4.8468C5.36133 21.2839 6.48621 16.9198 7.80395 15.3021C7.99469 15.0681 8.05176 14.7164 7.94861 14.4108C7.84546 14.1051 7.60223 13.9055 7.33276 13.9055H3.99933V12.2692Z" fill="#727688"/>
<path d="M3.33282 4.90978H3.99933C4.36768 4.90978 4.66614 4.54349 4.66614 4.0918C4.66614 3.63973 4.36768 3.27344 3.99933 3.27344H3.33282C2.96448 3.27344 2.66602 3.63973 2.66602 4.0918C2.66602 4.54349 2.96448 4.90978 3.33282 4.90978Z" fill="#727688"/>
<path d="M6.6665 4.90978H9.99994C10.368 4.90978 10.6667 4.54349 10.6667 4.0918C10.6667 3.63973 10.368 3.27344 9.99994 3.27344H6.6665C6.29846 3.27344 6 3.63973 6 4.0918C6 4.54349 6.29846 4.90978 6.6665 4.90978Z" fill="#727688"/>
<path d="M16.6665 4.90978H17.3333C17.7014 4.90978 17.9998 4.54349 17.9998 4.0918C17.9998 3.63973 17.7014 3.27344 17.3333 3.27344H16.6665C16.2985 3.27344 16 3.63973 16 4.0918C16 4.54349 16.2985 4.90978 16.6665 4.90978Z" fill="#727688"/>
<path d="M20.0008 4.90978H23.3342C23.7023 4.90978 24.0007 4.54349 24.0007 4.0918C24.0007 3.63973 23.7023 3.27344 23.3342 3.27344H20.0008C19.6328 3.27344 19.334 3.63973 19.334 4.0918C19.334 4.54349 19.6328 4.90978 20.0008 4.90978Z" fill="#727688"/>
<path d="M29.3325 4.90978H29.9993C30.3674 4.90978 30.6661 4.54349 30.6661 4.0918C30.6661 3.63973 30.3674 3.27344 29.9993 3.27344H29.3325C28.9645 3.27344 28.666 3.63973 28.666 4.0918C28.666 4.54349 28.9645 4.90978 29.3325 4.90978Z" fill="#727688"/>
<path d="M32.6665 4.90978H35.9999C36.368 4.90978 36.6664 4.54349 36.6664 4.0918C36.6664 3.63973 36.368 3.27344 35.9999 3.27344H32.6665C32.2985 3.27344 32 3.63973 32 4.0918C32 4.54349 32.2985 4.90978 32.6665 4.90978Z" fill="#727688"/>
<path d="M35.9993 31.0938H35.3325C34.9645 31.0938 34.666 31.46 34.666 31.9121C34.666 32.3638 34.9645 32.7301 35.3325 32.7301H35.9993C36.3674 32.7301 36.6658 32.3638 36.6658 31.9121C36.6658 31.46 36.3674 31.0938 35.9993 31.0938Z" fill="#727688"/>
<path d="M29.3325 32.7301H32.666C33.0343 32.7301 33.3328 32.3638 33.3328 31.9121C33.3328 31.46 33.0343 31.0938 32.666 31.0938H29.3325C28.9645 31.0938 28.666 31.46 28.666 31.9121C28.666 32.3638 28.9645 32.7301 29.3325 32.7301Z" fill="#727688"/>
<path d="M22.6673 31.0938H22.0008C21.6324 31.0938 21.334 31.46 21.334 31.9121C21.334 32.3638 21.6324 32.7301 22.0008 32.7301H22.6673C23.0356 32.7301 23.3341 32.3638 23.3341 31.9121C23.3341 31.46 23.0356 31.0938 22.6673 31.0938Z" fill="#727688"/>
<path d="M16.0008 32.7301H19.3339C19.7023 32.7301 20.0007 32.3638 20.0007 31.9121C20.0007 31.46 19.7023 31.0938 19.3339 31.0938H16.0008C15.6324 31.0938 15.334 31.46 15.334 31.9121C15.334 32.3638 15.6324 32.7301 16.0008 32.7301Z" fill="#727688"/>
<path d="M9.99933 31.0938H9.33252C8.96448 31.0938 8.66602 31.46 8.66602 31.9121C8.66602 32.3638 8.96448 32.7301 9.33252 32.7301H9.99933C10.3674 32.7301 10.6661 32.3638 10.6661 31.9121C10.6661 31.46 10.3674 31.0938 9.99933 31.0938Z" fill="#727688"/>
<path d="M3.33282 32.7301H6.66595C7.0343 32.7301 7.33276 32.3638 7.33276 31.9121C7.33276 31.46 7.0343 31.0938 6.66595 31.0938H3.33282C2.96448 31.0938 2.66602 31.46 2.66602 31.9121C2.66602 32.3638 2.96448 32.7301 3.33282 32.7301Z" fill="#727688"/>
</svg>
