<svg width="24" height="30" viewBox="0 0 24 30" fill="none" xmlns="http://www.w3.org/2000/svg">
<mask id="path-1-inside-1_24810_27058" fill="white">
<path d="M11.47 5.58749C11.763 5.22124 12.238 5.22124 12.531 5.58749L19.531 14.3375C19.677 14.52 19.751 14.76 19.751 15C19.751 15.24 19.678 15.4801 19.531 15.6626L12.531 24.4126C12.238 24.7788 11.763 24.7788 11.47 24.4126C11.177 24.0463 11.177 23.4525 11.47 23.0863L17.94 14.9988L11.47 6.91135C11.177 6.54635 11.177 5.95374 11.47 5.58749ZM12.5301 15.6626C12.6761 15.4801 12.75 15.24 12.75 15C12.75 14.76 12.6771 14.52 12.5301 14.3375L5.53005 5.58749C5.23705 5.22124 4.76202 5.22124 4.46902 5.58749C4.17602 5.95374 4.17602 6.54754 4.46902 6.91379L10.939 15.0013L4.46902 23.0887C4.17602 23.455 4.17602 24.0488 4.46902 24.415C4.76202 24.7813 5.23705 24.7813 5.53005 24.415L12.5301 15.6626Z"/>
</mask>
<path d="M11.47 5.58749C11.763 5.22124 12.238 5.22124 12.531 5.58749L19.531 14.3375C19.677 14.52 19.751 14.76 19.751 15C19.751 15.24 19.678 15.4801 19.531 15.6626L12.531 24.4126C12.238 24.7788 11.763 24.7788 11.47 24.4126C11.177 24.0463 11.177 23.4525 11.47 23.0863L17.94 14.9988L11.47 6.91135C11.177 6.54635 11.177 5.95374 11.47 5.58749ZM12.5301 15.6626C12.6761 15.4801 12.75 15.24 12.75 15C12.75 14.76 12.6771 14.52 12.5301 14.3375L5.53005 5.58749C5.23705 5.22124 4.76202 5.22124 4.46902 5.58749C4.17602 5.95374 4.17602 6.54754 4.46902 6.91379L10.939 15.0013L4.46902 23.0887C4.17602 23.455 4.17602 24.0488 4.46902 24.415C4.76202 24.7813 5.23705 24.7813 5.53005 24.415L12.5301 15.6626Z" fill="#327CC8"/>
<path d="M19.531 15.6626L16.4159 13.1534L16.4076 13.1638L19.531 15.6626ZM12.531 24.4126L9.40755 21.9138L12.531 24.4126ZM11.47 23.0863L8.34652 20.5875V20.5875L11.47 23.0863ZM17.94 14.9988L21.0634 17.4976L23.0625 14.9988L21.0634 12.5L17.94 14.9988ZM11.47 6.91135L14.5935 4.41256L14.5893 4.40736L11.47 6.91135ZM12.5301 15.6626L9.40658 13.1638L9.40624 13.1642L12.5301 15.6626ZM12.5301 14.3375L9.40656 16.8363L9.41492 16.8467L12.5301 14.3375ZM5.53005 5.58749L2.40658 8.08628L5.53005 5.58749ZM4.46902 6.91379L7.59249 4.41501H7.59249L4.46902 6.91379ZM10.939 15.0013L14.0625 17.5L16.0615 15.0013L14.0625 12.5025L10.939 15.0013ZM4.46902 23.0887L1.34554 20.5899L4.46902 23.0887ZM5.53005 24.415L8.65353 26.9138L8.65387 26.9134L5.53005 24.415ZM14.5935 8.08628C14.0607 8.75226 13.1459 9.31281 12.0005 9.31281C10.8551 9.31281 9.94034 8.75226 9.40755 8.08628L15.6545 3.08871C14.8287 2.05648 13.5299 1.31281 12.0005 1.31281C10.4711 1.31281 9.1723 2.05648 8.34652 3.08871L14.5935 8.08628ZM9.40755 8.08628L16.4076 16.8363L22.6545 11.8387L15.6545 3.08871L9.40755 8.08628ZM16.4076 16.8363C15.9092 16.2133 15.751 15.5369 15.751 15H23.751C23.751 13.9832 23.4449 12.8267 22.6545 11.8387L16.4076 16.8363ZM15.751 15C15.751 14.4748 15.9041 13.7888 16.4159 13.1534L22.6462 18.1717C23.452 17.1713 23.751 16.0053 23.751 15H15.751ZM16.4076 13.1638L9.40755 21.9138L15.6545 26.9113L22.6545 18.1613L16.4076 13.1638ZM9.40755 21.9138C9.94034 21.2478 10.8551 20.6873 12.0005 20.6873C13.1459 20.6873 14.0607 21.2478 14.5935 21.9138L8.34652 26.9113C9.1723 27.9436 10.4711 28.6873 12.0005 28.6873C13.5299 28.6873 14.8287 27.9436 15.6545 26.9113L9.40755 21.9138ZM14.5935 21.9138C15.0951 22.5408 15.2502 23.2194 15.2502 23.7494C15.2502 24.2794 15.0951 24.958 14.5935 25.5851L8.34652 20.5875C6.88482 22.4146 6.88482 25.0842 8.34652 26.9113L14.5935 21.9138ZM14.5935 25.5851L21.0634 17.4976L14.8165 12.5L8.34652 20.5875L14.5935 25.5851ZM21.0634 12.5L14.5935 4.41257L8.34652 9.41013L14.8165 17.4976L21.0634 12.5ZM14.5893 4.40736C15.094 5.03612 15.2502 5.71767 15.2502 6.24989C15.2502 6.78242 15.094 7.46064 14.5935 8.08628L8.34652 3.08871C6.88682 4.91334 6.88143 7.58502 8.35069 9.41533L14.5893 4.40736ZM15.6535 18.1613C16.4439 17.1734 16.75 16.0169 16.75 15H8.75002C8.75002 14.4632 8.90818 13.7868 9.40658 13.1638L15.6535 18.1613ZM16.75 15C16.75 13.9948 16.451 12.8288 15.6452 11.8283L9.41492 16.8467C8.90309 16.2112 8.75002 15.5253 8.75002 15H16.75ZM15.6535 11.8387L8.65353 3.08871L2.40658 8.08628L9.40658 16.8363L15.6535 11.8387ZM8.65353 3.08871C7.82774 2.05648 6.52893 1.31281 4.99954 1.31281C3.47014 1.31281 2.17133 2.05648 1.34554 3.08871L7.59249 8.08628C7.05971 8.75226 6.14492 9.31281 4.99954 9.31281C3.85415 9.31281 2.93936 8.75226 2.40658 8.08628L8.65353 3.08871ZM1.34554 3.08871C-0.116158 4.91584 -0.116158 7.58544 1.34554 9.41257L7.59249 4.41501C8.09413 5.04205 8.24927 5.72062 8.24927 6.25064C8.24927 6.78066 8.09413 7.45923 7.59249 8.08628L1.34554 3.08871ZM1.34554 9.41257L7.81551 17.5L14.0625 12.5025L7.59249 4.41501L1.34554 9.41257ZM7.81551 12.5025L1.34554 20.5899L7.59249 25.5875L14.0625 17.5L7.81551 12.5025ZM1.34554 20.5899C-0.116158 22.4171 -0.116158 25.0867 1.34554 26.9138L7.59249 21.9162C8.09413 22.5433 8.24927 23.2218 8.24927 23.7519C8.24927 24.2819 8.09413 24.9605 7.59249 25.5875L1.34554 20.5899ZM1.34554 26.9138C2.17133 27.946 3.47014 28.6897 4.99954 28.6897C6.52893 28.6897 7.82774 27.946 8.65353 26.9138L2.40658 21.9162C2.93936 21.2502 3.85415 20.6897 4.99954 20.6897C6.14492 20.6897 7.05971 21.2502 7.59249 21.9162L1.34554 26.9138ZM8.65387 26.9134L15.6539 18.1609L9.40624 13.1642L2.40624 21.9167L8.65387 26.9134Z" fill="#327CC8" mask="url(#path-1-inside-1_24810_27058)"/>
</svg>
