<svg width="29" height="20" viewBox="0 0 29 20" fill="none" xmlns="http://www.w3.org/2000/svg">
<path d="M23.1391 9.20596C23.4752 9.44112 23.4752 9.82239 23.1391 10.0576L15.1083 15.6758C14.9408 15.793 14.7205 15.8524 14.5002 15.8524C14.2799 15.8524 14.0596 15.7938 13.8921 15.6758L5.86128 10.0576C5.52514 9.82239 5.52514 9.44112 5.86128 9.20596C6.19743 8.97079 6.74242 8.97079 7.07857 9.20596L14.5013 14.3988L21.924 9.20596C22.259 8.97079 22.8029 8.97079 23.1391 9.20596ZM13.8921 10.0568C14.0596 10.174 14.2799 10.2333 14.5002 10.2333C14.7205 10.2333 14.9408 10.1748 15.1083 10.0568L23.1391 4.4385C23.4752 4.20333 23.4752 3.82206 23.1391 3.5869C22.8029 3.35173 22.258 3.35173 21.9218 3.5869L14.4991 8.77977L7.07633 3.5869C6.74018 3.35173 6.19519 3.35173 5.85904 3.5869C5.5229 3.82206 5.5229 4.20333 5.85904 4.4385L13.8921 10.0568Z" fill="#327CC8"/>
</svg>
