<svg width="25" height="31" viewBox="0 0 25 31" fill="none" xmlns="http://www.w3.org/2000/svg">
<mask id="path-1-inside-1_24825_27404" fill="white">
<path d="M12.8096 24.5426C12.5208 24.9122 12.0458 24.9177 11.7486 24.5548L4.64857 15.8858C4.50048 15.705 4.42376 15.4658 4.421 15.2258C4.41825 14.9858 4.48846 14.745 4.63335 14.5608L11.5324 5.73099C11.8212 5.3614 12.2962 5.35595 12.5934 5.71881C12.8905 6.08167 12.8974 6.67542 12.6086 7.04501L6.23193 15.2063L12.7944 23.2189C13.0915 23.5805 13.0983 24.173 12.8096 24.5426ZM11.6339 14.4804C11.49 14.6646 11.4188 14.9054 11.4215 15.1454C11.4243 15.3854 11.5 15.6246 11.6491 15.8054L18.7491 24.4744C19.0463 24.8373 19.5213 24.8318 19.8101 24.4622C20.0989 24.0926 20.092 23.4989 19.7949 23.136L13.2324 15.1234L19.6091 6.96216C19.8979 6.59257 19.891 5.99882 19.5938 5.63596C19.2967 5.2731 18.8217 5.27855 18.5329 5.64814L11.6339 14.4804Z"/>
</mask>
<path d="M12.8096 24.5426C12.5208 24.9122 12.0458 24.9177 11.7486 24.5548L4.64857 15.8858C4.50048 15.705 4.42376 15.4658 4.421 15.2258C4.41825 14.9858 4.48846 14.745 4.63335 14.5608L11.5324 5.73099C11.8212 5.3614 12.2962 5.35595 12.5934 5.71881C12.8905 6.08167 12.8974 6.67542 12.6086 7.04501L6.23193 15.2063L12.7944 23.2189C13.0915 23.5805 13.0983 24.173 12.8096 24.5426ZM11.6339 14.4804C11.49 14.6646 11.4188 14.9054 11.4215 15.1454C11.4243 15.3854 11.5 15.6246 11.6491 15.8054L18.7491 24.4744C19.0463 24.8373 19.5213 24.8318 19.8101 24.4622C20.0989 24.0926 20.092 23.4989 19.7949 23.136L13.2324 15.1234L19.6091 6.96216C19.8979 6.59257 19.891 5.99882 19.5938 5.63596C19.2967 5.2731 18.8217 5.27855 18.5329 5.64814L11.6339 14.4804Z" fill="#327CC8"/>
<path d="M4.63335 14.5608L7.77711 17.0341L7.78532 17.0236L4.63335 14.5608ZM11.5324 5.73099L14.6844 8.19374L11.5324 5.73099ZM12.6086 7.04501L15.7606 9.50776L15.7606 9.50776L12.6086 7.04501ZM6.23193 15.2063L3.07997 12.7435L1.10977 15.2651L3.13736 17.7407L6.23193 15.2063ZM12.7944 23.2189L9.69979 25.7534L9.70403 25.7585L12.7944 23.2189ZM11.6339 14.4804L14.7858 16.9431L14.7862 16.9427L11.6339 14.4804ZM11.6491 15.8054L14.7437 13.2709L14.7352 13.2606L11.6491 15.8054ZM18.7491 24.4744L21.8437 21.9399L18.7491 24.4744ZM19.7949 23.136L16.7003 25.6705L16.7003 25.6705L19.7949 23.136ZM13.2324 15.1234L10.0805 12.6607L8.11026 15.1822L10.1379 17.6579L13.2324 15.1234ZM19.6091 6.96216L22.761 9.42491L19.6091 6.96216ZM18.5329 5.64814L15.3809 3.1854L15.3806 3.18583L18.5329 5.64814ZM9.6576 22.0799C10.1827 21.4078 11.091 20.8368 12.2363 20.8237C13.3816 20.8105 14.3028 21.3605 14.8432 22.0203L8.65403 27.0893C9.49162 28.112 10.7989 28.8407 12.3282 28.8231C13.8575 28.8056 15.1477 28.047 15.9615 27.0054L9.6576 22.0799ZM14.8432 22.0203L7.74314 13.3513L1.554 18.4203L8.65403 27.0893L14.8432 22.0203ZM7.74314 13.3513C8.24866 13.9685 8.41457 14.6431 8.42074 15.1799L0.421269 15.2718C0.432948 16.2886 0.752309 17.4414 1.554 18.4203L7.74314 13.3513ZM8.42074 15.1799C8.42677 15.7051 8.28159 16.3928 7.7771 17.034L1.48961 12.0876C0.695324 13.0972 0.409723 14.2666 0.421269 15.2718L8.42074 15.1799ZM7.78532 17.0236L14.6844 8.19374L8.38042 3.26825L1.48138 12.0981L7.78532 17.0236ZM14.6844 8.19374C14.1593 8.86579 13.251 9.43681 12.1057 9.44997C10.9604 9.46312 10.0392 8.91312 9.49879 8.2533L15.6879 3.18432C14.8503 2.16164 13.5431 1.43293 12.0138 1.4505C10.4845 1.46806 9.1943 2.22661 8.38042 3.26825L14.6844 8.19374ZM9.49879 8.2533C8.98999 7.63206 8.82706 6.95531 8.82097 6.42533C8.81489 5.89535 8.96222 5.21503 9.45662 4.58227L15.7606 9.50776C17.2012 7.66396 17.1705 4.99453 15.6879 3.18432L9.49879 8.2533ZM9.45662 4.58227L3.07997 12.7435L9.3839 17.669L15.7606 9.50776L9.45662 4.58227ZM3.13736 17.7407L9.6998 25.7534L15.8889 20.6844L9.3265 12.6718L3.13736 17.7407ZM9.70403 25.7585C9.19211 25.1356 9.02808 24.4559 9.02196 23.9237C9.01585 23.3912 9.16431 22.7112 9.6576 22.0799L15.9615 27.0054C17.4002 25.1641 17.3749 22.4925 15.8847 20.6792L9.70403 25.7585ZM8.4819 12.0177C7.7029 13.0147 7.4101 14.1746 7.42178 15.1914L15.4213 15.0995C15.4274 15.6363 15.277 16.3145 14.7858 16.9431L8.4819 12.0177ZM7.42178 15.1914C7.43333 16.1966 7.74571 17.3591 8.56298 18.3502L14.7352 13.2606C15.2543 13.8901 15.4152 14.5743 15.4213 15.0995L7.42178 15.1914ZM8.55451 18.3399L15.6545 27.0089L21.8437 21.9399L14.7437 13.2709L8.55451 18.3399ZM15.6545 27.0089C16.4921 28.0316 17.7994 28.7603 19.3287 28.7427C20.858 28.7252 22.1482 27.9666 22.9621 26.925L16.6581 21.9995C17.1832 21.3274 18.0915 20.7564 19.2368 20.7433C20.3821 20.7301 21.3033 21.2801 21.8437 21.9399L15.6545 27.0089ZM22.9621 26.925C24.4027 25.0812 24.372 22.4118 22.8894 20.6015L16.7003 25.6705C16.1915 25.0493 16.0286 24.3725 16.0225 23.8425C16.0164 23.3126 16.1637 22.6323 16.6581 21.9995L22.9621 26.925ZM22.8894 20.6015L16.327 12.5889L10.1379 17.6579L16.7003 25.6705L22.8894 20.6015ZM16.3844 17.5861L22.761 9.42491L16.4571 4.49942L10.0805 12.6607L16.3844 17.5861ZM22.761 9.42491C24.2017 7.58111 24.171 4.91168 22.6884 3.10147L16.4993 8.17045C15.9905 7.54921 15.8275 6.87246 15.8215 6.34248C15.8154 5.8125 15.9627 5.13218 16.4571 4.49942L22.761 9.42491ZM22.6884 3.10147C21.8508 2.07879 20.5436 1.35008 19.0143 1.36765C17.485 1.38521 16.1948 2.14376 15.3809 3.1854L21.6848 8.11089C21.1597 8.78294 20.2515 9.35396 19.1061 9.36712C17.9608 9.38027 17.0397 8.83026 16.4993 8.17045L22.6884 3.10147ZM15.3806 3.18583L8.48156 12.0181L14.7862 16.9427L21.6852 8.11046L15.3806 3.18583Z" fill="#327CC8" mask="url(#path-1-inside-1_24825_27404)"/>
</svg>
