<svg width="28" height="25" viewBox="0 0 28 25" fill="none" xmlns="http://www.w3.org/2000/svg">
<path d="M26.5611 10.9429L26.5611 10.9428C27.0726 8.47961 26.7584 6.07073 25.675 4.30363C24.612 2.56969 22.7656 1.37755 20.0024 1.36531L20.0022 1.3653C18.0338 1.35604 16.7314 2.26819 15.9 3.20319C15.4808 3.67451 15.1854 4.14873 14.9953 4.50482C14.9007 4.68212 14.8333 4.82799 14.7907 4.9266C14.7694 4.97584 14.7544 5.01309 14.7452 5.03635L14.736 5.06042L14.7352 5.06245L14.735 5.06296L14.7348 5.0637L14.7347 5.06406L14.0291 7.04384L13.3233 5.06414L13.3232 5.06377L13.3232 5.06375L13.3229 5.06303L13.322 5.0605L13.3127 5.03644C13.3036 5.0132 13.2886 4.97596 13.2673 4.92674C13.2247 4.82818 13.1573 4.68236 13.0627 4.50512C12.8726 4.14915 12.5771 3.67506 12.1579 3.20381C11.3263 2.26898 10.0235 1.35666 8.05404 1.36531M26.5611 10.9429L1.49515 10.9428C0.983847 8.47963 1.30108 6.07078 2.38616 4.30354C3.45114 2.56904 5.29798 1.37754 8.05404 1.36531M26.5611 10.9429C25.7373 14.9131 22.6079 18.1178 19.556 20.3698C18.0442 21.4854 16.5835 22.3436 15.5004 22.9227C14.9595 23.2119 14.5143 23.4307 14.2061 23.5764C14.1408 23.6073 14.0816 23.6349 14.029 23.6592M26.5611 10.9429L14.029 23.6592M8.05404 1.36531L8.05075 0.615313M8.05404 1.36531L8.05075 0.615313M8.05075 0.615313C11.211 0.601436 12.8889 2.6984 13.6022 3.93231L8.05075 0.615313ZM14.029 23.6592C13.9764 23.6349 13.9172 23.6073 13.8518 23.5764C13.5436 23.4307 13.0984 23.2119 12.5575 22.9227C11.4743 22.3436 10.0136 21.4854 8.50164 20.3698C5.44953 18.1178 2.31968 14.913 1.49516 10.9429L14.029 23.6592Z" fill="#327CC8" stroke="#327CC8" stroke-width="1.5"/>
</svg>
