<svg width="31" height="30" viewBox="0 0 31 30" fill="none" xmlns="http://www.w3.org/2000/svg">
<g clip-path="url(#clip0_23805_1593)">
<path d="M3 19.3015C5.37696 17.3385 6.71924 14.7403 9.4038 12.5463C10.774 11.4204 12.0604 11.0163 12.0604 11.0163C12.0604 11.0163 12.2282 3.30844 13.4866 3.13523C14.745 2.96202 17.5134 8.30266 17.5134 8.30266L18.2964 8.3604C18.2964 8.3604 20.4497 2.81768 22.0436 2.50012C23.6376 2.21144 22.491 10.4101 22.491 10.4101C22.491 10.4101 23.6376 11.074 23.3859 13.4701C23.5537 14.1052 27.3009 16.3858 27.9161 17.6849C28.5313 18.984 24.7002 21.4955 24.7002 21.4955C24.7002 21.4955 19.387 20.3408 19.1633 19.85C18.4083 20.3119 17.5694 20.6006 17.7931 21.1491C18.1286 24.902 18.0727 26.865 17.6812 27.298C17.2897 27.7022 5.82438 28.3662 3 19.3015Z" fill="#727688"/>
</g>
<defs>
<clipPath id="clip0_23805_1593">
<rect width="25" height="25" fill="white" transform="translate(3 2.5)"/>
</clipPath>
</defs>
</svg>
