<svg width="31" height="30" viewBox="0 0 31 30" fill="none" xmlns="http://www.w3.org/2000/svg">
<g clip-path="url(#clip0_23805_16460)">
<path d="M3 19.3013C5.37696 17.3382 6.71924 14.7401 9.4038 12.5461C10.774 11.4202 12.0604 11.016 12.0604 11.016C12.0604 11.016 12.2282 3.30819 13.4866 3.13498C14.745 2.96177 17.5134 8.30242 17.5134 8.30242L18.2964 8.36016C18.2964 8.36016 20.4497 2.81743 22.0436 2.49988C23.6376 2.2112 22.491 10.4098 22.491 10.4098C22.491 10.4098 23.6376 11.0738 23.3859 13.4699C23.5537 14.105 27.3009 16.3856 27.9161 17.6846C28.5313 18.9837 24.7002 21.4953 24.7002 21.4953C24.7002 21.4953 19.387 20.3405 19.1633 19.8498C18.4083 20.3117 17.5694 20.6003 17.7931 21.1488C18.1286 24.9017 18.0727 26.8648 17.6812 27.2978C17.2897 27.702 5.82438 28.3659 3 19.3013Z" fill="#327CC8"/>
</g>
<defs>
<clipPath id="clip0_23805_16460">
<rect width="25" height="25" fill="white" transform="translate(3 2.5)"/>
</clipPath>
</defs>
</svg>
