<svg width="31" height="30" viewBox="0 0 31 30" fill="none" xmlns="http://www.w3.org/2000/svg">
<path d="M3.48865 14.3939C4.11816 15.1374 4.8816 15.7998 5.77898 16.4892C5.12268 15.0834 4.61372 13.3801 4.27888 12.0959C5.02893 10.3791 6.18079 8.67584 7.89518 7.16183C8.0693 8.27031 8.47111 9.33822 8.98007 10.5278C9.07383 8.87861 9.48903 6.99962 9.82388 5.68838C11.1499 4.80971 12.516 4.17437 13.8286 3.70124C13.708 4.8773 13.7884 6.0804 13.9491 7.40516C14.3777 5.9317 15.1144 4.32306 15.7037 3.147C19.5745 2.18723 22.6684 2.57925 22.6684 2.57925L20.5522 6.85092L19.0521 8.28382L24.1016 5.74245C24.3293 6.29668 24.4364 7.93236 23.7667 8.93268C22.9363 10.1763 20.8201 10.0952 20.0433 9.7708C20.3781 10.2439 20.8469 10.5413 21.7443 10.5684C21.7443 10.5684 23.5792 13.1097 23.8873 13.5423C24.1953 13.9749 24.2221 14.2452 24.2623 14.6643C24.3025 15.0834 24.3025 15.6376 24.3828 15.7728C24.4766 15.8944 26.4053 18.3547 26.9142 18.8819C27.4232 19.4091 28.0259 19.9633 27.9991 20.2472C27.9724 20.5311 27.1152 21.7207 26.5928 22.1532C26.0704 22.5858 25.8695 22.5453 25.6552 22.5453C25.4275 22.5453 25.2534 22.4777 25.1195 22.6669C24.9856 22.8562 24.6507 23.3158 24.5034 23.4239C24.356 23.5321 24.0748 23.6537 23.7667 23.4239C23.4587 23.1941 20.6728 21.3286 20.2844 21.2611C20.0433 21.2205 18.7039 21.0448 17.6458 20.8555C17.0699 20.7609 16.3868 20.4365 16.1189 20.2067C15.9984 20.1255 15.9046 20.0174 15.7841 19.9228C15.6769 19.8146 15.5698 19.72 15.476 19.6119C15.3689 19.5037 15.2751 19.3956 15.1814 19.2739C14.7929 18.8143 14.4313 18.3277 14.0965 17.814C13.9223 17.5571 13.7616 17.3003 13.6009 17.0435C13.6009 17.0299 13.5607 16.9759 13.5607 16.9623L13.5473 16.9353L13.5339 16.8948C13.5205 16.8407 13.4938 16.7731 13.4938 16.7055C13.467 16.5703 13.467 16.4216 13.4536 16.2729C13.4536 15.9755 13.467 15.6781 13.5071 15.3672C13.5473 15.0698 13.5875 14.7589 13.6277 14.4615C13.6411 14.4075 13.6009 14.3669 13.5607 14.3669C13.5205 14.3534 13.4804 14.3804 13.467 14.421C13.4134 14.5697 13.3732 14.7184 13.333 14.8671C13.2928 15.0158 13.2527 15.1645 13.2259 15.3267C13.1589 15.6376 13.1053 15.9485 13.0919 16.2729C13.0785 16.4351 13.0785 16.5974 13.0919 16.7731C13.1053 16.8542 13.1187 16.9488 13.1321 17.0299L13.1455 17.0975C13.1589 17.1246 13.1589 17.1516 13.1723 17.1786C13.1991 17.2327 13.1991 17.2462 13.2259 17.3003C13.3732 17.5707 13.5339 17.841 13.6947 18.1114C14.0161 18.6521 14.3643 19.1658 14.7662 19.6659C14.8599 19.7876 14.9671 19.9093 15.0742 20.0309C15.1814 20.1526 15.2885 20.2607 15.3957 20.3824C15.5162 20.4905 15.6234 20.6122 15.7573 20.7068C16.6815 21.4773 17.686 21.8288 18.6235 22.5858C19.7084 23.4645 20.8871 24.4107 21.4362 24.8974C22.5747 25.9247 22.856 26.479 23.2042 27.2495C23.2979 27.4658 23.4989 28.0336 23.7399 28.75C18.3557 27.0332 3.76992 22.9102 3.76992 22.9102C3.23417 21.8558 2.49752 18.2871 3.48865 14.3939ZM20.6192 13.6234C20.6728 13.7451 21.8514 15.7863 21.9854 15.9891C22.1193 16.1918 22.5613 16.7731 22.6417 16.8001C22.722 16.8137 22.5613 16.2729 22.5613 16.2324C22.5613 16.1783 22.6283 15.1239 22.6283 15.1239C22.6283 15.1239 22.8024 15.0698 22.9497 14.9347C23.097 14.7995 23.2979 14.5832 23.2846 14.5426C23.2712 14.5156 22.9899 14.6643 22.8693 14.7049C22.7488 14.7454 22.6818 14.7724 22.4675 14.6373C22.4675 14.6373 20.7397 13.5018 20.6862 13.4747C20.646 13.4342 20.5656 13.4882 20.6192 13.6234Z" fill="#327CC8"/>
</svg>
