<svg width="31" height="30" viewBox="0 0 31 30" fill="none" xmlns="http://www.w3.org/2000/svg">
<path d="M3.23865 14.3939C3.86816 15.1374 4.6316 15.7998 5.52898 16.4892C4.87268 15.0834 4.36372 13.3801 4.02888 12.0959C4.77893 10.3791 5.93079 8.67584 7.64518 7.16183C7.8193 8.27031 8.22111 9.33822 8.73007 10.5278C8.82383 8.87861 9.23903 6.99962 9.57388 5.68838C10.8999 4.80971 12.266 4.17437 13.5786 3.70124C13.458 4.8773 13.5384 6.0804 13.6991 7.40516C14.1277 5.9317 14.8644 4.32306 15.4537 3.147C19.3245 2.18723 22.4184 2.57925 22.4184 2.57925L20.3022 6.85092L18.8021 8.28382L23.8516 5.74245C24.0793 6.29668 24.1864 7.93236 23.5167 8.93268C22.6863 10.1763 20.5701 10.0952 19.7933 9.7708C20.1281 10.2439 20.5969 10.5413 21.4943 10.5684C21.4943 10.5684 23.3292 13.1097 23.6373 13.5423C23.9453 13.9749 23.9721 14.2452 24.0123 14.6643C24.0525 15.0834 24.0525 15.6376 24.1328 15.7728C24.2266 15.8944 26.1553 18.3547 26.6642 18.8819C27.1732 19.4091 27.7759 19.9633 27.7491 20.2472C27.7224 20.5311 26.8652 21.7207 26.3428 22.1532C25.8204 22.5858 25.6195 22.5453 25.4052 22.5453C25.1775 22.5453 25.0034 22.4777 24.8695 22.6669C24.7356 22.8562 24.4007 23.3158 24.2534 23.4239C24.106 23.5321 23.8248 23.6537 23.5167 23.4239C23.2087 23.1941 20.4228 21.3286 20.0344 21.2611C19.7933 21.2205 18.4539 21.0448 17.3958 20.8555C16.8199 20.7609 16.1368 20.4365 15.8689 20.2067C15.7484 20.1255 15.6546 20.0174 15.5341 19.9228C15.4269 19.8146 15.3198 19.72 15.226 19.6119C15.1189 19.5037 15.0251 19.3956 14.9314 19.2739C14.5429 18.8143 14.1813 18.3277 13.8465 17.814C13.6723 17.5571 13.5116 17.3003 13.3509 17.0435C13.3509 17.0299 13.3107 16.9759 13.3107 16.9623L13.2973 16.9353L13.2839 16.8948C13.2705 16.8407 13.2438 16.7731 13.2438 16.7055C13.217 16.5703 13.217 16.4216 13.2036 16.2729C13.2036 15.9755 13.217 15.6781 13.2571 15.3672C13.2973 15.0698 13.3375 14.7589 13.3777 14.4615C13.3911 14.4075 13.3509 14.3669 13.3107 14.3669C13.2705 14.3534 13.2304 14.3804 13.217 14.421C13.1634 14.5697 13.1232 14.7184 13.083 14.8671C13.0428 15.0158 13.0027 15.1645 12.9759 15.3267C12.9089 15.6376 12.8553 15.9485 12.8419 16.2729C12.8285 16.4351 12.8285 16.5974 12.8419 16.7731C12.8553 16.8542 12.8687 16.9488 12.8821 17.0299L12.8955 17.0975C12.9089 17.1246 12.9089 17.1516 12.9223 17.1786C12.9491 17.2327 12.9491 17.2462 12.9759 17.3003C13.1232 17.5707 13.2839 17.841 13.4447 18.1114C13.7661 18.6521 14.1143 19.1658 14.5162 19.6659C14.6099 19.7876 14.7171 19.9093 14.8242 20.0309C14.9314 20.1526 15.0385 20.2607 15.1457 20.3824C15.2662 20.4905 15.3734 20.6122 15.5073 20.7068C16.4315 21.4773 17.436 21.8288 18.3735 22.5858C19.4584 23.4645 20.6371 24.4107 21.1862 24.8974C22.3247 25.9247 22.606 26.479 22.9542 27.2495C23.0479 27.4658 23.2489 28.0336 23.4899 28.75C18.1057 27.0332 3.51992 22.9102 3.51992 22.9102C2.98417 21.8558 2.24752 18.2871 3.23865 14.3939ZM20.3692 13.6234C20.4228 13.7451 21.6014 15.7863 21.7354 15.9891C21.8693 16.1918 22.3113 16.7731 22.3917 16.8001C22.472 16.8137 22.3113 16.2729 22.3113 16.2324C22.3113 16.1783 22.3783 15.1239 22.3783 15.1239C22.3783 15.1239 22.5524 15.0698 22.6997 14.9347C22.847 14.7995 23.0479 14.5832 23.0346 14.5426C23.0212 14.5156 22.7399 14.6643 22.6193 14.7049C22.4988 14.7454 22.4318 14.7724 22.2175 14.6373C22.2175 14.6373 20.4897 13.5018 20.4362 13.4747C20.396 13.4342 20.3156 13.4882 20.3692 13.6234Z" fill="#727688"/>
</svg>
