<svg width="16" height="16" viewBox="0 0 16 16" fill="none" xmlns="http://www.w3.org/2000/svg">
<path d="M7.99967 15.1666C4.04767 15.1666 0.833008 11.9519 0.833008 7.99992C0.833008 4.04792 4.04767 0.833252 7.99967 0.833252C11.9517 0.833252 15.1663 4.04792 15.1663 7.99992C15.1663 11.9519 11.9517 15.1666 7.99967 15.1666ZM7.99967 1.83325C4.59901 1.83325 1.83301 4.59925 1.83301 7.99992C1.83301 11.4006 4.59901 14.1666 7.99967 14.1666C11.4003 14.1666 14.1663 11.4006 14.1663 7.99992C14.1663 4.59925 11.4003 1.83325 7.99967 1.83325ZM8.49967 10.9999V7.95256C8.49967 7.67656 8.27567 7.45256 7.99967 7.45256C7.72367 7.45256 7.49967 7.67656 7.49967 7.95256V10.9999C7.49967 11.2759 7.72367 11.4999 7.99967 11.4999C8.27567 11.4999 8.49967 11.2759 8.49967 10.9999ZM8.67969 5.66659C8.67969 5.29859 8.38169 4.99992 8.01302 4.99992H8.00635C7.63835 4.99992 7.34294 5.29859 7.34294 5.66659C7.34294 6.03459 7.64502 6.33325 8.01302 6.33325C8.38102 6.33325 8.67969 6.03459 8.67969 5.66659Z" fill="#727688"/>
</svg>
