<svg width="16" height="16" viewBox="0 0 16 16" fill="none" xmlns="http://www.w3.org/2000/svg">
<path d="M11.1663 6.03874V4.66667C11.1663 2.92 9.74634 1.5 7.99967 1.5C6.25301 1.5 4.83301 2.92 4.83301 4.66667V6.03874C3.83434 6.19407 3.33301 6.846 3.33301 8V12C3.33301 13.3333 3.99967 14 5.33301 14H10.6663C11.9997 14 12.6663 13.3333 12.6663 12V8C12.6663 6.846 12.165 6.19407 11.1663 6.03874ZM8.49967 9.99137V11.3333C8.49967 11.6093 8.27567 11.8333 7.99967 11.8333C7.72367 11.8333 7.49967 11.6093 7.49967 11.3333V9.97461C7.30767 9.82194 7.17627 9.59667 7.17627 9.33333C7.17627 8.87333 7.54635 8.5 8.00635 8.5H8.01302C8.47302 8.5 8.84635 8.87333 8.84635 9.33333C8.84635 9.608 8.70434 9.84004 8.49967 9.99137ZM10.1663 6H5.83301V4.66667C5.83301 3.47333 6.80634 2.5 7.99967 2.5C9.19301 2.5 10.1663 3.47333 10.1663 4.66667V6Z" fill="#727688"/>
</svg>
