<svg width="19" height="19" viewBox="0 0 19 19" fill="none" xmlns="http://www.w3.org/2000/svg">
<path fill-rule="evenodd" clip-rule="evenodd" d="M11.4788 2.375H13.4015L10.461 7.52083L13.8538 13.4583H10.2913L9.83896 12.6667H11.4788L9.49967 9.20313L7.52051 12.6667H9.16039L8.70801 13.4583H5.14551L8.53836 7.52083L5.59789 2.375H7.52051L9.49967 5.83854L11.4788 2.375Z" fill="#AF3838"/>
<path fill-rule="evenodd" clip-rule="evenodd" d="M13.7441 2.17616C13.815 2.2982 13.8155 2.44871 13.7455 2.57123L10.9172 7.52067L14.1978 13.2618C14.2679 13.3843 14.2674 13.5348 14.1965 13.6568C14.1257 13.7789 13.9953 13.854 13.8542 13.854H10.2917C10.1496 13.854 10.0185 13.7779 9.94799 13.6546L9.5 12.8706L9.05201 13.6546C8.98154 13.7779 8.85038 13.854 8.70833 13.854H5.14583C5.00473 13.854 4.8743 13.7789 4.80347 13.6568C4.73265 13.5348 4.73215 13.3843 4.80215 13.2618L8.08279 7.52067L5.25453 2.57123C5.18453 2.44871 5.18503 2.2982 5.25585 2.17616C5.32668 2.05412 5.45711 1.979 5.59821 1.979H7.52083C7.66288 1.979 7.79404 2.05512 7.86451 2.17845L9.5 5.04055L11.1355 2.17845C11.206 2.05512 11.3371 1.979 11.4792 1.979H13.4018C13.5429 1.979 13.6733 2.05412 13.7441 2.17616ZM9.5 5.83838L7.52083 2.37484H5.59821L8.53869 7.52067L5.14583 13.4582H8.70833L9.16071 12.6665H7.52083L9.5 9.20296L11.4792 12.6665H9.83929L10.2917 13.4582H13.8542L10.4613 7.52067L13.4018 2.37484H11.4792L9.5 5.83838ZM10.7971 12.2707L9.5 10.0008L8.20293 12.2707H9.16071C9.2998 12.2707 9.42852 12.3437 9.5 12.4626C9.57148 12.3437 9.7002 12.2707 9.83929 12.2707H10.7971Z" fill="#6F0808"/>
<path fill-rule="evenodd" clip-rule="evenodd" d="M5.54102 1.5835H1.97852L5.40325 7.57679C6.15036 6.86463 7.08287 6.34526 8.121 6.09847L5.54102 1.5835ZM10.8777 6.09847C11.9158 6.34526 12.8483 6.86463 13.5954 7.57679L17.0202 1.5835H13.4577L10.8777 6.09847Z" fill="#D14848"/>
<path fill-rule="evenodd" clip-rule="evenodd" d="M1.63648 1.38465C1.7073 1.26261 1.83774 1.1875 1.97884 1.1875H5.54134C5.68339 1.1875 5.81455 1.26361 5.88502 1.38695L8.46501 5.90192C8.52689 6.01022 8.53411 6.14135 8.48449 6.25578C8.43487 6.37021 8.33422 6.45457 8.21287 6.48341C7.24469 6.71357 6.37439 7.19808 5.67669 7.86314C5.5886 7.94711 5.46677 7.9859 5.34635 7.9683C5.22592 7.9507 5.12028 7.87868 5.0599 7.77301L1.63516 1.77972C1.56515 1.65721 1.56566 1.5067 1.63648 1.38465ZM10.5149 6.25578C10.4652 6.14135 10.4725 6.01022 10.5343 5.90192L13.1143 1.38695C13.1848 1.26361 13.316 1.1875 13.458 1.1875H17.0205C17.1616 1.1875 17.292 1.26261 17.3629 1.38465C17.4337 1.5067 17.4342 1.65721 17.3642 1.77972L13.9394 7.77301C13.8791 7.87868 13.7734 7.9507 13.653 7.9683C13.5326 7.9859 13.4107 7.94712 13.3227 7.86314C12.625 7.19808 11.7547 6.71357 10.7865 6.48341C10.6651 6.45457 10.5645 6.37021 10.5149 6.25578ZM1.97884 1.58333L5.40358 7.57662C5.50119 7.48358 5.60196 7.39383 5.70572 7.30755C6.29429 6.81811 6.97897 6.44028 7.72728 6.20655C7.85678 6.1661 7.98818 6.12996 8.12133 6.09831L5.54134 1.58333H1.97884ZM13.2936 7.30755C13.3974 7.39383 13.4982 7.48358 13.5958 7.57662L17.0205 1.58333H13.458L10.878 6.09831C11.0112 6.12996 11.1426 6.1661 11.2721 6.20655C12.0204 6.44028 12.7051 6.81811 13.2936 7.30755Z" fill="#6F0808"/>
<path fill-rule="evenodd" clip-rule="evenodd" d="M2.47365 1.808C2.5682 1.75315 2.68931 1.78535 2.74415 1.8799L5.61395 6.82782C5.66879 6.92237 5.63659 7.04348 5.54204 7.09832C5.44749 7.15316 5.32638 7.12097 5.27154 7.02641L2.40175 2.0785C2.3469 1.98394 2.3791 1.86284 2.47365 1.808Z" fill="#FF7E7E"/>
<path fill-rule="evenodd" clip-rule="evenodd" d="M13.7543 1.80762C13.849 1.86211 13.8817 1.9831 13.8272 2.07786L11.5512 6.03619C11.4967 6.13095 11.3757 6.16359 11.2809 6.10911C11.1862 6.05462 11.1535 5.93364 11.208 5.83888L13.4841 1.88054C13.5385 1.78579 13.6595 1.75314 13.7543 1.80762Z" fill="#FF7E7E"/>
<path d="M15.0413 11.8752C15.0413 14.9357 12.5603 17.4168 9.49967 17.4168C6.4391 17.4168 3.95801 14.9357 3.95801 11.8752C3.95801 8.81458 6.4391 6.3335 9.49967 6.3335C12.5603 6.3335 15.0413 8.81458 15.0413 11.8752Z" fill="#FFB423"/>
<path fill-rule="evenodd" clip-rule="evenodd" d="M15.4375 11.875C15.4375 15.1542 12.7792 17.8125 9.5 17.8125C6.22081 17.8125 3.5625 15.1542 3.5625 11.875C3.5625 8.59581 6.22081 5.9375 9.5 5.9375C12.7792 5.9375 15.4375 8.59581 15.4375 11.875ZM9.5 17.4167C12.5606 17.4167 15.0417 14.9356 15.0417 11.875C15.0417 8.81442 12.5606 6.33333 9.5 6.33333C6.43942 6.33333 3.95833 8.81442 3.95833 11.875C3.95833 14.9356 6.43942 17.4167 9.5 17.4167Z" fill="#5B3303"/>
<path d="M14.0514 11.8748C14.0514 14.3889 12.0134 16.4269 9.49935 16.4269C6.9853 16.4269 4.94727 14.3889 4.94727 11.8748C4.94727 9.36079 6.9853 7.32275 9.49935 7.32275C12.0134 7.32275 14.0514 9.36079 14.0514 11.8748Z" fill="#FFDD65"/>
<path d="M12.4019 15.4683C12.4333 15.6846 12.2834 15.8855 12.0671 15.9169C11.8508 15.9484 11.6499 15.7985 11.6185 15.5821C11.587 15.3658 11.7369 15.1649 11.9532 15.1335C12.1696 15.1021 12.3704 15.2519 12.4019 15.4683Z" fill="#FBCD2C"/>
<path d="M12.2348 14.3174C12.2643 14.5203 12.1237 14.7088 11.9207 14.7383C11.7177 14.7678 11.5292 14.6272 11.4997 14.4242C11.4702 14.2212 11.6108 14.0327 11.8138 14.0032C12.0168 13.9737 12.2053 14.1144 12.2348 14.3174Z" fill="#FBCD2C"/>
<path d="M13.891 13.1581C13.9146 13.3204 13.8022 13.471 13.6399 13.4946C13.4777 13.5182 13.327 13.4058 13.3034 13.2435C13.2799 13.0812 13.3923 12.9306 13.5545 12.907C13.7168 12.8834 13.8674 12.9958 13.891 13.1581Z" fill="#FBCD2C"/>
<path d="M10.2759 15.9776C10.3074 16.1939 10.1575 16.3948 9.94113 16.4262C9.72479 16.4577 9.52392 16.3078 9.49248 16.0914C9.46104 15.8751 9.61092 15.6742 9.82726 15.6428C10.0436 15.6113 10.2445 15.7612 10.2759 15.9776Z" fill="#FBCD2C"/>
<path d="M13.3072 13.9759C13.3356 14.1711 13.2004 14.3524 13.0051 14.3808C12.8099 14.4091 12.6286 14.2739 12.6002 14.0786C12.5718 13.8834 12.7071 13.7021 12.9023 13.6737C13.0976 13.6453 13.2789 13.7806 13.3072 13.9759Z" fill="#FBCD2C"/>
<path d="M13.0872 12.6643C13.1029 12.7725 13.028 12.8729 12.9198 12.8886C12.8116 12.9044 12.7112 12.8294 12.6955 12.7212C12.6797 12.6131 12.7547 12.5126 12.8629 12.4969C12.971 12.4812 13.0715 12.5561 13.0872 12.6643Z" fill="#FBCD2C"/>
<path d="M10.7122 15.2371C10.7279 15.3452 10.653 15.4457 10.5448 15.4614C10.4366 15.4771 10.3362 15.4022 10.3205 15.294C10.3047 15.1858 10.3797 15.0854 10.4879 15.0697C10.596 15.054 10.6965 15.1289 10.7122 15.2371Z" fill="#FBCD2C"/>
<path d="M13.3245 14.9343C13.3402 15.0425 13.2653 15.1429 13.1571 15.1587C13.0489 15.1744 12.9485 15.0994 12.9328 14.9913C12.917 14.8831 12.992 14.7827 13.1002 14.7669C13.2083 14.7512 13.3088 14.8262 13.3245 14.9343Z" fill="#FBCD2C"/>
<path d="M11.1077 15.8308C11.1234 15.939 11.0485 16.0394 10.9403 16.0551C10.8321 16.0709 10.7317 15.9959 10.716 15.8878C10.7002 15.7796 10.7752 15.6791 10.8834 15.6634C10.9915 15.6477 11.092 15.7227 11.1077 15.8308Z" fill="#FBCD2C"/>
<path d="M8.93288 16.3723C8.9486 16.4805 8.87366 16.5809 8.76549 16.5966C8.65732 16.6124 8.55688 16.5374 8.54116 16.4293C8.52544 16.3211 8.60038 16.2207 8.70855 16.2049C8.81672 16.1892 8.91716 16.2642 8.93288 16.3723Z" fill="#FBCD2C"/>
<path fill-rule="evenodd" clip-rule="evenodd" d="M9.49967 7.32308C6.98563 7.32308 4.94759 9.36112 4.94759 11.8752C4.94759 14.3892 6.98563 16.4272 9.49967 16.4272C12.0137 16.4272 14.0518 14.3892 14.0518 11.8752C14.0518 9.36112 12.0137 7.32308 9.49967 7.32308ZM4.55176 11.8752C4.55176 9.1425 6.76702 6.92725 9.49967 6.92725C12.2323 6.92725 14.4476 9.1425 14.4476 11.8752C14.4476 14.6078 12.2323 16.8231 9.49967 16.8231C6.76702 16.8231 4.55176 14.6078 4.55176 11.8752Z" fill="#DF8D12"/>
<path fill-rule="evenodd" clip-rule="evenodd" d="M9.5 6.92708C6.76734 6.92708 4.55208 9.14234 4.55208 11.875C4.55208 11.9843 4.46347 12.0729 4.35417 12.0729C4.24486 12.0729 4.15625 11.9843 4.15625 11.875C4.15625 8.92373 6.54873 6.53125 9.5 6.53125C9.60931 6.53125 9.69792 6.61986 9.69792 6.72917C9.69792 6.83847 9.60931 6.92708 9.5 6.92708Z" fill="#FFCF72"/>
<path d="M12.8639 11.8748C12.8639 13.733 11.3576 15.2394 9.49935 15.2394C7.64114 15.2394 6.13477 13.733 6.13477 11.8748C6.13477 10.0166 7.64114 8.51025 9.49935 8.51025C11.3576 8.51025 12.8639 10.0166 12.8639 11.8748Z" fill="#FFCF23"/>
<path fill-rule="evenodd" clip-rule="evenodd" d="M13.2601 11.8752C13.2601 13.952 11.5765 15.6356 9.49967 15.6356C7.42285 15.6356 5.73926 13.952 5.73926 11.8752C5.73926 9.79834 7.42285 8.11475 9.49967 8.11475C11.5765 8.11475 13.2601 9.79834 13.2601 11.8752ZM9.49967 15.2397C11.3579 15.2397 12.8643 13.7334 12.8643 11.8752C12.8643 10.017 11.3579 8.51058 9.49967 8.51058C7.64147 8.51058 6.13509 10.017 6.13509 11.8752C6.13509 13.7334 7.64147 15.2397 9.49967 15.2397Z" fill="#DF8D12"/>
<path fill-rule="evenodd" clip-rule="evenodd" d="M9.49935 8.90609C7.85975 8.90609 6.5306 10.2352 6.5306 11.8748C6.5306 11.9841 6.44199 12.0728 6.33268 12.0728C6.22338 12.0728 6.13477 11.9841 6.13477 11.8748C6.13477 10.0166 7.64114 8.51025 9.49935 8.51025C9.60866 8.51025 9.69727 8.59886 9.69727 8.70817C9.69727 8.81748 9.60866 8.90609 9.49935 8.90609Z" fill="#FFF4CD"/>
<path d="M7.52051 11.4002L8.75749 11.1495L9.12858 10.5227L9.49967 9.896L10.2419 11.1495L11.4788 11.4002L10.4893 12.4029L10.7367 13.6564L9.49967 13.0297L8.2627 13.6564L8.51009 12.4029L7.52051 11.4002Z" fill="#FFE9AF"/>
<path fill-rule="evenodd" clip-rule="evenodd" d="M8.75782 11.1493L9.50001 9.89583L10.2422 11.1493L11.4792 11.4L10.4896 12.4028L10.737 13.6562L9.50001 13.0295L8.26303 13.6562L8.51043 12.4028L7.52084 11.4L8.75782 11.1493ZM8.08151 12.5317L7.2391 11.678C7.13702 11.5746 7.09983 11.4235 7.14223 11.2845C7.18462 11.1455 7.29979 11.0409 7.44222 11.0121L8.50683 10.7963L9.1594 9.69416C9.23066 9.57381 9.36015 9.5 9.50001 9.5C9.63987 9.5 9.76936 9.57381 9.84061 9.69416L10.4932 10.7963L11.5578 11.0121C11.7002 11.0409 11.8154 11.1455 11.8578 11.2845C11.9002 11.4235 11.863 11.5746 11.7609 11.678L10.9185 12.5317L11.1253 13.5796C11.1546 13.7281 11.0967 13.8803 10.976 13.9718C10.8554 14.0632 10.6931 14.0778 10.5581 14.0093L9.50001 13.4733L8.44193 14.0093C8.3069 14.0778 8.14466 14.0632 8.024 13.9718C7.90334 13.8803 7.84538 13.7281 7.87469 13.5796L8.08151 12.5317Z" fill="#C37808"/>
<path d="M15.2386 2.37516C15.2386 2.48447 15.15 2.57308 15.0407 2.57308C14.9314 2.57308 14.8428 2.48447 14.8428 2.37516C14.8428 2.26586 14.9314 2.17725 15.0407 2.17725C15.15 2.17725 15.2386 2.26586 15.2386 2.37516Z" fill="#A63434"/>
<path d="M16.0306 2.37516C16.0306 2.48447 15.942 2.57308 15.8327 2.57308C15.7234 2.57308 15.6348 2.48447 15.6348 2.37516C15.6348 2.26586 15.7234 2.17725 15.8327 2.17725C15.942 2.17725 16.0306 2.26586 16.0306 2.37516Z" fill="#A63434"/>
<path d="M15.0413 4.35417C15.0413 4.46347 14.9527 4.55208 14.8434 4.55208C14.7341 4.55208 14.6455 4.46347 14.6455 4.35417C14.6455 4.24486 14.7341 4.15625 14.8434 4.15625C14.9527 4.15625 15.0413 4.24486 15.0413 4.35417Z" fill="#A63434"/>
<path d="M14.2493 5.54167C14.2493 5.65097 14.1607 5.73958 14.0514 5.73958C13.9421 5.73958 13.8535 5.65097 13.8535 5.54167C13.8535 5.43236 13.9421 5.34375 14.0514 5.34375C14.1607 5.34375 14.2493 5.43236 14.2493 5.54167Z" fill="#A63434"/>
<path d="M14.4476 2.96891C14.4476 3.07822 14.359 3.16683 14.2497 3.16683C14.1404 3.16683 14.0518 3.07822 14.0518 2.96891C14.0518 2.85961 14.1404 2.771 14.2497 2.771C14.359 2.771 14.4476 2.85961 14.4476 2.96891Z" fill="#A63434"/>
<path d="M15.2393 3.46387C15.2393 3.62783 15.1063 3.76074 14.9424 3.76074C14.7784 3.76074 14.6455 3.62783 14.6455 3.46387C14.6455 3.29991 14.7784 3.16699 14.9424 3.16699C15.1063 3.16699 15.2393 3.29991 15.2393 3.46387Z" fill="#A63434"/>
<path d="M14.4473 4.45312C14.4473 4.61708 14.3144 4.75 14.1504 4.75C13.9864 4.75 13.8535 4.61708 13.8535 4.45312C13.8535 4.28917 13.9864 4.15625 14.1504 4.15625C14.3144 4.15625 14.4473 4.28917 14.4473 4.45312Z" fill="#A63434"/>
</svg>
