<svg width="31" height="30" viewBox="0 0 31 30" fill="none" xmlns="http://www.w3.org/2000/svg">
<path d="M10.125 22.5125C10.125 23.425 10.4 24.25 10.9125 24.9625C7.56251 24.75 4.5 23.525 4.5 21.2625V20.1625C5.8125 21.1875 7.75 21.875 10.125 22.1V22.5125ZM10.175 17.425C10.1625 17.4375 10.1625 17.45 10.1625 17.4625C10.1375 17.5875 10.125 17.7125 10.125 17.8375V20.225C7.1 19.875 4.5 18.675 4.5 16.5875V15.4875C5.8125 16.525 7.76254 17.2125 10.1625 17.425H10.175ZM15.05 12.85C13.15 13.4375 11.6625 14.4 10.8375 15.6C7.51251 15.3875 4.5 14.1625 4.5 11.9125V11.0625C6.1375 12.35 8.7625 13.1 12 13.1C13.0875 13.1 14.1125 13.0125 15.05 12.85ZM19.5 11.0625V11.9125C19.5 12.025 19.4875 12.125 19.475 12.225C18.4875 12.225 17.55 12.3125 16.675 12.4625C17.8 12.125 18.75 11.65 19.5 11.0625ZM12 3.75C8.25 3.75 4.5 4.99999 4.5 7.48749C4.5 9.99999 8.25 11.225 12 11.225C15.75 11.225 19.5 9.99999 19.5 7.48749C19.5 4.99999 15.75 3.75 12 3.75ZM19.5 23.45C16.3625 23.45 13.6875 22.625 12 21.2875V22.5125C12 25 15.75 26.25 19.5 26.25C23.25 26.25 27 25 27 22.5125V21.2875C25.3125 22.625 22.6375 23.45 19.5 23.45ZM19.5 14.1C15.3625 14.1 12 15.775 12 17.8375C12 19.9 15.3625 21.575 19.5 21.575C23.6375 21.575 27 19.9 27 17.8375C27 15.775 23.6375 14.1 19.5 14.1Z" fill="#327CC8"/>
</svg>
