<svg width="31" height="30" viewBox="0 0 31 30" fill="none" xmlns="http://www.w3.org/2000/svg">
<path opacity="0.4" d="M10.125 22.5125C10.125 23.425 10.4 24.25 10.9125 24.9625C7.56251 24.75 4.5 23.525 4.5 21.2625V20.1625C5.8125 21.1875 7.75 21.875 10.125 22.1V22.5125ZM10.1625 17.425C7.76254 17.2125 5.8125 16.525 4.5 15.4875V16.5876C4.5 18.6751 7.1 19.875 10.125 20.225V17.8376C10.125 17.7126 10.1375 17.5875 10.1625 17.4625C10.1625 17.45 10.1625 17.4375 10.175 17.425H10.1625ZM12 13.1C8.7625 13.1 6.1375 12.35 4.5 11.0625V11.9126C4.5 14.1626 7.51251 15.3875 10.8375 15.6C11.6625 14.4 13.15 13.4376 15.05 12.8501C14.1125 13.0126 13.0875 13.1 12 13.1ZM16.675 12.4625C17.55 12.3125 18.4875 12.2251 19.475 12.2251C19.4875 12.1251 19.5 12.0251 19.5 11.9126V11.0625C18.75 11.65 17.8 12.125 16.675 12.4625Z" fill="#727688"/>
<path d="M12 11.225C16.1421 11.225 19.5 9.55165 19.5 7.48749C19.5 5.42332 16.1421 3.75 12 3.75C7.85786 3.75 4.5 5.42332 4.5 7.48749C4.5 9.55165 7.85786 11.225 12 11.225Z" fill="#727688"/>
<path opacity="0.4" d="M27 21.2876V22.5126C27 25.0001 23.25 26.2501 19.5 26.2501C15.75 26.2501 12 25.0001 12 22.5126V21.2876C13.6875 22.6251 16.3625 23.4501 19.5 23.4501C22.6375 23.4501 25.3125 22.6251 27 21.2876Z" fill="#727688"/>
<path d="M27 17.8376C27 19.9001 23.6375 21.5751 19.5 21.5751C15.3625 21.5751 12 19.9001 12 17.8376C12 15.7751 15.3625 14.1001 19.5 14.1001C23.6375 14.1001 27 15.7751 27 17.8376Z" fill="#727688"/>
</svg>
