<svg width="30" height="30" viewBox="0 0 30 30" fill="none" xmlns="http://www.w3.org/2000/svg">
<path opacity="0.4" d="M9.375 22.5125C9.375 23.425 9.65001 24.25 10.1625 24.9625C6.81251 24.75 3.75 23.525 3.75 21.2625V20.1625C5.0625 21.1875 7 21.875 9.375 22.1V22.5125ZM9.41254 17.425C7.01254 17.2125 5.0625 16.525 3.75 15.4875V16.5876C3.75 18.6751 6.35 19.875 9.375 20.225V17.8376C9.375 17.7126 9.38754 17.5875 9.41254 17.4625C9.41254 17.45 9.41247 17.4375 9.42497 17.425H9.41254ZM11.25 13.1C8.0125 13.1 5.3875 12.35 3.75 11.0625V11.9126C3.75 14.1626 6.76251 15.3875 10.0875 15.6C10.9125 14.4 12.4 13.4376 14.3 12.8501C13.3625 13.0126 12.3375 13.1 11.25 13.1ZM15.925 12.4625C16.8 12.3125 17.7375 12.2251 18.725 12.2251C18.7375 12.1251 18.75 12.0251 18.75 11.9126V11.0625C18 11.65 17.05 12.125 15.925 12.4625Z" fill="#727688"/>
<path d="M11.25 11.225C15.3921 11.225 18.75 9.55165 18.75 7.48749C18.75 5.42332 15.3921 3.75 11.25 3.75C7.10786 3.75 3.75 5.42332 3.75 7.48749C3.75 9.55165 7.10786 11.225 11.25 11.225Z" fill="#727688"/>
<path opacity="0.4" d="M26.25 21.2876V22.5126C26.25 25.0001 22.5 26.2501 18.75 26.2501C15 26.2501 11.25 25.0001 11.25 22.5126V21.2876C12.9375 22.6251 15.6125 23.4501 18.75 23.4501C21.8875 23.4501 24.5625 22.6251 26.25 21.2876Z" fill="#727688"/>
<path d="M26.25 17.8376C26.25 19.9001 22.8875 21.5751 18.75 21.5751C14.6125 21.5751 11.25 19.9001 11.25 17.8376C11.25 15.7751 14.6125 14.1001 18.75 14.1001C22.8875 14.1001 26.25 15.7751 26.25 17.8376Z" fill="#727688"/>
</svg>
