<svg width="24" height="22" viewBox="0 0 24 22" fill="none" xmlns="http://www.w3.org/2000/svg">
<g clip-path="url(#clip0_9744_50483)">
<path fill-rule="evenodd" clip-rule="evenodd" d="M6.87695 19.9152L9.99729 20.7431V19.6605L10.252 19.4058H12.035V20.6793V21.5709H10.1247L7.76846 20.552L6.87695 19.9152Z" fill="#CDBDB2"/>
<path fill-rule="evenodd" clip-rule="evenodd" d="M17.0654 19.9152L14.0088 20.7431V19.6605L13.7541 19.4058H11.9711V20.6793V21.5709H13.8815L16.2375 20.552L17.0654 19.9152Z" fill="#CDBDB2"/>
<path fill-rule="evenodd" clip-rule="evenodd" d="M10.2518 17.5592L9.99707 19.6605L10.3154 19.4058H13.6267L14.0088 19.6605L13.7541 17.5592L13.2447 17.2407L10.6975 17.3045L10.2518 17.5592Z" fill="#393939"/>
<path fill-rule="evenodd" clip-rule="evenodd" d="M8.5332 3.35864L10.0615 6.92468L10.762 17.3045H13.2455L14.0096 6.92468L15.4106 3.35864H8.5332Z" fill="#F89C35"/>
<path fill-rule="evenodd" clip-rule="evenodd" d="M1.8465 11.1911L0.0634766 16.3491L4.52102 16.0944H7.38653V13.8657L7.25917 9.28076L6.62238 9.7902L1.8465 11.1911Z" fill="#F89D35"/>
<path fill-rule="evenodd" clip-rule="evenodd" d="M5.22168 11.7644L10.4434 11.8918L9.87032 14.5663L7.38677 13.9295L5.22168 11.7644Z" fill="#D87C30"/>
<path fill-rule="evenodd" clip-rule="evenodd" d="M5.22168 11.8281L7.38677 13.8659V15.9036L5.22168 11.8281Z" fill="#EA8D3A"/>
<path fill-rule="evenodd" clip-rule="evenodd" d="M7.38672 13.9294L9.93389 14.5662L10.7618 17.3045L10.1886 17.6228L7.38672 15.9672V13.9294Z" fill="#F89D35"/>
<path fill-rule="evenodd" clip-rule="evenodd" d="M7.38639 15.967L6.87695 19.9152L10.252 17.5591L7.38639 15.967Z" fill="#EB8F35"/>
<path fill-rule="evenodd" clip-rule="evenodd" d="M10.4434 11.8916L10.7619 17.3044L9.80664 14.5343L10.4434 11.8916Z" fill="#EA8E3A"/>
<path fill-rule="evenodd" clip-rule="evenodd" d="M4.45703 16.0308L7.38628 15.967L6.87684 19.9152L4.45703 16.0308Z" fill="#D87C30"/>
<path fill-rule="evenodd" clip-rule="evenodd" d="M1.46442 21.6345L6.8771 19.9151L4.45729 16.0308L0.0634766 16.3491L1.46442 21.6345Z" fill="#EB8F35"/>
<path fill-rule="evenodd" clip-rule="evenodd" d="M10.0613 6.9248L7.32315 9.21726L5.22168 11.7644L10.4434 11.9555L10.0613 6.9248Z" fill="#E8821E"/>
<path fill-rule="evenodd" clip-rule="evenodd" d="M6.87695 19.9152L10.252 17.5591L9.99729 19.5968V20.743L7.70484 20.2972L6.87695 19.9152Z" fill="#DFCEC3"/>
<path fill-rule="evenodd" clip-rule="evenodd" d="M17.0654 19.9152L13.7541 17.5591L14.0088 19.5968V20.743L16.3013 20.2972L17.0654 19.9152Z" fill="#DFCEC3"/>
<path fill-rule="evenodd" clip-rule="evenodd" d="M9.04264 13.0378L9.74316 14.5025L7.25962 13.8657L9.04264 13.0378Z" fill="#393939"/>
<path fill-rule="evenodd" clip-rule="evenodd" d="M1.40039 0.365723L10.0608 6.92463L8.5962 3.35859L1.40039 0.365723Z" fill="#E88F35"/>
<path fill-rule="evenodd" clip-rule="evenodd" d="M1.40111 0.365723L0.254883 3.86808L0.891675 7.68884L0.445921 7.94355L1.08271 8.51667L0.573279 8.96242L1.27375 9.59921L0.827996 9.98129L1.84686 11.2549L6.62281 9.79025C8.95771 7.92233 10.1039 6.96714 10.0615 6.92469C10.019 6.88223 7.13224 4.69591 1.40111 0.365723Z" fill="#8E5A30"/>
<path fill-rule="evenodd" clip-rule="evenodd" d="M22.0969 11.1911L23.8799 16.3491L19.4223 16.0944H16.5568V13.8657L16.6842 9.28076L17.321 9.7902L22.0969 11.1911Z" fill="#F89D35"/>
<path fill-rule="evenodd" clip-rule="evenodd" d="M18.7217 11.7644L13.5 11.8918L14.073 14.5663L16.5566 13.9295L18.7217 11.7644Z" fill="#D87C30"/>
<path fill-rule="evenodd" clip-rule="evenodd" d="M18.7217 11.8281L16.5566 13.8659V15.9036L18.7217 11.8281Z" fill="#EA8D3A"/>
<path fill-rule="evenodd" clip-rule="evenodd" d="M16.5566 13.9294L14.0095 14.5662L13.1816 17.3045L13.7548 17.6228L16.5566 15.9672V13.9294Z" fill="#F89D35"/>
<path fill-rule="evenodd" clip-rule="evenodd" d="M16.557 15.967L17.0664 19.9152L13.7551 17.6227L16.557 15.967Z" fill="#EB8F35"/>
<path fill-rule="evenodd" clip-rule="evenodd" d="M13.4999 11.8916L13.1815 17.3044L14.1367 14.5343L13.4999 11.8916Z" fill="#EA8E3A"/>
<path fill-rule="evenodd" clip-rule="evenodd" d="M19.4863 16.0308L16.5571 15.967L17.0665 19.9152L19.4863 16.0308Z" fill="#D87C30"/>
<path fill-rule="evenodd" clip-rule="evenodd" d="M22.4789 21.6345L17.0663 19.9151L19.4861 16.0308L23.8799 16.3491L22.4789 21.6345Z" fill="#EB8F35"/>
<path fill-rule="evenodd" clip-rule="evenodd" d="M13.8821 6.9248L16.6202 9.21726L18.7217 11.7644L13.5 11.9555L13.8821 6.9248Z" fill="#E8821E"/>
<path fill-rule="evenodd" clip-rule="evenodd" d="M14.9007 13.0378L14.2002 14.5025L16.6837 13.8657L14.9007 13.0378Z" fill="#393939"/>
<path fill-rule="evenodd" clip-rule="evenodd" d="M22.543 0.365723L13.8826 6.92463L15.3472 3.35859L22.543 0.365723Z" fill="#E88F35"/>
<path fill-rule="evenodd" clip-rule="evenodd" d="M22.5423 0.365723L23.6885 3.86808L23.0517 7.68884L23.4974 7.94355L22.8606 8.51667L23.3701 8.96242L22.6696 9.59921L23.1154 9.98129L22.0965 11.2549L17.3206 9.79025C14.9856 7.92233 13.8394 6.96714 13.8819 6.92469C13.9243 6.88223 16.8111 4.69591 22.5423 0.365723Z" fill="#8E5A30"/>
</g>
<defs>
<clipPath id="clip0_9744_50483">
<rect width="24" height="21.3962" fill="white" transform="translate(0 0.302002)"/>
</clipPath>
</defs>
</svg>
