<svg width="31" height="30" viewBox="0 0 31 30" fill="none" xmlns="http://www.w3.org/2000/svg">
<path fill-rule="evenodd" clip-rule="evenodd" d="M15.5 2.5C8.59625 2.5 3 8.09625 3 15C3 21.9037 8.59625 27.5 15.5 27.5C22.4037 27.5 28 21.9037 28 15C28 8.09625 22.4037 2.5 15.5 2.5ZM19.9125 19.4125C19.73 19.595 19.49 19.6875 19.25 19.6875C19.01 19.6875 18.77 19.5963 18.5875 19.4125L14.8375 15.6625C14.6612 15.4863 14.5625 15.2475 14.5625 15V8.75C14.5625 8.2325 14.9825 7.8125 15.5 7.8125C16.0175 7.8125 16.4375 8.2325 16.4375 8.75V14.6112L19.9125 18.0862C20.2788 18.4537 20.2788 19.0463 19.9125 19.4125Z" fill="#327CC8"/>
</svg>
