<svg width="24" height="24" viewBox="0 0 24 24" fill="none" xmlns="http://www.w3.org/2000/svg">
<path opacity="0.4" d="M21 5C16 4 14.2221 3.111 12.0181 2C9.77807 3.111 8 4 3 5C3 6.137 3 9.70192 3 10.8889C3 17.5559 8.667 20.889 12 22C15.333 20.889 21 17.5559 21 10.8889C21 9.66392 21 6.194 21 5Z" fill="#727688"/>
<path d="M11.012 14.75C10.82 14.75 10.628 14.6771 10.482 14.5301L8.48196 12.5301C8.18896 12.2371 8.18896 11.762 8.48196 11.469C8.77496 11.176 9.24999 11.176 9.54299 11.469L11.013 12.939L14.4829 9.46902C14.7759 9.17602 15.251 9.17602 15.544 9.46902C15.837 9.76202 15.837 10.2371 15.544 10.5301L11.544 14.5301C11.396 14.6771 11.204 14.75 11.012 14.75Z" fill="#727688"/>
</svg>
