<svg width="27" height="24" viewBox="0 0 27 24" fill="none" xmlns="http://www.w3.org/2000/svg">
<path d="M8.9569 21.7723C8.97674 21.8666 9.00208 21.9595 9.03265 22.05L8.95711 21.9248L8.88068 22.0514C8.91146 21.9604 8.93696 21.8671 8.9569 21.7723ZM9.03255 1.95043C9.00202 2.04089 8.97672 2.13361 8.9569 2.22787C8.93698 2.13312 8.91152 2.03992 8.88078 1.94901L8.95711 2.07543L9.03255 1.95043ZM8.22127 0.970093C7.93198 0.73446 7.5739 0.590898 7.16565 0.590898H2.2393C1.81628 0.590898 1.44713 0.744983 1.15254 0.995902C1.46282 0.679914 1.85049 0.500651 2.23968 0.5H7.16469C7.53497 0.501535 7.91112 0.660148 8.22127 0.970093ZM1.15248 23.0041C1.44709 23.255 1.81625 23.4091 2.2393 23.4091H7.16565C7.5745 23.4091 7.93303 23.2651 8.22255 23.0289C7.91211 23.3397 7.53538 23.4987 7.16462 23.5C7.16443 23.5 7.16425 23.5 7.16406 23.5L2.24001 23.5C1.85068 23.4995 1.46285 23.3202 1.15248 23.0041ZM10.7484 0.590898C10.3401 0.590898 9.98206 0.734402 9.69276 0.969953C10.0028 0.660124 10.3789 0.501535 10.7493 0.5H16.1215C16.4919 0.501535 16.868 0.660126 17.1781 0.969956C16.8888 0.734406 16.5307 0.590898 16.1224 0.590898H10.7484ZM17.9139 2.22787C17.8941 2.13361 17.8688 2.04088 17.8383 1.95042L17.9137 2.07543L17.99 1.94902C17.9593 2.03992 17.9338 2.13312 17.9139 2.22787ZM19.7052 0.590898C19.2969 0.590898 18.9388 0.734463 18.6495 0.970092C18.9597 0.660147 19.3358 0.501535 19.7061 0.5H24.6311C25.0203 0.500651 25.408 0.679914 25.7183 0.995901C25.4237 0.744983 25.0545 0.590898 24.6315 0.590898H19.7052ZM24.6315 23.4091C25.0546 23.4091 25.4237 23.255 25.7183 23.0041C25.408 23.3202 25.0201 23.4995 24.6308 23.5L19.7068 23.5C19.7066 23.5 19.7064 23.5 19.7062 23.5C19.3354 23.4987 18.9587 23.3397 18.6483 23.0289C18.9378 23.2651 19.2963 23.4091 19.7052 23.4091H24.6315ZM17.8382 22.05C17.8687 21.9595 17.8941 21.8666 17.9139 21.7723C17.9338 21.8671 17.9593 21.9604 17.9901 22.0514L17.9137 21.9248L17.8382 22.05ZM10.7494 23.5C10.3785 23.4987 10.0018 23.3397 9.69149 23.029C9.98101 23.2652 10.3395 23.4091 10.7484 23.4091H16.1224C16.5313 23.4091 16.8898 23.2652 17.1793 23.029C16.869 23.3397 16.4923 23.4987 16.1214 23.5C16.1212 23.5 16.121 23.5 16.1209 23.5H10.75C10.7498 23.5 10.7496 23.5 10.7494 23.5Z" fill="#327CC8" stroke="#327CC8"/>
<mask id="path-2-inside-1_26760_28872" fill="white">
<path d="M19.7046 10.3611H21.489C20.4108 12.4797 19.7476 16.066 19.715 16.2428C19.6855 16.4043 19.7179 16.5736 19.803 16.7027C19.8881 16.8318 20.0166 16.9067 20.1525 16.9067H22.8396C23.087 16.9067 23.2875 16.6623 23.2875 16.3611C23.2875 13.2972 24.9866 10.1496 25.0036 10.1179C25.0526 10.0282 25.0789 9.92312 25.0789 9.81575V7.6337C25.0789 7.33258 24.8784 7.08838 24.6309 7.08838H19.7046C19.4573 7.08838 19.2568 7.33258 19.2568 7.6337V9.81575C19.2568 10.1169 19.4573 10.3611 19.7046 10.3611ZM20.1525 8.17928H24.1832V9.65595C23.8509 10.2994 22.5597 12.9673 22.4066 15.8156H20.7218C21.0675 14.1891 21.8229 11.2797 22.7084 10.2013C22.8365 10.0452 22.8748 9.81075 22.8053 9.60701C22.736 9.40326 22.5728 9.27017 22.3918 9.27017H20.1525V8.17928Z"/>
</mask>
<path d="M19.7046 10.3611H21.489C20.4108 12.4797 19.7476 16.066 19.715 16.2428C19.6855 16.4043 19.7179 16.5736 19.803 16.7027C19.8881 16.8318 20.0166 16.9067 20.1525 16.9067H22.8396C23.087 16.9067 23.2875 16.6623 23.2875 16.3611C23.2875 13.2972 24.9866 10.1496 25.0036 10.1179C25.0526 10.0282 25.0789 9.92312 25.0789 9.81575V7.6337C25.0789 7.33258 24.8784 7.08838 24.6309 7.08838H19.7046C19.4573 7.08838 19.2568 7.33258 19.2568 7.6337V9.81575C19.2568 10.1169 19.4573 10.3611 19.7046 10.3611ZM20.1525 8.17928H24.1832V9.65595C23.8509 10.2994 22.5597 12.9673 22.4066 15.8156H20.7218C21.0675 14.1891 21.8229 11.2797 22.7084 10.2013C22.8365 10.0452 22.8748 9.81075 22.8053 9.60701C22.736 9.40326 22.5728 9.27017 22.3918 9.27017H20.1525V8.17928Z" fill="#327CC8"/>
<path d="M21.489 10.3611L22.6773 10.9658L23.6635 9.02774H21.489V10.3611ZM19.715 16.2428L18.4038 16.001L18.4034 16.0031L19.715 16.2428ZM25.0036 10.1179L23.8336 9.47835L23.8287 9.48745L25.0036 10.1179ZM20.1525 8.17928V6.84594H18.8192V8.17928H20.1525ZM24.1832 8.17928H25.5165V6.84594H24.1832V8.17928ZM24.1832 9.65595L25.3678 10.2678L25.5165 9.97993V9.65595H24.1832ZM22.4066 15.8156V17.1489H23.6701L23.738 15.8871L22.4066 15.8156ZM20.7218 15.8156L19.4176 15.5384L19.0754 17.1489H20.7218V15.8156ZM22.8053 9.60701L21.543 10.0363L21.5434 10.0375L22.8053 9.60701ZM20.1525 9.27017H18.8192V10.6035H20.1525V9.27017ZM19.7046 11.6944H21.489V9.02774H19.7046V11.6944ZM20.3006 9.75636C19.1192 12.0781 18.4292 15.8635 18.4038 16.001L21.0263 16.4846C21.0661 16.2685 21.7025 12.8813 22.6773 10.9658L20.3006 9.75636ZM18.4034 16.0031C18.3163 16.4796 18.4031 17.0016 18.6897 17.4364L20.9163 15.969C21.0327 16.1456 21.0547 16.3291 21.0266 16.4825L18.4034 16.0031ZM18.6897 17.4364C18.9824 17.8806 19.5017 18.24 20.1525 18.24V15.5734C20.5315 15.5734 20.7937 15.783 20.9163 15.969L18.6897 17.4364ZM20.1525 18.24H22.8396V15.5734H20.1525V18.24ZM22.8396 18.24C24.0576 18.24 24.6208 17.1403 24.6208 16.3611H21.9542C21.9542 16.2212 21.9999 16.0542 22.1257 15.9009C22.2538 15.7449 22.4994 15.5734 22.8396 15.5734V18.24ZM24.6208 16.3611C24.6208 13.6665 26.1586 10.7853 26.1785 10.7483L23.8287 9.48745C23.8288 9.4873 23.8252 9.49396 23.8202 9.50351C23.8151 9.51295 23.8085 9.52545 23.8004 9.5409C23.7842 9.57179 23.7622 9.61437 23.7352 9.66784C23.6811 9.77471 23.607 9.92532 23.5195 10.1133C23.3448 10.4886 23.1152 11.0168 22.8861 11.6467C22.435 12.8873 21.9542 14.6073 21.9542 16.3611H24.6208ZM26.1736 10.7574C26.3349 10.4622 26.4122 10.1356 26.4122 9.81575H23.7455C23.7455 9.71058 23.7703 9.59423 23.8337 9.47837L26.1736 10.7574ZM26.4122 9.81575V7.6337H23.7455V9.81575H26.4122ZM26.4122 7.6337C26.4122 6.8537 25.8482 5.75505 24.6309 5.75505V8.42171C24.2913 8.42171 24.0456 8.25061 23.9173 8.09436C23.7913 7.94092 23.7455 7.77369 23.7455 7.6337H26.4122ZM24.6309 5.75505H19.7046V8.42171H24.6309V5.75505ZM19.7046 5.75505C18.4871 5.75505 17.9235 6.85413 17.9235 7.6337H20.5902C20.5902 7.77368 20.5444 7.94083 20.4185 8.0942C20.2903 8.25031 20.0447 8.42171 19.7046 8.42171V5.75505ZM17.9235 7.6337V9.81575H20.5902V7.6337H17.9235ZM17.9235 9.81575C17.9235 10.5953 18.4871 11.6944 19.7046 11.6944V9.02774C20.0447 9.02774 20.2903 9.19914 20.4185 9.35525C20.5444 9.50862 20.5902 9.67577 20.5902 9.81575H17.9235ZM20.1525 9.51261H24.1832V6.84594H20.1525V9.51261ZM22.8498 8.17928V9.65595H25.5165V8.17928H22.8498ZM22.9985 9.04411C22.6466 9.72543 21.2441 12.602 21.0752 15.744L23.738 15.8871C23.8753 13.3327 25.0551 10.8734 25.3678 10.2678L22.9985 9.04411ZM22.4066 14.4822H20.7218V17.1489H22.4066V14.4822ZM22.026 16.0927C22.1929 15.3074 22.4574 14.2201 22.7819 13.2112C23.1266 12.1397 23.4748 11.369 23.7388 11.0474L21.6779 9.35519C21.0565 10.112 20.5842 11.3351 20.2434 12.3946C19.8825 13.5166 19.5964 14.6972 19.4176 15.5384L22.026 16.0927ZM23.7388 11.0474C24.1822 10.5074 24.2741 9.78293 24.0673 9.17656L21.5434 10.0375C21.5045 9.92352 21.4981 9.81091 21.515 9.70717C21.5318 9.60446 21.5772 9.47778 21.6779 9.35519L23.7388 11.0474ZM24.0676 9.1777C23.8602 8.5678 23.2739 7.93684 22.3918 7.93684V10.6035C21.8718 10.6035 21.6118 10.2387 21.543 10.0363L24.0676 9.1777ZM22.3918 7.93684H20.1525V10.6035H22.3918V7.93684ZM21.4858 9.27017V8.17928H18.8192V9.27017H21.4858Z" fill="#327CC8" mask="url(#path-2-inside-1_26760_28872)"/>
<mask id="path-4-inside-2_26760_28872" fill="white">
<path d="M11.1958 10.3611H12.9802C11.902 12.4797 11.2388 16.066 11.2062 16.2428C11.1767 16.4043 11.2091 16.5736 11.2942 16.7027C11.3793 16.8318 11.5078 16.9067 11.6437 16.9067H14.3308C14.5782 16.9067 14.7787 16.6623 14.7787 16.3611C14.7787 13.2972 16.4778 10.1496 16.4948 10.1179C16.5438 10.0282 16.5699 9.92312 16.5701 9.81575V7.6337C16.5701 7.33258 16.3696 7.08838 16.1221 7.08838H11.1958C10.9485 7.08838 10.748 7.33258 10.748 7.6337V9.81575C10.748 10.1169 10.9485 10.3611 11.1958 10.3611ZM11.6437 8.17928H15.6744V9.65595C15.3421 10.2994 14.0509 12.9673 13.8978 15.8156H12.2128C12.5587 14.1891 13.3141 11.2797 14.1996 10.2013C14.3277 10.0452 14.3658 9.81075 14.2965 9.60701C14.2272 9.40326 14.0641 9.27017 13.883 9.27017H11.6437V8.17928Z"/>
</mask>
<path d="M11.1958 10.3611H12.9802C11.902 12.4797 11.2388 16.066 11.2062 16.2428C11.1767 16.4043 11.2091 16.5736 11.2942 16.7027C11.3793 16.8318 11.5078 16.9067 11.6437 16.9067H14.3308C14.5782 16.9067 14.7787 16.6623 14.7787 16.3611C14.7787 13.2972 16.4778 10.1496 16.4948 10.1179C16.5438 10.0282 16.5699 9.92312 16.5701 9.81575V7.6337C16.5701 7.33258 16.3696 7.08838 16.1221 7.08838H11.1958C10.9485 7.08838 10.748 7.33258 10.748 7.6337V9.81575C10.748 10.1169 10.9485 10.3611 11.1958 10.3611ZM11.6437 8.17928H15.6744V9.65595C15.3421 10.2994 14.0509 12.9673 13.8978 15.8156H12.2128C12.5587 14.1891 13.3141 11.2797 14.1996 10.2013C14.3277 10.0452 14.3658 9.81075 14.2965 9.60701C14.2272 9.40326 14.0641 9.27017 13.883 9.27017H11.6437V8.17928Z" fill="#327CC8"/>
<path d="M12.9802 10.3611L14.1685 10.9658L15.1547 9.02774H12.9802V10.3611ZM11.2062 16.2428L9.89501 16.001L9.89463 16.0031L11.2062 16.2428ZM11.2942 16.7027L10.1809 17.4364L10.1809 17.4364L11.2942 16.7027ZM16.4948 10.1179L15.3248 9.47835L15.32 9.48745L16.4948 10.1179ZM16.5701 9.81575L17.9034 9.81829V9.81575H16.5701ZM11.6437 8.17928V6.84594H10.3104V8.17928H11.6437ZM15.6744 8.17928H17.0077V6.84594H15.6744V8.17928ZM15.6744 9.65595L16.8591 10.2678L17.0077 9.97993V9.65595H15.6744ZM13.8978 15.8156V17.1489H15.1614L15.2292 15.8871L13.8978 15.8156ZM12.2128 15.8156L10.9087 15.5382L10.5662 17.1489H12.2128V15.8156ZM14.2965 9.60701L13.0342 10.0363L13.0342 10.0363L14.2965 9.60701ZM11.6437 9.27017H10.3104V10.6035H11.6437V9.27017ZM11.1958 11.6944H12.9802V9.02774H11.1958V11.6944ZM11.7919 9.75636C10.6104 12.0781 9.92037 15.8635 9.89501 16.001L12.5175 16.4846C12.5573 16.2685 13.1937 12.8813 14.1685 10.9658L11.7919 9.75636ZM9.89463 16.0031C9.80756 16.4796 9.89431 17.0016 10.1809 17.4364L12.4075 15.969C12.5239 16.1456 12.5459 16.3291 12.5179 16.4825L9.89463 16.0031ZM10.1809 17.4364C10.4736 17.8806 10.9929 18.24 11.6437 18.24V15.5734C12.0227 15.5734 12.2849 15.783 12.4075 15.969L10.1809 17.4364ZM11.6437 18.24H14.3308V15.5734H11.6437V18.24ZM14.3308 18.24C15.5488 18.24 16.112 17.1403 16.112 16.3611H13.4454C13.4454 16.2212 13.4911 16.0542 13.6169 15.9009C13.745 15.7449 13.9906 15.5734 14.3308 15.5734V18.24ZM16.112 16.3611C16.112 13.6665 17.6499 10.7853 17.6697 10.7483L15.32 9.48745C15.32 9.4873 15.3164 9.49396 15.3114 9.50351C15.3063 9.51295 15.2997 9.52545 15.2916 9.5409C15.2755 9.57179 15.2534 9.61437 15.2264 9.66784C15.1723 9.77471 15.0982 9.92532 15.0107 10.1133C14.836 10.4886 14.6064 11.0168 14.3773 11.6467C13.9262 12.8873 13.4454 14.6073 13.4454 16.3611H16.112ZM17.6648 10.7574C17.8269 10.4608 17.9028 10.1346 17.9034 9.81829L15.2367 9.8132C15.2369 9.71159 15.2607 9.59572 15.3249 9.47837L17.6648 10.7574ZM17.9034 9.81575V7.6337H15.2367V9.81575H17.9034ZM17.9034 7.6337C17.9034 6.8537 17.3394 5.75505 16.1221 5.75505V8.42171C15.7825 8.42171 15.5369 8.25061 15.4085 8.09436C15.2825 7.94092 15.2367 7.77369 15.2367 7.6337H17.9034ZM16.1221 5.75505H11.1958V8.42171H16.1221V5.75505ZM11.1958 5.75505C9.97834 5.75505 9.41471 6.85413 9.41471 7.6337H12.0814C12.0814 7.77368 12.0356 7.94083 11.9097 8.0942C11.7815 8.25031 11.5359 8.42171 11.1958 8.42171V5.75505ZM9.41471 7.6337V9.81575H12.0814V7.6337H9.41471ZM9.41471 9.81575C9.41471 10.5953 9.97834 11.6944 11.1958 11.6944V9.02774C11.5359 9.02774 11.7815 9.19914 11.9097 9.35525C12.0356 9.50862 12.0814 9.67577 12.0814 9.81575H9.41471ZM11.6437 9.51261H15.6744V6.84594H11.6437V9.51261ZM14.3411 8.17928V9.65595H17.0077V8.17928H14.3411ZM14.4897 9.04411C14.1378 9.72543 12.7353 12.602 12.5664 15.744L15.2292 15.8871C15.3665 13.3327 16.5463 10.8734 16.8591 10.2678L14.4897 9.04411ZM13.8978 14.4822H12.2128V17.1489H13.8978V14.4822ZM13.517 16.0929C13.684 15.3075 13.9485 14.2202 14.2731 13.2112C14.6178 12.1397 14.966 11.369 15.2301 11.0474L13.1691 9.35519C12.5477 10.1119 12.0754 11.3351 11.7346 12.3945C11.3736 13.5165 11.0875 14.6972 10.9087 15.5382L13.517 16.0929ZM15.2301 11.0474C15.674 10.5067 15.7645 9.78242 15.5589 9.1777L13.0342 10.0363C12.9957 9.92306 12.9892 9.811 13.0061 9.70749C13.0228 9.60498 13.0682 9.47809 13.1691 9.35519L15.2301 11.0474ZM15.5589 9.1777C15.3514 8.5678 14.7651 7.93684 13.883 7.93684V10.6035C13.363 10.6035 13.103 10.2387 13.0342 10.0363L15.5589 9.1777ZM13.883 7.93684H11.6437V10.6035H13.883V7.93684ZM12.9771 9.27017V8.17928H10.3104V9.27017H12.9771Z" fill="#327CC8" mask="url(#path-4-inside-2_26760_28872)"/>
<mask id="path-6-inside-3_26760_28872" fill="white">
<path d="M2.23896 10.3611H4.02314C2.94521 12.4797 2.28365 16.066 2.24921 16.2428C2.21969 16.4043 2.25208 16.5736 2.33716 16.7027C2.42224 16.8318 2.55078 16.9067 2.6867 16.9067H5.37374C5.62118 16.9067 5.82168 16.6623 5.82168 16.3611C5.82168 13.2972 7.52078 10.1496 7.5378 10.1179C7.5868 10.0282 7.61304 9.92312 7.61304 9.81575V7.6337C7.61304 7.33258 7.41254 7.08838 7.1653 7.08838H2.23896C1.99151 7.08838 1.79102 7.33258 1.79102 7.6337V9.81575C1.79102 10.1169 1.99151 10.3611 2.23896 10.3611ZM2.6867 8.17928H6.71736V9.65595C6.38504 10.2994 5.0939 12.9673 4.94076 15.8156H3.256C3.60165 14.1891 4.35731 11.2797 5.24253 10.2013C5.37066 10.0452 5.409 9.81075 5.3397 9.60701C5.27041 9.40326 5.10702 9.27017 4.926 9.27017H2.6867V8.17928Z"/>
</mask>
<path d="M2.23896 10.3611H4.02314C2.94521 12.4797 2.28365 16.066 2.24921 16.2428C2.21969 16.4043 2.25208 16.5736 2.33716 16.7027C2.42224 16.8318 2.55078 16.9067 2.6867 16.9067H5.37374C5.62118 16.9067 5.82168 16.6623 5.82168 16.3611C5.82168 13.2972 7.52078 10.1496 7.5378 10.1179C7.5868 10.0282 7.61304 9.92312 7.61304 9.81575V7.6337C7.61304 7.33258 7.41254 7.08838 7.1653 7.08838H2.23896C1.99151 7.08838 1.79102 7.33258 1.79102 7.6337V9.81575C1.79102 10.1169 1.99151 10.3611 2.23896 10.3611ZM2.6867 8.17928H6.71736V9.65595C6.38504 10.2994 5.0939 12.9673 4.94076 15.8156H3.256C3.60165 14.1891 4.35731 11.2797 5.24253 10.2013C5.37066 10.0452 5.409 9.81075 5.3397 9.60701C5.27041 9.40326 5.10702 9.27017 4.926 9.27017H2.6867V8.17928Z" fill="#327CC8"/>
<path d="M4.02314 10.3611L5.21151 10.9657L6.19752 9.02774H4.02314V10.3611ZM2.24921 16.2428L0.940482 15.9878L0.938994 15.9954L0.937595 16.0031L2.24921 16.2428ZM2.33716 16.7027L1.22386 17.4364L1.22386 17.4364L2.33716 16.7027ZM7.5378 10.1179L6.3678 9.47835L6.36292 9.48745L7.5378 10.1179ZM2.6867 8.17928V6.84594H1.35336V8.17928H2.6867ZM6.71736 8.17928H8.05069V6.84594H6.71736V8.17928ZM6.71736 9.65595L7.90203 10.2678L8.05069 9.97993V9.65595H6.71736ZM4.94076 15.8156V17.1489H6.20433L6.27217 15.8871L4.94076 15.8156ZM3.256 15.8156L1.95179 15.5384L1.60955 17.1489H3.256V15.8156ZM5.24253 10.2013L4.21204 9.35519L4.21194 9.3553L5.24253 10.2013ZM2.6867 9.27017H1.35336V10.6035H2.6867V9.27017ZM2.23896 11.6944H4.02314V9.02774H2.23896V11.6944ZM2.83478 9.75645C1.6543 12.0766 0.963465 15.8698 0.940482 15.9878L3.55794 16.4978C3.60384 16.2622 4.23612 12.8828 5.21151 10.9657L2.83478 9.75645ZM0.937595 16.0031C0.850527 16.4796 0.937282 17.0016 1.22386 17.4364L3.45045 15.969C3.56688 16.1456 3.58885 16.3291 3.56082 16.4825L0.937595 16.0031ZM1.22386 17.4364C1.51659 17.8806 2.03586 18.24 2.6867 18.24V15.5734C3.06569 15.5734 3.32788 15.783 3.45045 15.969L1.22386 17.4364ZM2.6867 18.24H5.37374V15.5734H2.6867V18.24ZM5.37374 18.24C6.59174 18.24 7.15501 17.1403 7.15501 16.3611H4.48835C4.48835 16.2212 4.53407 16.0542 4.65987 15.9009C4.78796 15.7449 5.03358 15.5734 5.37374 15.5734V18.24ZM7.15501 16.3611C7.15501 13.6665 8.69283 10.7853 8.71268 10.7483L6.36292 9.48745C6.363 9.4873 6.35942 9.49396 6.35433 9.50351C6.34931 9.51295 6.3427 9.52545 6.3346 9.5409C6.31842 9.57179 6.29639 9.61437 6.26935 9.66784C6.2153 9.77471 6.14113 9.92532 6.05364 10.1133C5.87901 10.4886 5.64939 11.0168 5.42032 11.6467C4.96914 12.8873 4.48835 14.6073 4.48835 16.3611H7.15501ZM8.70776 10.7574C8.86909 10.4622 8.94637 10.1356 8.94637 9.81575H6.27971C6.27971 9.71058 6.30451 9.59423 6.36784 9.47837L8.70776 10.7574ZM8.94637 9.81575V7.6337H6.27971V9.81575H8.94637ZM8.94637 7.6337C8.94637 6.85413 8.38275 5.75505 7.1653 5.75505V8.42171C6.82521 8.42171 6.57956 8.25031 6.45139 8.0942C6.32547 7.94083 6.27971 7.77368 6.27971 7.6337H8.94637ZM7.1653 5.75505H2.23896V8.42171H7.1653V5.75505ZM2.23896 5.75505C1.02166 5.75505 0.457682 6.8537 0.457682 7.6337H3.12435C3.12435 7.77369 3.07858 7.94092 2.95256 8.09436C2.82423 8.25061 2.57862 8.42171 2.23896 8.42171V5.75505ZM0.457682 7.6337V9.81575H3.12435V7.6337H0.457682ZM0.457682 9.81575C0.457682 10.5958 1.02166 11.6944 2.23896 11.6944V9.02774C2.57862 9.02774 2.82423 9.19884 2.95256 9.35509C3.07858 9.50853 3.12435 9.67576 3.12435 9.81575H0.457682ZM2.6867 9.51261H6.71736V6.84594H2.6867V9.51261ZM5.38403 8.17928V9.65595H8.05069V8.17928H5.38403ZM5.53269 9.04411C5.18082 9.72543 3.77829 12.602 3.60935 15.744L6.27217 15.8871C6.40951 13.3327 7.58927 10.8734 7.90203 10.2678L5.53269 9.04411ZM4.94076 14.4822H3.256V17.1489H4.94076V14.4822ZM4.56021 16.0927C4.72709 15.3074 4.9916 14.2202 5.31619 13.2112C5.66089 12.1398 6.00904 11.3689 6.27312 11.0472L4.21194 9.3553C3.59079 10.112 3.1185 11.3351 2.77766 12.3945C2.4167 13.5165 2.13056 14.6972 1.95179 15.5384L4.56021 16.0927ZM6.27302 11.0474C6.71632 10.5074 6.80802 9.78337 6.60203 9.1777L4.07738 10.0363C4.03872 9.92265 4.03237 9.81035 4.04929 9.70686C4.06605 9.60438 4.11138 9.47778 4.21204 9.35519L6.27302 11.0474ZM6.60203 9.1777C6.39435 8.56702 5.80737 7.93684 4.926 7.93684V10.6035C4.40667 10.6035 4.14648 10.2395 4.07738 10.0363L6.60203 9.1777ZM4.926 7.93684H2.6867V10.6035H4.926V7.93684ZM4.02003 9.27017V8.17928H1.35336V9.27017H4.02003Z" fill="#327CC8" mask="url(#path-6-inside-3_26760_28872)"/>
<mask id="path-8-inside-4_26760_28872" fill="white">
<path d="M2.23896 3.27303H2.6867C2.93414 3.27303 3.13464 3.02883 3.13464 2.7277C3.13464 2.42633 2.93414 2.18213 2.6867 2.18213H2.23896C1.99151 2.18213 1.79102 2.42633 1.79102 2.7277C1.79102 3.02883 1.99151 3.27303 2.23896 3.27303Z"/>
</mask>
<path d="M2.23896 3.27303H2.6867C2.93414 3.27303 3.13464 3.02883 3.13464 2.7277C3.13464 2.42633 2.93414 2.18213 2.6867 2.18213H2.23896C1.99151 2.18213 1.79102 2.42633 1.79102 2.7277C1.79102 3.02883 1.99151 3.27303 2.23896 3.27303Z" fill="#327CC8"/>
<path d="M2.23896 4.60636H2.6867V1.93969H2.23896V4.60636ZM2.6867 4.60636C3.904 4.60636 4.46797 3.50771 4.46797 2.7277H1.8013C1.8013 2.58772 1.84707 2.42049 1.9731 2.26704C2.10142 2.11079 2.34704 1.93969 2.6867 1.93969V4.60636ZM4.46797 2.7277C4.46797 1.94788 3.90435 0.848796 2.6867 0.848796V3.51546C2.347 3.51546 2.10133 3.34432 1.97297 3.18798C1.84692 3.03447 1.8013 2.86732 1.8013 2.7277H4.46797ZM2.6867 0.848796H2.23896V3.51546H2.6867V0.848796ZM2.23896 0.848796C1.02131 0.848796 0.457682 1.94788 0.457682 2.7277H3.12435C3.12435 2.86732 3.07873 3.03447 2.95269 3.18798C2.82433 3.34432 2.57866 3.51546 2.23896 3.51546V0.848796ZM0.457682 2.7277C0.457682 3.50771 1.02166 4.60636 2.23896 4.60636V1.93969C2.57862 1.93969 2.82423 2.11079 2.95256 2.26704C3.07858 2.42049 3.12435 2.58772 3.12435 2.7277H0.457682Z" fill="#327CC8" mask="url(#path-8-inside-4_26760_28872)"/>
<mask id="path-10-inside-5_26760_28872" fill="white">
<path d="M4.47801 3.27303H6.71731C6.96455 3.27303 7.16526 3.02883 7.16526 2.7277C7.16526 2.42633 6.96455 2.18213 6.71731 2.18213H4.47801C4.23077 2.18213 4.03027 2.42633 4.03027 2.7277C4.03027 3.02883 4.23077 3.27303 4.47801 3.27303Z"/>
</mask>
<path d="M4.47801 3.27303H6.71731C6.96455 3.27303 7.16526 3.02883 7.16526 2.7277C7.16526 2.42633 6.96455 2.18213 6.71731 2.18213H4.47801C4.23077 2.18213 4.03027 2.42633 4.03027 2.7277C4.03027 3.02883 4.23077 3.27303 4.47801 3.27303Z" fill="#327CC8"/>
<path d="M4.47801 4.60636H6.71731V1.93969H4.47801V4.60636ZM6.71731 4.60636C7.93406 4.60636 8.49859 3.50813 8.49859 2.7277H5.83192C5.83192 2.58737 5.87785 2.42015 6.00377 2.26688C6.13186 2.11097 6.37735 1.93969 6.71731 1.93969V4.60636ZM8.49859 2.7277C8.49859 1.94745 7.93441 0.848796 6.71731 0.848796V3.51546C6.37731 3.51546 6.13177 3.34415 6.00364 3.18814C5.8777 3.03481 5.83192 2.86766 5.83192 2.7277H8.49859ZM6.71731 0.848796H4.47801V3.51546H6.71731V0.848796ZM4.47801 0.848796C3.26022 0.848796 2.69694 1.9483 2.69694 2.7277H5.36361C5.36361 2.86731 5.318 3.03438 5.19205 3.18783C5.06385 3.34402 4.81814 3.51546 4.47801 3.51546V0.848796ZM2.69694 2.7277C2.69694 3.50728 3.26057 4.60636 4.47801 4.60636V1.93969C4.81811 1.93969 5.06375 2.1111 5.19192 2.2672C5.31785 2.42057 5.36361 2.58772 5.36361 2.7277H2.69694Z" fill="#327CC8" mask="url(#path-10-inside-5_26760_28872)"/>
<mask id="path-12-inside-6_26760_28872" fill="white">
<path d="M11.1958 3.27303H11.6437C11.891 3.27303 12.0915 3.02883 12.0915 2.7277C12.0915 2.42633 11.891 2.18213 11.6437 2.18213H11.1958C10.9485 2.18213 10.748 2.42633 10.748 2.7277C10.748 3.02883 10.9485 3.27303 11.1958 3.27303Z"/>
</mask>
<path d="M11.1958 3.27303H11.6437C11.891 3.27303 12.0915 3.02883 12.0915 2.7277C12.0915 2.42633 11.891 2.18213 11.6437 2.18213H11.1958C10.9485 2.18213 10.748 2.42633 10.748 2.7277C10.748 3.02883 10.9485 3.27303 11.1958 3.27303Z" fill="#327CC8"/>
<path d="M11.1958 4.60636H11.6437V1.93969H11.1958V4.60636ZM11.6437 4.60636C12.8612 4.60636 13.4248 3.50728 13.4248 2.7277H10.7581C10.7581 2.58772 10.8039 2.42057 10.9298 2.2672C11.058 2.1111 11.3036 1.93969 11.6437 1.93969V4.60636ZM13.4248 2.7277C13.4248 1.9483 12.8615 0.848796 11.6437 0.848796V3.51546C11.3036 3.51546 11.0579 3.34402 10.9297 3.18783C10.8037 3.03438 10.7581 2.86731 10.7581 2.7277H13.4248ZM11.6437 0.848796H11.1958V3.51546H11.6437V0.848796ZM11.1958 0.848796C9.97799 0.848796 9.41471 1.9483 9.41471 2.7277H12.0814C12.0814 2.86731 12.0358 3.03438 11.9098 3.18783C11.7816 3.34402 11.5359 3.51546 11.1958 3.51546V0.848796ZM9.41471 2.7277C9.41471 3.50728 9.97834 4.60636 11.1958 4.60636V1.93969C11.5359 1.93969 11.7815 2.1111 11.9097 2.2672C12.0356 2.42057 12.0814 2.58772 12.0814 2.7277H9.41471Z" fill="#327CC8" mask="url(#path-12-inside-6_26760_28872)"/>
<mask id="path-14-inside-7_26760_28872" fill="white">
<path d="M13.4362 3.27303H15.6755C15.9228 3.27303 16.1233 3.02883 16.1233 2.7277C16.1233 2.42633 15.9228 2.18213 15.6755 2.18213H13.4362C13.189 2.18213 12.9883 2.42633 12.9883 2.7277C12.9883 3.02883 13.189 3.27303 13.4362 3.27303Z"/>
</mask>
<path d="M13.4362 3.27303H15.6755C15.9228 3.27303 16.1233 3.02883 16.1233 2.7277C16.1233 2.42633 15.9228 2.18213 15.6755 2.18213H13.4362C13.189 2.18213 12.9883 2.42633 12.9883 2.7277C12.9883 3.02883 13.189 3.27303 13.4362 3.27303Z" fill="#327CC8"/>
<path d="M13.4362 4.60636H15.6755V1.93969H13.4362V4.60636ZM15.6755 4.60636C16.893 4.60636 17.4566 3.50728 17.4566 2.7277H14.7899C14.7899 2.58772 14.8357 2.42057 14.9616 2.2672C15.0898 2.1111 15.3354 1.93969 15.6755 1.93969V4.60636ZM17.4566 2.7277C17.4566 1.9483 16.8933 0.848796 15.6755 0.848796V3.51546C15.3354 3.51546 15.0897 3.34402 14.9615 3.18783C14.8355 3.03438 14.7899 2.86731 14.7899 2.7277H17.4566ZM15.6755 0.848796H13.4362V3.51546H15.6755V0.848796ZM13.4362 0.848796C12.2191 0.848796 11.6549 1.94745 11.6549 2.7277H14.3216C14.3216 2.86766 14.2758 3.03481 14.1499 3.18814C14.0218 3.34415 13.7762 3.51546 13.4362 3.51546V0.848796ZM11.6549 2.7277C11.6549 3.50813 12.2195 4.60636 13.4362 4.60636V1.93969C13.7762 1.93969 14.0217 2.11097 14.1498 2.26688C14.2757 2.42015 14.3216 2.58737 14.3216 2.7277H11.6549Z" fill="#327CC8" mask="url(#path-14-inside-7_26760_28872)"/>
<mask id="path-16-inside-8_26760_28872" fill="white">
<path d="M19.7046 3.27303H20.1525C20.3998 3.27303 20.6005 3.02883 20.6005 2.7277C20.6005 2.42633 20.3998 2.18213 20.1525 2.18213H19.7046C19.4573 2.18213 19.2568 2.42633 19.2568 2.7277C19.2568 3.02883 19.4573 3.27303 19.7046 3.27303Z"/>
</mask>
<path d="M19.7046 3.27303H20.1525C20.3998 3.27303 20.6005 3.02883 20.6005 2.7277C20.6005 2.42633 20.3998 2.18213 20.1525 2.18213H19.7046C19.4573 2.18213 19.2568 2.42633 19.2568 2.7277C19.2568 3.02883 19.4573 3.27303 19.7046 3.27303Z" fill="#327CC8"/>
<path d="M19.7046 4.60636H20.1525V1.93969H19.7046V4.60636ZM20.1525 4.60636C21.3693 4.60636 21.9338 3.50813 21.9338 2.7277H19.2671C19.2671 2.58737 19.3131 2.42015 19.439 2.26688C19.5671 2.11097 19.8126 1.93969 20.1525 1.93969V4.60636ZM21.9338 2.7277C21.9338 1.94745 21.3696 0.848796 20.1525 0.848796V3.51546C19.8125 3.51546 19.567 3.34415 19.4388 3.18814C19.3129 3.03481 19.2671 2.86766 19.2671 2.7277H21.9338ZM20.1525 0.848796H19.7046V3.51546H20.1525V0.848796ZM19.7046 0.848796C18.4868 0.848796 17.9235 1.9483 17.9235 2.7277H20.5902C20.5902 2.86731 20.5446 3.03438 20.4186 3.18783C20.2904 3.34402 20.0447 3.51546 19.7046 3.51546V0.848796ZM17.9235 2.7277C17.9235 3.50728 18.4871 4.60636 19.7046 4.60636V1.93969C20.0447 1.93969 20.2903 2.1111 20.4185 2.2672C20.5444 2.42057 20.5902 2.58772 20.5902 2.7277H17.9235Z" fill="#327CC8" mask="url(#path-16-inside-8_26760_28872)"/>
<mask id="path-18-inside-9_26760_28872" fill="white">
<path d="M21.9448 3.27303H24.1841C24.4313 3.27303 24.6318 3.02883 24.6318 2.7277C24.6318 2.42633 24.4313 2.18213 24.1841 2.18213H21.9448C21.6976 2.18213 21.4971 2.42633 21.4971 2.7277C21.4971 3.02883 21.6976 3.27303 21.9448 3.27303Z"/>
</mask>
<path d="M21.9448 3.27303H24.1841C24.4313 3.27303 24.6318 3.02883 24.6318 2.7277C24.6318 2.42633 24.4313 2.18213 24.1841 2.18213H21.9448C21.6976 2.18213 21.4971 2.42633 21.4971 2.7277C21.4971 3.02883 21.6976 3.27303 21.9448 3.27303Z" fill="#327CC8"/>
<path d="M21.9448 4.60636H24.1841V1.93969H21.9448V4.60636ZM24.1841 4.60636C25.4016 4.60636 25.9652 3.50728 25.9652 2.7277H23.2985C23.2985 2.58772 23.3443 2.42057 23.4702 2.2672C23.5984 2.1111 23.844 1.93969 24.1841 1.93969V4.60636ZM25.9652 2.7277C25.9652 1.9483 25.4019 0.848796 24.1841 0.848796V3.51546C23.844 3.51546 23.5983 3.34402 23.4701 3.18783C23.3441 3.03438 23.2985 2.86731 23.2985 2.7277H25.9652ZM24.1841 0.848796H21.9448V3.51546H24.1841V0.848796ZM21.9448 0.848796C20.727 0.848796 20.1637 1.9483 20.1637 2.7277H22.8304C22.8304 2.86731 22.7848 3.03438 22.6588 3.18783C22.5306 3.34402 22.2849 3.51546 21.9448 3.51546V0.848796ZM20.1637 2.7277C20.1637 3.50728 20.7274 4.60636 21.9448 4.60636V1.93969C22.2849 1.93969 22.5305 2.1111 22.6587 2.2672C22.7846 2.42057 22.8304 2.58772 22.8304 2.7277H20.1637Z" fill="#327CC8" mask="url(#path-18-inside-9_26760_28872)"/>
<mask id="path-20-inside-10_26760_28872" fill="white">
<path d="M24.1838 20.729H23.7358C23.4886 20.729 23.2881 20.9732 23.2881 21.2746C23.2881 21.5757 23.4886 21.8199 23.7358 21.8199H24.1838C24.431 21.8199 24.6315 21.5757 24.6315 21.2746C24.6315 20.9732 24.431 20.729 24.1838 20.729Z"/>
</mask>
<path d="M24.1838 20.729H23.7358C23.4886 20.729 23.2881 20.9732 23.2881 21.2746C23.2881 21.5757 23.4886 21.8199 23.7358 21.8199H24.1838C24.431 21.8199 24.6315 21.5757 24.6315 21.2746C24.6315 20.9732 24.431 20.729 24.1838 20.729Z" fill="#327CC8"/>
<path d="M24.1838 19.3957H23.7358V22.0623H24.1838V19.3957ZM23.7358 19.3957C22.518 19.3957 21.9548 20.4952 21.9548 21.2746H24.6214C24.6214 21.4142 24.5758 21.5813 24.4499 21.7347C24.3217 21.8909 24.076 22.0623 23.7358 22.0623V19.3957ZM21.9548 21.2746C21.9548 22.0542 22.5184 23.1532 23.7358 23.1532V20.4866C24.0759 20.4866 24.3216 20.658 24.4497 20.8141C24.5757 20.9674 24.6214 21.1346 24.6214 21.2746H21.9548ZM23.7358 23.1532H24.1838V20.4866H23.7358V23.1532ZM24.1838 23.1532C25.4012 23.1532 25.9648 22.0542 25.9648 21.2746H23.2982C23.2982 21.1346 23.3439 20.9674 23.4699 20.8141C23.598 20.658 23.8437 20.4866 24.1838 20.4866V23.1532ZM25.9648 21.2746C25.9648 20.4952 25.4016 19.3957 24.1838 19.3957V22.0623C23.8436 22.0623 23.5979 21.8909 23.4697 21.7347C23.3438 21.5813 23.2982 21.4142 23.2982 21.2746H25.9648Z" fill="#327CC8" mask="url(#path-20-inside-10_26760_28872)"/>
<mask id="path-22-inside-11_26760_28872" fill="white">
<path d="M19.7046 21.8199H21.9439C22.1913 21.8199 22.3918 21.5757 22.3918 21.2746C22.3918 20.9732 22.1913 20.729 21.9439 20.729H19.7046C19.4573 20.729 19.2568 20.9732 19.2568 21.2746C19.2568 21.5757 19.4573 21.8199 19.7046 21.8199Z"/>
</mask>
<path d="M19.7046 21.8199H21.9439C22.1913 21.8199 22.3918 21.5757 22.3918 21.2746C22.3918 20.9732 22.1913 20.729 21.9439 20.729H19.7046C19.4573 20.729 19.2568 20.9732 19.2568 21.2746C19.2568 21.5757 19.4573 21.8199 19.7046 21.8199Z" fill="#327CC8"/>
<path d="M19.7046 23.1532H21.9439V20.4866H19.7046V23.1532ZM21.9439 23.1532C23.1612 23.1532 23.7252 22.0546 23.7252 21.2746H21.0585C21.0585 21.1346 21.1043 20.9674 21.2303 20.8139C21.3586 20.6577 21.6042 20.4866 21.9439 20.4866V23.1532ZM23.7252 21.2746C23.7252 20.4948 23.1615 19.3957 21.9439 19.3957V22.0623C21.6042 22.0623 21.3585 21.8912 21.2301 21.7349C21.1041 21.5813 21.0585 21.4142 21.0585 21.2746H23.7252ZM21.9439 19.3957H19.7046V22.0623H21.9439V19.3957ZM19.7046 19.3957C18.4868 19.3957 17.9235 20.4952 17.9235 21.2746H20.5902C20.5902 21.4142 20.5446 21.5813 20.4186 21.7347C20.2904 21.8909 20.0447 22.0623 19.7046 22.0623V19.3957ZM17.9235 21.2746C17.9235 22.0542 18.4871 23.1532 19.7046 23.1532V20.4866C20.0447 20.4866 20.2903 20.658 20.4185 20.8141C20.5444 20.9674 20.5902 21.1346 20.5902 21.2746H17.9235Z" fill="#327CC8" mask="url(#path-22-inside-11_26760_28872)"/>
<mask id="path-24-inside-12_26760_28872" fill="white">
<path d="M15.2277 20.729H14.78C14.5325 20.729 14.332 20.9732 14.332 21.2746C14.332 21.5757 14.5325 21.8199 14.78 21.8199H15.2277C15.4752 21.8199 15.6757 21.5757 15.6757 21.2746C15.6757 20.9732 15.4752 20.729 15.2277 20.729Z"/>
</mask>
<path d="M15.2277 20.729H14.78C14.5325 20.729 14.332 20.9732 14.332 21.2746C14.332 21.5757 14.5325 21.8199 14.78 21.8199H15.2277C15.4752 21.8199 15.6757 21.5757 15.6757 21.2746C15.6757 20.9732 15.4752 20.729 15.2277 20.729Z" fill="#327CC8"/>
<path d="M15.2277 19.3957H14.78V22.0623H15.2277V19.3957ZM14.78 19.3957C13.5623 19.3957 12.9987 20.4948 12.9987 21.2746H15.6654C15.6654 21.4142 15.6197 21.5813 15.4937 21.7349C15.3653 21.8912 15.1197 22.0623 14.78 22.0623V19.3957ZM12.9987 21.2746C12.9987 22.0546 13.5627 23.1532 14.78 23.1532V20.4866C15.1196 20.4866 15.3652 20.6577 15.4936 20.8139C15.6196 20.9674 15.6654 21.1346 15.6654 21.2746H12.9987ZM14.78 23.1532H15.2277V20.4866H14.78V23.1532ZM15.2277 23.1532C16.445 23.1532 17.009 22.0546 17.009 21.2746H14.3423C14.3423 21.1346 14.3881 20.9674 14.5141 20.8139C14.6424 20.6577 14.8881 20.4866 15.2277 20.4866V23.1532ZM17.009 21.2746C17.009 20.4948 16.4454 19.3957 15.2277 19.3957V22.0623C14.888 22.0623 14.6423 21.8912 14.514 21.7349C14.3879 21.5813 14.3423 21.4142 14.3423 21.2746H17.009Z" fill="#327CC8" mask="url(#path-24-inside-12_26760_28872)"/>
<mask id="path-26-inside-13_26760_28872" fill="white">
<path d="M10.7477 21.8199H12.9868C13.2343 21.8199 13.4348 21.5757 13.4348 21.2746C13.4348 20.9732 13.2343 20.729 12.9868 20.729H10.7477C10.5003 20.729 10.2998 20.9732 10.2998 21.2746C10.2998 21.5757 10.5003 21.8199 10.7477 21.8199Z"/>
</mask>
<path d="M10.7477 21.8199H12.9868C13.2343 21.8199 13.4348 21.5757 13.4348 21.2746C13.4348 20.9732 13.2343 20.729 12.9868 20.729H10.7477C10.5003 20.729 10.2998 20.9732 10.2998 21.2746C10.2998 21.5757 10.5003 21.8199 10.7477 21.8199Z" fill="#327CC8"/>
<path d="M10.7477 23.1532H12.9868V20.4866H10.7477V23.1532ZM12.9868 23.1532C14.2041 23.1532 14.7681 22.0546 14.7681 21.2746H12.1015C12.1015 21.1346 12.1472 20.9674 12.2732 20.8139C12.4016 20.6577 12.6472 20.4866 12.9868 20.4866V23.1532ZM14.7681 21.2746C14.7681 20.4948 14.2045 19.3957 12.9868 19.3957V22.0623C12.6471 22.0623 12.4015 21.8912 12.2731 21.7349C12.1471 21.5813 12.1015 21.4142 12.1015 21.2746H14.7681ZM12.9868 19.3957H10.7477V22.0623H12.9868V19.3957ZM10.7477 19.3957C9.5301 19.3957 8.96647 20.4948 8.96647 21.2746H11.6331C11.6331 21.4142 11.5875 21.5813 11.4615 21.7349C11.3331 21.8912 11.0874 22.0623 10.7477 22.0623V19.3957ZM8.96647 21.2746C8.96647 22.0546 9.53045 23.1532 10.7477 23.1532V20.4866C11.0874 20.4866 11.333 20.6577 11.4613 20.8139C11.5874 20.9674 11.6331 21.1346 11.6331 21.2746H8.96647Z" fill="#327CC8" mask="url(#path-26-inside-13_26760_28872)"/>
<mask id="path-28-inside-14_26760_28872" fill="white">
<path d="M6.71697 20.729H6.26903C6.02179 20.729 5.82129 20.9732 5.82129 21.2746C5.82129 21.5757 6.02179 21.8199 6.26903 21.8199H6.71697C6.96421 21.8199 7.16491 21.5757 7.16491 21.2746C7.16491 20.9732 6.96421 20.729 6.71697 20.729Z"/>
</mask>
<path d="M6.71697 20.729H6.26903C6.02179 20.729 5.82129 20.9732 5.82129 21.2746C5.82129 21.5757 6.02179 21.8199 6.26903 21.8199H6.71697C6.96421 21.8199 7.16491 21.5757 7.16491 21.2746C7.16491 20.9732 6.96421 20.729 6.71697 20.729Z" fill="#327CC8"/>
<path d="M6.71697 19.3957H6.26903V22.0623H6.71697V19.3957ZM6.26903 19.3957C5.05123 19.3957 4.48796 20.4952 4.48796 21.2746H7.15462C7.15462 21.4142 7.10901 21.5813 6.98307 21.7347C6.85487 21.8909 6.60916 22.0623 6.26903 22.0623V19.3957ZM4.48796 21.2746C4.48796 22.0542 5.05158 23.1532 6.26903 23.1532V20.4866C6.60912 20.4866 6.85477 20.658 6.98294 20.8141C7.10886 20.9674 7.15462 21.1346 7.15462 21.2746H4.48796ZM6.26903 23.1532H6.71697V20.4866H6.26903V23.1532ZM6.71697 23.1532C7.93371 23.1532 8.49825 22.055 8.49825 21.2746H5.83158C5.83158 21.1342 5.87751 20.967 6.00342 20.8138C6.13152 20.6578 6.37701 20.4866 6.71697 20.4866V23.1532ZM8.49825 21.2746C8.49825 20.4943 7.93406 19.3957 6.71697 19.3957V22.0623C6.37697 22.0623 6.13142 21.891 6.00329 21.735C5.87736 21.5817 5.83158 21.4145 5.83158 21.2746H8.49825Z" fill="#327CC8" mask="url(#path-28-inside-14_26760_28872)"/>
<mask id="path-30-inside-15_26760_28872" fill="white">
<path d="M2.23896 21.8199H4.47806C4.7255 21.8199 4.926 21.5757 4.926 21.2746C4.926 20.9732 4.7255 20.729 4.47806 20.729H2.23896C1.99151 20.729 1.79102 20.9732 1.79102 21.2746C1.79102 21.5757 1.99151 21.8199 2.23896 21.8199Z"/>
</mask>
<path d="M2.23896 21.8199H4.47806C4.7255 21.8199 4.926 21.5757 4.926 21.2746C4.926 20.9732 4.7255 20.729 4.47806 20.729H2.23896C1.99151 20.729 1.79102 20.9732 1.79102 21.2746C1.79102 21.5757 1.99151 21.8199 2.23896 21.8199Z" fill="#327CC8"/>
<path d="M2.23896 23.1532H4.47806V20.4866H2.23896V23.1532ZM4.47806 23.1532C5.69536 23.1532 6.25933 22.0546 6.25933 21.2746H3.59267C3.59267 21.1346 3.63843 20.9674 3.76446 20.8139C3.89278 20.6577 4.1384 20.4866 4.47806 20.4866V23.1532ZM6.25933 21.2746C6.25933 20.4948 5.69571 19.3957 4.47806 19.3957V22.0623C4.13836 22.0623 3.89269 21.8912 3.76433 21.7349C3.63828 21.5813 3.59267 21.4142 3.59267 21.2746H6.25933ZM4.47806 19.3957H2.23896V22.0623H4.47806V19.3957ZM2.23896 19.3957C1.02131 19.3957 0.457682 20.4948 0.457682 21.2746H3.12435C3.12435 21.4142 3.07873 21.5813 2.95269 21.7349C2.82433 21.8912 2.57866 22.0623 2.23896 22.0623V19.3957ZM0.457682 21.2746C0.457682 22.0546 1.02166 23.1532 2.23896 23.1532V20.4866C2.57862 20.4866 2.82423 20.6577 2.95256 20.8139C3.07858 20.9674 3.12435 21.1346 3.12435 21.2746H0.457682Z" fill="#327CC8" mask="url(#path-30-inside-15_26760_28872)"/>
</svg>
