<svg width="24" height="24" viewBox="0 0 24 24" fill="none" xmlns="http://www.w3.org/2000/svg">
<path opacity="0.4" d="M12 22C17.5228 22 22 17.5228 22 12C22 6.47715 17.5228 2 12 2C6.47715 2 2 6.47715 2 12C2 17.5228 6.47715 22 12 22Z" fill="#B7B8BF"/>
<path d="M13.0608 11.9998L15.5308 9.52981C15.8238 9.23681 15.8238 8.76177 15.5308 8.46877C15.2378 8.17577 14.7628 8.17577 14.4698 8.46877L11.9998 10.9388L9.52978 8.46877C9.23678 8.17577 8.76177 8.17577 8.46877 8.46877C8.17577 8.76177 8.17577 9.23681 8.46877 9.52981L10.9388 11.9998L8.46877 14.4697C8.17577 14.7628 8.17577 15.2378 8.46877 15.5308C8.61477 15.6768 8.80677 15.7508 8.99877 15.7508C9.19077 15.7508 9.38277 15.6778 9.52877 15.5308L11.9988 13.0608L14.4688 15.5308C14.6148 15.6768 14.8068 15.7508 14.9988 15.7508C15.1908 15.7508 15.3828 15.6778 15.5288 15.5308C15.8218 15.2378 15.8218 14.7628 15.5288 14.4697L13.0608 11.9998Z" fill="#B7B8BF"/>
</svg>
