<svg width="24" height="24" viewBox="0 0 24 24" fill="none" xmlns="http://www.w3.org/2000/svg">
<g clip-path="url(#clip0_24037_4948)">
<path d="M20.7567 6.66163C21.0458 7.04772 20.783 7.56055 20.7538 7.9938C20.7392 8.2399 20.5071 8.36074 20.3451 8.50811C19.8093 8.71 19.2751 8.92073 18.7291 9.09462C18.6123 9.42766 18.6269 9.80934 18.5131 10.1542C18.4459 10.1792 18.3788 10.2028 18.3102 10.2264C17.0679 10.1394 15.7746 9.79902 14.8243 8.94873C14.6359 8.38285 14.871 7.7536 15.1425 7.24519C15.4271 7.05067 15.7395 6.90772 16.0402 6.7412C16.268 6.62331 16.5497 6.6631 16.7628 6.50837C17.2183 6.17974 17.7774 5.96606 18.3423 6.00585C18.7554 6.03975 19.0109 6.43763 19.4021 6.53194C19.8458 6.62036 20.3378 6.45679 20.7567 6.66163ZM16.592 8.49484C16.3687 8.83968 16.0052 9.04599 15.6549 9.23756C16.1191 9.22872 16.5526 9.00178 16.83 8.62894C16.8475 8.66579 16.8825 8.74094 16.9 8.77926C17.1292 8.30474 17.1059 7.7757 17.1497 7.26435C16.9322 7.66076 16.8694 8.1279 16.592 8.49484Z" fill="#030303"/>
<path d="M2.38682 8.94282C2.28317 8.82492 2.08027 8.86029 2.01604 9.00323C1.92407 9.22723 1.94013 9.47775 1.88904 9.71353C1.981 10.0304 2.14304 10.3369 2.15326 10.6744C2.16055 10.9882 2.42477 11.2196 2.44667 11.5305C2.54885 11.6661 2.65249 11.8002 2.75614 11.9328C2.71089 11.9402 2.62038 11.9579 2.57367 11.9653C2.85248 12.1893 3.2145 12.3322 3.42033 12.6358C3.505 12.6815 3.58966 12.7286 3.67287 12.7743C3.759 12.8421 3.84074 12.9202 3.94585 12.9556C4.42611 13.1265 4.91367 13.2739 5.41583 13.3608C5.08446 13.7823 4.80857 14.2479 4.57063 14.7284C4.43779 14.9848 4.37502 15.3193 4.10642 15.4725C3.74002 15.614 3.38822 15.3163 3.02182 15.3517C2.67439 15.4357 2.6379 15.8778 2.35178 16.0487C2.03355 16.2447 1.67299 16.3759 1.38542 16.6235C0.864283 17.0494 0.32271 17.4988 0.0234578 18.1177C-0.00865699 18.3226 -0.0466109 18.6114 0.188411 18.7116C0.534376 18.7897 0.927052 18.7514 1.22193 18.5392C1.39272 18.358 1.39856 18.0559 1.63066 17.9247C1.97662 17.7022 2.21748 17.35 2.56637 17.1319C2.74884 17.0066 2.97802 17.0464 3.18093 17.0818C3.72396 17.1893 4.26116 16.9816 4.80273 16.9698C5.36766 16.9506 5.92237 16.8283 6.48438 16.7826C7.14565 16.1357 7.97042 15.6921 8.80832 15.3237C9.53237 15.0231 10.3279 15.2043 11.0753 15.2972C11.0622 15.3326 11.0359 15.4048 11.0213 15.4401C11.3469 15.4342 11.6738 15.4224 11.9994 15.4283C11.9775 15.4814 11.9337 15.5875 11.9118 15.6405C12.1877 15.5241 12.4723 15.4269 12.7672 15.3768C12.7643 15.4121 12.7555 15.4829 12.7526 15.5182C13.3263 15.0673 14.0708 14.9848 14.7262 14.7121C15.4751 14.4498 16.2108 14.1477 16.9713 13.9252C17.0312 13.9812 17.0896 14.0372 17.1494 14.0947C17.3947 14.5441 17.9975 14.2789 18.3946 14.4705C18.5946 14.4734 18.7508 14.3275 18.9347 14.2701C19.2705 14.1669 19.5595 13.9547 19.8923 13.8442C20.6923 13.5612 21.5492 13.5111 22.3622 13.2842C22.6994 13.1854 23.0454 13.1265 23.3943 13.0808C23.5724 13.0779 23.6439 12.8833 23.7505 12.7684C23.7914 12.6859 23.8337 12.6034 23.876 12.5208C23.9607 12.3175 24.003 12.1008 24.003 11.8813C23.7505 11.5674 23.2191 11.5895 22.971 11.8975C22.6907 12.1996 22.2557 12.2644 21.8645 12.26C21.009 12.201 20.1492 12.2423 19.2924 12.2099C18.98 12.1922 18.8457 11.868 18.6749 11.6529C18.6165 11.5158 18.599 11.3404 18.4442 11.2785C18.4559 11.0988 18.4618 10.919 18.4647 10.7377C18.4326 10.7333 18.3698 10.7245 18.3391 10.7215C17.0253 10.6095 15.6429 10.2941 14.6313 9.38933C14.6007 9.3687 14.5379 9.32744 14.5072 9.30828C13.792 9.98321 12.9146 10.4798 11.9716 10.7407C10.8432 11.0663 9.63601 10.9396 8.52221 11.3331C7.44344 11.6514 6.39387 12.288 5.23336 12.1244C4.55749 12.0994 4.02321 11.6057 3.6101 11.1106C3.21304 10.6154 2.91525 10.0466 2.67147 9.46154C2.58535 9.27881 2.51674 9.09018 2.38682 8.94282Z" fill="#030303"/>
</g>
<defs>
<clipPath id="clip0_24037_4948">
<rect width="24" height="12.75" fill="white" transform="translate(0 6)"/>
</clipPath>
</defs>
</svg>
