<svg width="17" height="16" viewBox="0 0 17 16" fill="none" xmlns="http://www.w3.org/2000/svg">
<path d="M12.5 2.5H11.6667V2C11.6667 1.724 11.4427 1.5 11.1667 1.5C10.8907 1.5 10.6667 1.724 10.6667 2V2.5H6.33333V2C6.33333 1.724 6.10933 1.5 5.83333 1.5C5.55733 1.5 5.33333 1.724 5.33333 2V2.5H4.5C2.888 2.5 2 3.388 2 5V12C2 13.612 2.888 14.5 4.5 14.5H12.5C14.112 14.5 15 13.612 15 12V5C15 3.388 14.112 2.5 12.5 2.5ZM4.5 3.5H5.33333V4C5.33333 4.276 5.55733 4.5 5.83333 4.5C6.10933 4.5 6.33333 4.276 6.33333 4V3.5H10.6667V4C10.6667 4.276 10.8907 4.5 11.1667 4.5C11.4427 4.5 11.6667 4.276 11.6667 4V3.5H12.5C13.5513 3.5 14 3.94867 14 5V5.5H3V5C3 3.94867 3.44867 3.5 4.5 3.5ZM12.5 13.5H4.5C3.44867 13.5 3 13.0513 3 12V6.5H14V12C14 13.0513 13.5513 13.5 12.5 13.5ZM6.51335 8.66667C6.51335 9.03467 6.21535 9.33333 5.84668 9.33333C5.47868 9.33333 5.1766 9.03467 5.1766 8.66667C5.1766 8.29867 5.47201 8 5.84001 8H5.84668C6.21468 8 6.51335 8.29867 6.51335 8.66667ZM9.18001 8.66667C9.18001 9.03467 8.88201 9.33333 8.51335 9.33333C8.14535 9.33333 7.84326 9.03467 7.84326 8.66667C7.84326 8.29867 8.13867 8 8.50667 8H8.51335C8.88135 8 9.18001 8.29867 9.18001 8.66667ZM11.8467 8.66667C11.8467 9.03467 11.5487 9.33333 11.18 9.33333C10.812 9.33333 10.5099 9.03467 10.5099 8.66667C10.5099 8.29867 10.8053 8 11.1733 8H11.18C11.548 8 11.8467 8.29867 11.8467 8.66667ZM6.51335 11.3333C6.51335 11.7013 6.21535 12 5.84668 12C5.47868 12 5.1766 11.7013 5.1766 11.3333C5.1766 10.9653 5.47201 10.6667 5.84001 10.6667H5.84668C6.21468 10.6667 6.51335 10.9653 6.51335 11.3333ZM9.18001 11.3333C9.18001 11.7013 8.88201 12 8.51335 12C8.14535 12 7.84326 11.7013 7.84326 11.3333C7.84326 10.9653 8.13867 10.6667 8.50667 10.6667H8.51335C8.88135 10.6667 9.18001 10.9653 9.18001 11.3333ZM11.8467 11.3333C11.8467 11.7013 11.5487 12 11.18 12C10.812 12 10.5099 11.7013 10.5099 11.3333C10.5099 10.9653 10.8053 10.6667 11.1733 10.6667H11.18C11.548 10.6667 11.8467 10.9653 11.8467 11.3333Z" fill="#727688"/>
</svg>
