<svg width="30" height="30" viewBox="0 0 30 30" fill="none" xmlns="http://www.w3.org/2000/svg">
<path d="M27.0086 21.4402L18.7499 5.99499C17.1499 3.00249 12.8512 3.00249 11.2499 5.99499L2.99125 21.4402C1.52375 24.1852 3.5163 27.5001 6.63505 27.5001H23.3648C26.4823 27.5001 28.4761 24.184 27.0086 21.4402ZM14.0624 12.5001C14.0624 11.9826 14.4824 11.5626 14.9999 11.5626C15.5174 11.5626 15.9374 11.9826 15.9374 12.5001V17.5001C15.9374 18.0176 15.5174 18.4376 14.9999 18.4376C14.4824 18.4376 14.0624 18.0176 14.0624 17.5001V12.5001ZM15.0249 22.5001C14.3349 22.5001 13.7685 21.9401 13.7685 21.2501C13.7685 20.5601 14.3224 20.0001 15.0124 20.0001H15.0249C15.7162 20.0001 16.2749 20.5601 16.2749 21.2501C16.2749 21.9401 15.7149 22.5001 15.0249 22.5001Z" fill="#727688"/>
</svg>
