<svg width="31" height="30" viewBox="0 0 31 30" fill="none" xmlns="http://www.w3.org/2000/svg">
<path d="M16.4238 22.5687C16.425 22.545 16.4375 22.5237 16.4375 22.5V18.75C16.4375 18.725 16.4375 18.7125 16.425 18.6875C16.125 18.725 15.8125 18.75 15.5 18.75C15.1875 18.75 14.875 18.725 14.575 18.6875C14.5625 18.7125 14.5625 18.725 14.5625 18.75V22.5C14.5625 22.525 14.575 22.545 14.5762 22.5687C12.6937 22.855 11.75 24.08 11.75 26.25H19.25C19.25 24.0812 18.3063 22.8562 16.4238 22.5687Z" fill="#727688"/>
<path opacity="0.4" d="M15.5 18.75C19.6425 18.75 23 15.3925 23 11.25V5.625C23 4.59 22.16 3.75 21.125 3.75H9.875C8.84 3.75 8 4.59 8 5.625V11.25C8 15.3925 11.3575 18.75 15.5 18.75Z" fill="#727688"/>
<path d="M27.6875 7.5V9.56253C27.6875 13.1 24.6876 14.6875 22.5626 14.6875H22.1625C22.475 14.1 22.7 13.4625 22.8375 12.7875C23.9625 12.675 25.8125 11.8125 25.8125 9.56253V7.5C25.8125 7.325 25.675 7.1875 25.5 7.1875H23V5.625C23 5.5125 22.9875 5.4125 22.975 5.3125H25.5C26.7 5.3125 27.6875 6.3 27.6875 7.5Z" fill="#727688"/>
<path d="M8.83755 14.6875H8.43747C6.31247 14.6875 3.3125 13.1 3.3125 9.56253V7.5C3.3125 6.3 4.3 5.3125 5.5 5.3125H8.03754C8.01254 5.4125 8 5.5125 8 5.625V7.1875H5.5C5.325 7.1875 5.1875 7.325 5.1875 7.5V9.56253C5.1875 11.8125 7.03751 12.675 8.16251 12.7875C8.30001 13.4625 8.52505 14.1 8.83755 14.6875Z" fill="#727688"/>
</svg>
