<svg width="24" height="24" viewBox="0 0 24 24" fill="none" xmlns="http://www.w3.org/2000/svg">
<g clip-path="url(#clip0_24037_1394)">
<path d="M21.5613 4.5232C21.6341 4.44173 21.7103 4.33913 21.8049 4.25657C21.8872 4.18429 21.9266 4.06592 22.0084 3.99365C22.0273 4.00778 22.0456 4.02201 22.0646 4.03647C22.0418 4.14465 22.0184 4.25219 21.9956 4.36037L22.0345 4.37231C22.1251 4.25492 22.2151 4.13765 22.3059 4.02092C22.3209 4.02672 22.3354 4.03176 22.3503 4.03756C22.3408 4.12297 22.3453 4.21331 22.3175 4.29303C22.2524 4.48685 22.1718 4.67442 22.0995 4.8655C22.084 4.9058 22.0785 4.94982 22.0679 4.99176L22.2431 5.48933C22.3515 5.72005 22.4743 5.93468 22.6534 6.12718C22.7624 6.24457 22.8069 6.43072 22.8959 6.58205C23.13 6.97855 23.4063 7.34582 23.6464 7.73587C23.7993 7.98444 23.9011 8.25961 23.9535 8.5499C23.9611 8.59107 23.9902 8.62809 24.0001 8.6478C23.9362 8.81292 23.8556 8.96831 23.8189 9.13409C23.7928 9.25246 23.7517 9.30732 23.6348 9.33623C23.5324 9.36131 23.443 9.43884 23.3402 9.46435C23.0899 9.52578 22.768 9.3612 22.7135 9.08679C22.6712 8.87217 22.5477 8.82486 22.3915 8.76978C22.351 8.75533 22.2959 8.75368 22.272 8.72532C22.1357 8.56874 21.9517 8.49822 21.7694 8.41773C21.6809 8.37864 21.6048 8.3113 21.5213 8.25907C21.4567 8.21844 21.3956 8.16555 21.325 8.14387C20.8407 7.99407 20.8407 7.99659 20.5738 7.7305C20.4521 7.7236 20.3325 7.72251 20.1969 7.78109C20.0896 7.82719 20.0322 7.86366 19.96 7.96571C19.6086 8.45475 19.3762 9.00411 19.107 9.53487C19.0543 9.63911 19.0037 9.75924 19.0014 9.87268C18.9925 10.283 18.8735 10.6867 18.928 11.0995C18.9392 11.1843 18.9847 11.2653 18.9936 11.3501C19.0393 11.7663 18.8301 12.0921 18.6016 12.4073C18.5611 12.4633 18.5042 12.5072 18.4442 12.5666C18.591 12.6706 18.7577 12.7534 18.8757 12.8813C19.1092 13.1321 19.4072 13.2761 19.6919 13.4452C19.7103 13.4563 19.7402 13.4551 19.7508 13.4697C19.9355 13.7387 20.1901 13.9723 20.1822 14.3376C20.18 14.4772 20.1672 14.619 20.185 14.7563C20.2406 15.1912 20.2045 15.6437 20.438 16.0469C20.4848 16.1275 20.4748 16.2265 20.4125 16.3311C20.2468 16.6091 20.189 16.9244 20.1834 17.2463C20.1811 17.3274 20.1523 17.3914 20.1206 17.4654C20.0411 17.6528 20.0016 17.8568 19.9454 18.0564C19.7763 17.9641 19.4204 17.6398 19.346 17.4992C19.258 17.334 19.1536 17.1694 19.2181 16.9515C19.307 16.8059 19.4788 16.8881 19.6062 16.8626C19.6529 16.6824 19.6273 16.5289 19.5351 16.3972C19.4816 16.321 19.456 16.2465 19.5084 16.1837C19.6435 16.0186 19.6296 15.8301 19.6196 15.6082C19.4162 15.7189 19.3372 15.9234 19.2121 16.0742C18.9891 16.3444 18.8139 16.6536 18.6048 16.936C18.5025 17.0739 18.354 17.164 18.1699 17.1417C17.9141 17.1112 17.6923 17.209 17.471 17.309C17.2708 17.3997 17.0428 17.3808 16.8459 17.4876C16.7815 17.5226 16.5679 17.3302 16.5552 17.2318C16.5435 17.1417 16.5525 17.0494 16.5525 17.006C16.6647 16.8788 16.776 16.797 16.8233 16.687C16.8695 16.5791 16.9084 16.509 17.0318 16.5141C17.0518 16.5146 17.0801 16.509 17.093 16.4962C17.1663 16.4211 17.2409 16.3339 17.3566 16.3778C17.4978 16.4306 17.6657 16.4323 17.7802 16.5975C17.8281 16.5175 17.857 16.4312 17.9159 16.3817C17.9792 16.3293 18.076 16.32 18.15 16.2772C18.4397 16.1087 18.6587 15.865 18.8567 15.5994C18.929 15.502 19.0169 15.4098 19.0614 15.3002C19.1136 15.1696 19.127 15.0234 19.1558 14.8899C18.8445 14.6998 18.513 14.6425 18.1905 14.5507C17.9459 14.4812 17.7168 14.3417 17.4989 14.2049C17.3811 14.1303 17.2742 14.077 17.1342 14.0669C17.0041 14.058 16.8772 14.0158 16.6926 13.9752C16.5924 13.8516 16.4925 13.7278 16.3929 13.6037C16.0299 13.6943 15.6952 13.8828 15.2937 13.8722C15.049 13.8651 14.7943 13.9407 14.5564 14.0179C14.3862 14.0735 14.2439 14.0975 14.0794 14.0123C14.0149 13.9795 13.9192 13.9922 13.8402 14.0034C13.5299 14.0463 13.2336 13.9223 12.9267 13.9318C12.7759 13.7777 12.5645 13.9096 12.3839 13.8044C12.2323 13.7171 12.0177 13.7399 11.8314 13.7099C11.8128 13.7067 11.7986 13.6783 11.7552 13.6354C11.6759 13.82 11.5478 13.9913 11.5411 14.1665C11.5321 14.3939 11.4819 14.6141 11.4483 14.8332C11.3829 15.2646 11.3743 15.7112 11.1898 16.1193C11.1853 16.1287 11.1778 16.1403 11.1795 16.1499C11.257 16.503 11.1789 16.8871 11.3892 17.2141C11.4251 17.2709 11.4609 17.3409 11.5156 17.3687C11.7149 17.4699 11.8475 17.6435 12.0025 17.7924C12.2132 17.9954 12.4198 18.1938 12.6792 18.3462C12.841 18.4418 12.9383 18.6488 13.0629 18.8067C13.0968 18.8495 13.1129 18.9185 13.1563 18.9402C13.4493 19.0914 13.6211 19.3443 13.7691 19.6247C13.8147 19.7108 13.9548 19.747 13.8747 19.9138C13.7947 20.0044 13.6534 20.0122 13.5067 20.0044C13.063 19.9804 12.8528 19.915 12.7015 19.7948C12.671 19.6142 12.9268 19.444 12.6859 19.2449H12.3361C12.2189 19.1037 12.102 18.9547 11.9764 18.8145C11.846 18.6688 11.7065 18.5315 11.5691 18.3885C11.3795 18.6515 11.4957 18.9357 11.4473 19.2115C11.3266 19.3188 11.2257 19.1837 11.129 19.1414C10.9805 19.0775 10.8502 18.9713 10.7156 18.8768C10.4932 18.7211 10.4345 18.4947 10.5516 18.2095C10.3973 18.1872 10.2335 18.1612 10.271 17.9443C10.127 17.7307 9.93914 17.5566 9.72386 17.4243C9.26209 17.1418 8.81554 16.8304 8.31512 16.6147C8.25588 16.5892 8.20584 16.5407 8.1455 16.5191C8.05374 16.4857 7.94621 16.4857 7.86584 16.4378C7.77889 16.3867 7.71494 16.2955 7.63424 16.2144C7.58059 16.0492 7.64541 15.9024 7.71845 15.7472C7.90559 15.3469 8.05374 14.9304 8.16938 14.505C8.20058 14.3898 8.2261 14.237 8.12152 14.1103C8.08626 14.0669 8.10849 13.9768 8.10258 13.87C8.00523 13.8067 7.89245 13.7177 7.76674 13.6538C7.40615 13.4708 7.02804 13.3185 6.73501 13.0249C6.72527 13.0159 6.6922 13.0287 6.6519 13.0332C6.61653 13.2327 6.69505 13.4607 6.53123 13.6609C6.39446 13.5953 6.25211 13.5263 6.10056 13.4531C6.0653 13.5553 6.0272 13.6671 5.98799 13.781C5.84291 13.7243 5.90379 13.5998 5.91912 13.5092C5.93664 13.4064 5.99588 13.3096 6.03639 13.2128C5.81706 13.0316 5.55459 12.9059 5.59905 12.5733C5.52207 12.5344 5.44585 12.4963 5.36909 12.4577C5.33821 12.4843 5.30679 12.5024 5.28872 12.5293C5.11603 12.7896 4.89364 13.0682 4.56031 13.1861C4.52002 13.2005 4.47972 13.2327 4.44019 13.2305C4.0646 13.2172 3.76906 13.3701 3.53264 13.6542C3.5126 13.6782 3.48599 13.697 3.40562 13.7687C3.44537 13.6598 3.45008 13.6042 3.48019 13.5731C3.53385 13.5174 3.60218 13.4774 3.66426 13.4307C3.65014 13.4101 3.63645 13.389 3.62199 13.3684L3.3351 13.4569C3.46377 13.2673 3.62835 13.2466 3.77519 13.1933C3.51326 13.1362 3.32536 13.2223 3.23086 13.4852C3.1899 13.6248 3.29973 13.8055 3.12103 13.9268C3.09825 13.9073 3.07427 13.8867 3.05434 13.8699C2.98897 14.0006 2.92173 14.1324 2.84213 14.2903C2.78792 14.2142 2.74171 14.1479 2.69342 14.0802C2.65313 14.119 2.60527 14.1646 2.55753 14.2092C2.54614 14.1909 2.52085 14.1613 2.52556 14.1558C2.63484 14.0179 2.68368 13.8661 2.66791 13.6877C2.66397 13.6465 2.71905 13.5998 2.76296 13.5303C2.59279 13.5486 2.49774 13.681 2.34619 13.6565C2.19015 13.631 2.05284 13.7693 1.88661 13.7243C1.75072 13.6876 1.61056 13.6643 1.4635 13.6343C1.50128 13.5931 1.52438 13.5686 1.56052 13.5303C1.53884 13.4963 1.52438 13.4441 1.49153 13.4285C1.29005 13.3306 1.16128 13.1516 1.00359 13.006C0.986293 12.9899 0.956837 12.9737 0.956289 12.9565C0.949391 12.7762 0.795541 12.7101 0.684069 12.6234C0.565588 12.5316 0.423346 12.4707 0.290411 12.3971C0.195363 12.3465 0.099659 12.2954 0.00012207 12.2412C0.0348341 12.202 0.0571724 12.1775 0.0776492 12.1543C0.069546 12.1183 -0.0141131 12.112 0.0581579 12.0347C0.165688 12.0972 0.27727 12.1628 0.403197 12.2363C0.425974 12.2271 0.483024 12.1809 0.516641 12.194C0.658117 12.2498 0.813281 12.2448 0.952566 12.3217C1.25567 12.4885 1.56807 12.4982 1.87566 12.3161C1.93042 12.2836 1.99415 12.2652 2.07605 12.2316C2.1273 12.1479 2.17285 12.0119 2.2668 11.9351C2.39547 11.8289 2.41189 11.6788 2.44551 11.5523C2.53782 11.2062 2.65959 10.8753 2.79055 10.5428C2.8856 10.3015 3.0274 10.0858 3.11424 9.83808C3.20852 9.5664 3.42205 9.36131 3.75592 9.31926C3.92827 9.29758 4.07982 9.21501 4.26192 9.31871C4.3481 9.36875 4.48574 9.32791 4.60587 9.28564C4.56557 9.27644 4.5244 9.25892 4.4841 9.26002C4.41183 9.26166 4.35708 9.24633 4.29948 9.19333C4.26992 9.16607 4.19436 9.18841 4.1407 9.16497C4.33365 9.06992 4.51662 9.14614 4.68394 9.22531C4.94751 9.35014 5.19915 9.49917 5.45385 9.64152C5.57725 9.7104 5.69015 9.80063 5.8175 9.85954C5.96347 9.92732 6.1194 9.97298 6.27259 10.0252C6.39436 10.0675 6.51722 10.105 6.68125 10.158C6.72461 10.1158 6.79688 10.0453 6.86806 9.97397C7.34844 9.49468 7.76499 9.26057 8.47532 8.96787C8.70604 8.87282 8.94465 8.80964 9.17515 8.71908C9.24578 8.69182 9.3325 8.7032 9.41145 8.69937C9.89052 8.6755 10.3767 8.69685 10.8464 8.6179C11.4216 8.5211 11.9926 8.58199 12.5644 8.5637C12.8715 8.55395 13.1672 8.43909 13.4776 8.48913C13.8222 8.33813 14.2114 8.29257 14.5084 8.06952C14.4855 7.96059 14.463 7.8516 14.4406 7.74255C14.3684 7.76149 14.2905 7.7812 14.2049 7.80288C14.2049 7.76598 14.2026 7.7351 14.2054 7.73455C14.3306 7.71649 14.4023 7.62352 14.4585 7.52902C14.552 7.36969 14.6709 7.25132 14.8339 7.15956C15.0346 7.04612 15.1791 6.86905 15.2754 6.65859C15.2859 6.63636 15.2514 6.59409 15.2369 6.55993C15.3381 6.51263 15.4672 6.54745 15.5205 6.37509C15.5605 6.24632 15.7151 6.15357 15.7718 6.09477C15.9109 6.03772 15.9904 6.00563 16.0822 5.96775L15.9998 5.87325C16.021 5.84992 16.0428 5.82539 16.0699 5.79484C16.0265 5.77929 15.9859 5.76561 15.9181 5.74173C15.9998 5.65917 16.0744 5.5846 16.1583 5.50094C16.1233 5.45254 16.0976 5.41717 16.0677 5.37501C16.0955 5.36669 16.1373 5.34063 16.1521 5.35169C16.25 5.42473 16.3534 5.44061 16.4468 5.40973C16.4618 5.29716 16.4746 5.19456 16.4891 5.08692C16.4067 5.07443 16.3428 5.06414 16.2461 5.04936C16.3233 5.01245 16.3695 4.99066 16.4312 4.96121C16.4048 4.91432 16.3789 4.86723 16.3533 4.81995C16.3678 4.81185 16.3922 4.78743 16.4045 4.79236C16.4929 4.83046 16.5796 4.87437 16.6319 4.89945C16.9306 4.84087 17.2074 4.78688 17.4965 4.72983C17.527 4.74877 17.5721 4.77714 17.6345 4.81688C17.6555 4.75655 17.6689 4.71735 17.6823 4.6776C17.6957 4.6765 17.7167 4.66785 17.7279 4.67453C17.8424 4.74352 17.9559 4.80331 18.0994 4.79378C18.2084 4.78633 18.3202 4.771 18.4241 4.85532C18.4636 4.88697 18.5632 4.87164 18.6232 4.84722C18.7822 4.78163 18.9101 4.64179 19.1003 4.65143C19.1197 4.45991 19.3216 4.51685 19.4216 4.41896C19.5673 4.27606 19.7697 4.27551 19.981 4.33584C20.3318 4.43648 20.6877 4.53744 21.0608 4.51017C21.1242 4.50546 21.1869 4.461 21.2488 4.46407C21.3399 4.4679 21.4323 4.49681 21.5613 4.5232ZM9.39667 14.5757C9.18314 14.9599 9.05864 15.3547 9.08755 15.7839C9.09554 15.9024 9.10923 16.033 9.16617 16.132C9.20986 16.2082 9.28684 16.2778 9.39667 16.3177C9.55096 16.3746 9.68028 16.4974 9.86238 16.6203C9.81398 16.2071 9.96662 15.8602 9.92797 15.4925C9.90968 15.3147 9.85844 15.1479 9.81168 14.9816C9.75474 14.7787 9.58293 14.6629 9.39667 14.5757Z" fill="black"/>
</g>
<defs>
<clipPath id="clip0_24037_1394">
<rect width="24" height="24" fill="white"/>
</clipPath>
</defs>
</svg>
