<svg width="24" height="24" viewBox="0 0 24 24" fill="none" xmlns="http://www.w3.org/2000/svg">
<path opacity="0.4" d="M17 9C15 9 14 8 14 6V3H8C6 3 5 4 5 6V18C5 20 6 21 8 21H17C19 21 20 20 20 18V9H17Z" fill="#727688"/>
<path d="M17 9H20L14 3V6C14 8 15 9 17 9Z" fill="#727688"/>
<path d="M9.75 12C9.75 12.414 9.414 12.75 9 12.75C8.586 12.75 8.25 12.414 8.25 12C8.25 11.586 8.586 11.25 9 11.25C9.414 11.25 9.75 11.586 9.75 12ZM9 15.25C8.586 15.25 8.25 15.586 8.25 16C8.25 16.414 8.586 16.75 9 16.75C9.414 16.75 9.75 16.414 9.75 16C9.75 15.586 9.414 15.25 9 15.25ZM16.75 12C16.75 11.586 16.414 11.25 16 11.25H11.5C11.086 11.25 10.75 11.586 10.75 12C10.75 12.414 11.086 12.75 11.5 12.75H16C16.414 12.75 16.75 12.414 16.75 12ZM16.75 16C16.75 15.586 16.414 15.25 16 15.25H11.5C11.086 15.25 10.75 15.586 10.75 16C10.75 16.414 11.086 16.75 11.5 16.75H16C16.414 16.75 16.75 16.414 16.75 16Z" fill="#727688"/>
</svg>
