<svg width="31" height="30" viewBox="0 0 31 30" fill="none" xmlns="http://www.w3.org/2000/svg">
<path d="M25.5 5.3125H22.9687C22.8187 4.42625 22.0537 3.75 21.125 3.75H9.875C8.94625 3.75 8.18128 4.42625 8.03128 5.3125H5.5C4.29375 5.3125 3.3125 6.29375 3.3125 7.5V9.56253C3.3125 13.0975 6.30872 14.6875 8.43747 14.6875H8.84C9.95 16.8337 12.065 18.3725 14.5637 18.685V22.5713C12.6912 22.8625 11.7512 24.0863 11.7512 26.2488H19.2512C19.2512 24.085 18.3112 22.8625 16.4387 22.5713V18.685C18.9375 18.3725 21.0512 16.8337 22.1624 14.6875H22.565C24.6925 14.6875 27.6899 13.0975 27.6899 9.56253V7.5C27.6874 6.29375 26.7062 5.3125 25.5 5.3125ZM5.1875 9.56253V7.5C5.1875 7.3275 5.3275 7.1875 5.5 7.1875H8V11.25C8 11.7775 8.05619 12.2913 8.15869 12.7888C7.03744 12.6688 5.1875 11.8263 5.1875 9.56253ZM25.8125 9.56253C25.8125 11.8263 23.9626 12.6688 22.8413 12.7888C22.9451 12.2925 23 11.7775 23 11.25V7.1875H25.5C25.6725 7.1875 25.8125 7.3275 25.8125 7.5V9.56253Z" fill="#327CC8"/>
</svg>
