<svg width="20" height="21" viewBox="0 0 20 21" fill="none" xmlns="http://www.w3.org/2000/svg">
<path d="M8.76701 10.8411C8.76701 11.3011 8.39451 11.6745 7.93368 11.6745C7.47368 11.6745 7.09607 11.3011 7.09607 10.8411C7.09607 10.3811 7.46533 10.0078 7.92533 10.0078H7.93368C8.39368 10.0078 8.76701 10.3811 8.76701 10.8411ZM17.3136 6.6519L15.5104 8.09945C15.4512 8.14695 15.417 8.21872 15.417 8.29456V13.3877C15.417 13.4636 15.4512 13.5353 15.5104 13.5828L17.3136 15.0304C17.7244 15.3604 18.3337 15.0678 18.3337 14.5411V7.14119C18.3337 6.61453 17.7244 6.32273 17.3136 6.6519ZM14.167 7.50781V14.1745C14.167 15.8411 13.3337 16.6745 11.667 16.6745H4.16699C2.50033 16.6745 1.66699 15.8411 1.66699 14.1745V7.50781C1.66699 5.84115 2.50033 5.00781 4.16699 5.00781H11.667C13.3337 5.00781 14.167 5.84115 14.167 7.50781ZM11.0996 10.292C10.6454 9.52787 9.62449 8.23698 7.91699 8.23698C6.20949 8.23698 5.18942 9.52787 4.73442 10.292C4.53275 10.6304 4.53275 11.0519 4.73442 11.3903C5.18858 12.1544 6.20949 13.4453 7.91699 13.4453C9.62449 13.4453 10.6446 12.1544 11.0996 11.3903C11.3012 11.0519 11.3012 10.6304 11.0996 10.292Z" fill="#DD3B3A"/>
</svg>
