<svg width="24" height="24" viewBox="0 0 24 24" fill="none" xmlns="http://www.w3.org/2000/svg">
<path opacity="0.4" d="M20 3.75V13C20 15.29 18.79 16.5 16.5 16.5H7.5C5.21 16.5 4 15.29 4 13V3.75H20Z" fill="#727688"/>
<path d="M21 3.75H3C2.586 3.75 2.25 3.414 2.25 3C2.25 2.586 2.586 2.25 3 2.25H21C21.414 2.25 21.75 2.586 21.75 3C21.75 3.414 21.414 3.75 21 3.75Z" fill="#727688"/>
<path d="M15.6199 21.42C15.4799 21.63 15.2399 21.75 14.9999 21.75C14.8599 21.75 14.7099 21.71 14.5799 21.62L11.9999 19.9L9.4199 21.62C9.0699 21.85 8.60989 21.76 8.37989 21.42C8.14989 21.07 8.23987 20.61 8.57987 20.38L11.2499 18.6V16.5H12.7499V18.6L15.4199 20.38C15.7599 20.61 15.8499 21.07 15.6199 21.42Z" fill="#727688"/>
<path d="M8.5 13.25C8.086 13.25 7.75 12.914 7.75 12.5V8.5C7.75 8.086 8.086 7.75 8.5 7.75C8.914 7.75 9.25 8.086 9.25 8.5V12.5C9.25 12.914 8.914 13.25 8.5 13.25ZM12.75 12.5V6.5C12.75 6.086 12.414 5.75 12 5.75C11.586 5.75 11.25 6.086 11.25 6.5V12.5C11.25 12.914 11.586 13.25 12 13.25C12.414 13.25 12.75 12.914 12.75 12.5ZM16.25 12.5V10.5C16.25 10.086 15.914 9.75 15.5 9.75C15.086 9.75 14.75 10.086 14.75 10.5V12.5C14.75 12.914 15.086 13.25 15.5 13.25C15.914 13.25 16.25 12.914 16.25 12.5Z" fill="#727688"/>
</svg>
