<svg width="30" height="30" viewBox="0 0 30 30" fill="none" xmlns="http://www.w3.org/2000/svg">
<rect width="30" height="30" rx="15" fill="#327CC8"/>
<path d="M16.0417 16.6667C16.0417 18.1583 17.2583 19.375 18.75 19.375H22.5V20C22.5 21.6667 21.6667 22.5 20 22.5H10C8.33333 22.5 7.5 21.6667 7.5 20V9.16667C7.5 10.0833 8.25 10.8333 9.16667 10.8333H20C21.6667 10.8333 22.5 11.6667 22.5 13.3333V13.9583H18.75C17.2583 13.9583 16.0417 15.175 16.0417 16.6667ZM18.75 15.2083C17.95 15.2083 17.2917 15.8667 17.2917 16.6667C17.2917 17.4667 17.95 18.125 18.75 18.125H22.5V15.2083H18.75ZM19.1833 17.5C18.725 17.5 18.3417 17.125 18.3417 16.6667C18.3417 16.2083 18.7167 15.8333 19.175 15.8333H19.1833C19.6417 15.8333 20.0167 16.2083 20.0167 16.6667C20.0167 17.125 19.6417 17.5 19.1833 17.5ZM17.5 7.5H9.79167C9.21667 7.5 8.75 7.96667 8.75 8.54167C8.75 9.11667 9.21667 9.58333 9.79167 9.58333H19.975C19.85 8.19167 19.025 7.5 17.5 7.5Z" fill="white"/>
</svg>
