<svg width="32" height="32" viewBox="0 0 32 32" fill="none" xmlns="http://www.w3.org/2000/svg">
<path fill-rule="evenodd" clip-rule="evenodd" d="M11.1472 12.5036C17.3329 8.64532 25.4751 10.5321 29.3333 16.7178L29.0285 17.1842C28.2951 18.2566 27.4067 19.2156 26.3915 20.0297C21.2025 24.1911 13.832 23.7956 9.11613 19.3747C8.36003 21.3242 6.39802 22.6396 4.20252 22.4803L4 22.4614V22.1178C4 20.0581 4.9017 18.1768 6.36275 16.8895C5.00451 15.8356 4.11 14.2227 4.00947 12.4092L4 12.0669V10.9742L4.27637 10.9853C6.35258 11.1199 8.13023 12.3927 8.96938 14.203C9.63115 13.564 10.3616 12.9935 11.1472 12.5036ZM18.7163 22.9201L18.8917 22.9116C17.9197 23.8796 16.7282 24.6148 15.3721 25.0129C14.3185 25.3222 13.258 25.4009 12.2354 25.2773C12.7348 24.263 13.1221 23.1788 13.3847 22.0491C15.0844 22.7044 16.903 22.9988 18.7163 22.9201ZM20.0177 10.4513L20.1557 10.6591C17.5429 10.2528 14.7979 10.6255 12.2944 11.8639C11.5293 10.2473 10.5031 8.83815 9.29437 7.68659C9.81588 7.39666 10.3743 7.15986 10.9639 6.98677C14.4436 5.96514 17.9977 7.45914 20.0177 10.4513Z" stroke="#327CC8" stroke-linecap="round"/>
<path fill-rule="evenodd" clip-rule="evenodd" d="M23.333 15.4663V15.333V15.4663Z" stroke="#327CC8" stroke-linecap="round" stroke-linejoin="round"/>
</svg>
