<svg width="22" height="22" viewBox="0 0 22 22" fill="none" xmlns="http://www.w3.org/2000/svg">
<path d="M11.0002 20.8541C5.56616 20.8541 1.146 16.4339 1.146 10.9999C1.146 5.56592 5.56616 1.14575 11.0002 1.14575C16.4342 1.14575 20.8543 5.56592 20.8543 10.9999C20.8543 16.4339 16.4342 20.8541 11.0002 20.8541ZM11.0002 2.52075C6.32425 2.52075 2.521 6.324 2.521 10.9999C2.521 15.6758 6.32425 19.4791 11.0002 19.4791C15.6761 19.4791 19.4793 15.6758 19.4793 10.9999C19.4793 6.324 15.6761 2.52075 11.0002 2.52075ZM11.6877 15.1249V10.9348C11.6877 10.5553 11.3797 10.2473 11.0002 10.2473C10.6207 10.2473 10.3127 10.5553 10.3127 10.9348V15.1249C10.3127 15.5044 10.6207 15.8124 11.0002 15.8124C11.3797 15.8124 11.6877 15.5044 11.6877 15.1249ZM11.9352 7.79158C11.9352 7.28558 11.5254 6.87492 11.0185 6.87492H11.0093C10.5033 6.87492 10.0971 7.28558 10.0971 7.79158C10.0971 8.29759 10.5125 8.70825 11.0185 8.70825C11.5245 8.70825 11.9352 8.29759 11.9352 7.79158Z" fill="#327CC8"/>
</svg>
