<svg width="23" height="23" viewBox="0 0 23 23" fill="none" xmlns="http://www.w3.org/2000/svg">
<path d="M11.5001 1.91663C6.20721 1.91663 1.91675 6.20708 1.91675 11.5C1.91675 16.7928 6.20721 21.0833 11.5001 21.0833C16.793 21.0833 21.0834 16.7928 21.0834 11.5C21.0834 6.20708 16.793 1.91663 11.5001 1.91663ZM12.2188 15.8125C12.2188 16.2092 11.8968 16.5312 11.5001 16.5312C11.1033 16.5312 10.7813 16.2092 10.7813 15.8125V11.4319C10.7813 11.0351 11.1033 10.7131 11.5001 10.7131C11.8968 10.7131 12.2188 11.0351 12.2188 11.4319V15.8125ZM11.5193 9.10413C10.9903 9.10413 10.556 8.67479 10.556 8.14579C10.556 7.61679 10.9807 7.18746 11.5097 7.18746H11.5193C12.0492 7.18746 12.4776 7.61679 12.4776 8.14579C12.4776 8.67479 12.0483 9.10413 11.5193 9.10413Z" fill="white"/>
</svg>
