<svg width="22" height="22" viewBox="0 0 22 22" fill="none" xmlns="http://www.w3.org/2000/svg">
<path d="M17.134 20.8542H4.86556C3.54648 20.8542 2.35481 20.1796 1.67647 19.0493C1.00089 17.9218 0.967759 16.557 1.58651 15.3983L7.64197 4.07294C8.31389 2.81435 9.56984 2.06348 10.998 2.06348C12.4262 2.06348 13.6819 2.81435 14.3538 4.07294L20.4093 15.3983C21.0299 16.557 20.9969 17.9218 20.3204 19.0493C19.6467 20.1796 18.454 20.8542 17.134 20.8542ZM10.9998 3.43758C10.0868 3.43758 9.28553 3.91693 8.85561 4.71993L2.80015 16.0453C2.41057 16.7741 2.43258 17.6322 2.857 18.3417C3.28416 19.0539 4.03504 19.4784 4.86646 19.4784H17.1352C17.9666 19.4784 18.7181 19.053 19.1444 18.3417C19.5688 17.6331 19.589 16.775 19.2003 16.0453L13.1449 4.71993C12.714 3.91693 11.9128 3.43758 10.9998 3.43758ZM11.6873 12.8334V9.16675C11.6873 8.78725 11.3793 8.47925 10.9998 8.47925C10.6203 8.47925 10.3123 8.78725 10.3123 9.16675V12.8334C10.3123 13.2129 10.6203 13.5209 10.9998 13.5209C11.3793 13.5209 11.6873 13.2129 11.6873 12.8334ZM11.9348 15.5834C11.9348 15.0774 11.5251 14.6667 11.0181 14.6667H11.009C10.503 14.6667 10.0968 15.0774 10.0968 15.5834C10.0968 16.0894 10.5121 16.5001 11.0181 16.5001C11.5241 16.5001 11.9348 16.0894 11.9348 15.5834Z" fill="#FFC655"/>
</svg>
